<?xml version="1.0" encoding="UTF-8"?>
<svg version="1.1" xmlns="http://www.w3.org/2000/svg" width="210" height="201">
<path d="M0 0 C1.29773282 0.60642037 2.59594268 1.21182056 3.89453125 1.81640625 C12.24655855 5.77641071 19.74404923 10.21468582 27 16 C27.85207031 16.65613281 28.70414063 17.31226562 29.58203125 17.98828125 C31.81831106 19.84883715 33.63391149 21.71491817 35.5 23.9375 C37.36213881 26.14659392 39.20352965 28.19115285 41.3125 30.171875 C53.82624607 43.34041011 61.45975159 59.7512504 63.25 77.765625 C62.93502274 80.58073423 61.84641411 81.90355065 60 84 C57.69 83.67 55.38 83.34 53 83 C52.8548999 82.43192627 52.7097998 81.86385254 52.56030273 81.27856445 C49.55114609 69.68153031 46.45314289 59.19451562 40 49 C39.15501953 47.65615234 39.15501953 47.65615234 38.29296875 46.28515625 C36.3473752 43.28865815 34.52989483 40.52989483 32 38 C31.12186701 36.94008788 30.24726422 35.8772471 29.375 34.8125 C25.03175302 29.74009477 20.25886088 25.10917519 14.375 21.875 C11 20 11 20 8.4375 17.625 C-2.03334062 8.66967579 -17.9212496 6.57495866 -31 4 C-31 3.34 -31 2.68 -31 2 C-39.91 2 -48.82 2 -58 2 C-58 2.66 -58 3.32 -58 4 C-59.08796875 4.23074219 -60.1759375 4.46148437 -61.296875 4.69921875 C-79.09692521 8.59698063 -92.95037048 15.33526558 -107 27 C-107.88945313 27.6909375 -108.77890625 28.381875 -109.6953125 29.09375 C-112.24790803 31.20504935 -113.41622968 33.10789768 -115 36 C-116.2704964 38.04049422 -117.59431196 40.05017465 -119 42 C-119.66 42 -120.32 42 -121 42 C-121.10699219 42.56203125 -121.21398437 43.1240625 -121.32421875 43.703125 C-122.11265487 46.38289632 -123.35220955 48.36917202 -124.8125 50.75 C-133.43179002 66.14454925 -135.53161251 86.78222976 -131.11328125 103.72265625 C-128.22544256 112.22404804 -124.54032757 119.72254733 -118 126 C-117.13979408 127.2527999 -116.3037256 128.52273763 -115.5 129.8125 C-111.26703814 135.57584038 -105.16417155 138.61671039 -99 142 C-97.96875 142.57105469 -96.9375 143.14210937 -95.875 143.73046875 C-78.79047633 152.73988553 -58.92024897 154.7575088 -40.3203125 149.19921875 C-38.78704687 148.68241516 -37.25968502 148.14735599 -35.7421875 147.5859375 C-34 147 -34 147 -32 147 C-31.67 146.34 -31.34 145.68 -31 145 C-26.73593525 141.52685048 -21.92396121 138.16958449 -16.8125 136.125 C-14.7984185 135.12303442 -14.7984185 135.12303442 -14.125 132.8125 C-13.02299957 130.05749891 -12.11284841 128.91961932 -10.125 126.8125 C-2.17058733 117.94401057 -1.29969295 106.30141249 -1.83837891 94.94433594 C-2.43576499 87.75765501 -5.22091872 83.26435279 -10.625 78.625 C-19.24861204 72.39683575 -27.29984844 69.60064068 -38 71 C-44.49904182 72.73369589 -52.51770857 75.79783523 -56.09375 81.8515625 C-58.14399344 86.76835001 -59.16518139 91.76119071 -57.30859375 96.921875 C-55.59474453 100.39259895 -54.30253546 101.86618624 -50.75 103.4375 C-49.38875 103.7159375 -49.38875 103.7159375 -48 104 C-48 104.66 -48 105.32 -48 106 C-46.68 106 -45.36 106 -44 106 C-44 105.34 -44 104.68 -44 104 C-42.9275 103.608125 -41.855 103.21625 -40.75 102.8125 C-37.77996864 101.57943309 -37.0340085 101.04717308 -35.0625 98.3125 C-33 96 -33 96 -31.015625 95.64453125 C-28.8125 95.625 -28.8125 95.625 -25 96 C-23.43058802 97.56941198 -23.7550153 99.14134994 -23.6875 101.3125 C-23.74236641 105.64694656 -23.74236641 105.64694656 -25.6875 108.3125 C-26.450625 108.869375 -27.21375 109.42625 -28 110 C-28.721875 110.680625 -29.44375 111.36125 -30.1875 112.0625 C-36.96417659 116.73087721 -43.16527728 117.47409763 -51.265625 116.5078125 C-58.76130512 115.11575762 -62.91477611 110.89614429 -67.25 104.875 C-71.38156486 97.13251464 -70.29896647 88.14156278 -68 80 C-66.875 76.875 -66.875 76.875 -66 75 C-65.34 75 -64.68 75 -64 75 C-64 74.01 -64 73.02 -64 72 C-63.01 71.67 -62.02 71.34 -61 71 C-60.29875 70.2575 -59.5975 69.515 -58.875 68.75 C-51.00193703 61.21924411 -43.29138386 59.80825648 -32.8125 59.75 C-31.90435547 59.729375 -30.99621094 59.70875 -30.06054688 59.6875 C-19.598192 59.62758673 -12.30583467 62.8430143 -4 69 C-3.36964844 69.41765625 -2.73929688 69.8353125 -2.08984375 70.265625 C4.49891059 75.07324355 7.93668781 83.1446347 9.6484375 90.9609375 C11.33595392 105.54857945 9.29811824 119.15873624 2 132 C-0.6875 134.9375 -0.6875 134.9375 -3 137 C-3.33 137.66 -3.66 138.32 -4 139 C-6.36263349 143.72526698 -10.52230872 146.47412287 -15 149 C-15.721875 149.556875 -16.44375 150.11375 -17.1875 150.6875 C-19 152 -19 152 -21 152 C-21 152.66 -21 153.32 -21 154 C-23.59864539 155.13938262 -26.20285207 156.26131451 -28.8125 157.375 C-29.53115234 157.69210938 -30.24980469 158.00921875 -30.99023438 158.3359375 C-41.03617209 162.58443979 -50.99237984 163.36754596 -61.8125 163.3125 C-62.9574292 163.30758545 -64.1023584 163.3026709 -65.28198242 163.29760742 C-73.57670494 163.18270575 -81.05644213 162.54152693 -89 160 C-90.07765625 159.67128906 -91.1553125 159.34257812 -92.265625 159.00390625 C-100.97483929 156.02172269 -107.6503324 151.39877029 -115 146 C-116.52560547 145.04867187 -116.52560547 145.04867187 -118.08203125 144.078125 C-121.2813904 141.7995988 -123.3506945 139.41091348 -125.75 136.3125 C-128.41666796 132.60555991 -128.41666796 132.60555991 -132 130 C-136.45282113 123.10448841 -139.39657937 115.74052741 -142 108 C-142.433125 106.92878906 -142.433125 106.92878906 -142.875 105.8359375 C-145.59592216 98.85049311 -145.96203278 91.44157533 -146 84 C-145.505 83.505 -145.505 83.505 -145 83 C-144.92755947 80.98035801 -144.91622812 78.95832876 -144.9375 76.9375 C-144.95103516 75.28041016 -144.95103516 75.28041016 -144.96484375 73.58984375 C-144.97644531 72.73519531 -144.98804688 71.88054687 -145 71 C-144.34 71 -143.68 71 -143 71 C-142.99742187 70.46375 -142.99484375 69.9275 -142.9921875 69.375 C-142.69926028 63.43834177 -141.26390031 58.3307804 -139.1875 52.8125 C-138.93919434 52.14798828 -138.69088867 51.48347656 -138.43505859 50.79882812 C-133.79289346 38.89644673 -133.79289346 38.89644673 -130 37 C-129.484375 36.030625 -128.96875 35.06125 -128.4375 34.0625 C-119.06640517 17.15303369 -100.56253695 4.37665022 -82.7421875 -2.22265625 C-80 -3 -80 -3 -76 -3 C-76 -3.66 -76 -4.32 -76 -5 C-73.98007005 -5.4829607 -71.95900646 -5.96118112 -69.9375 -6.4375 C-68.81214844 -6.70433594 -67.68679687 -6.97117187 -66.52734375 -7.24609375 C-44.62566595 -11.92718325 -20.18151345 -9.94566088 0 0 Z " fill="#0749B4" transform="translate(146,10)"/>
<path d="M0 0 C0 0.66 0 1.32 0 2 C1.10214844 2.40992188 1.10214844 2.40992188 2.2265625 2.828125 C10.13889717 6.171365 19.46186253 12.52542064 24 20 C24 20.66 24 21.32 24 22 C24.66 22 25.32 22 26 22 C29.76623377 28.4025974 29.76623377 28.4025974 31.125 31.875 C31.79931699 34.17331714 31.79931699 34.17331714 34 35 C43.41264664 50.01450517 42.87144242 72.36258236 39.75 89.1875 C37.43202709 98.95303403 34.58871506 106.8594251 28.48828125 114.90625 C26.83003498 117.02341397 26.83003498 117.02341397 26 120 C25.34 120 24.68 120 24 120 C23.731875 120.804375 23.46375 121.60875 23.1875 122.4375 C22.795625 123.283125 22.40375 124.12875 22 125 C21.01 125.33 20.02 125.66 19 126 C18.67 126.66 18.34 127.32 18 128 C17.34 128 16.68 128 16 128 C15.773125 128.556875 15.54625 129.11375 15.3125 129.6875 C12.26010406 135.06553095 7.88173054 137.84013883 2.5546875 140.6171875 C-0.05070351 141.98417803 -0.05070351 141.98417803 -2.6171875 143.6953125 C-25.0358742 158.04078792 -56.81655787 159.3422525 -82.16113281 153.78369141 C-89.59410403 152.00070938 -96.83328129 149.64951419 -104 147 C-104 146.34 -104 145.68 -104 145 C-104.59167969 144.81824219 -105.18335937 144.63648438 -105.79296875 144.44921875 C-114.30494164 141.74149491 -114.30494164 141.74149491 -118 139 C-118 138.34 -118 137.68 -118 137 C-118.99 137 -119.98 137 -121 137 C-121 136.34 -121 135.68 -121 135 C-121.57234375 134.89816406 -122.1446875 134.79632813 -122.734375 134.69140625 C-127.02363594 133.38244214 -130.2195227 130.45253579 -133 127 C-133.83096332 123.91989597 -133.54915135 122.23999294 -133 119 C-131 117 -131 117 -128.25 116.5625 C-123.88779696 117.14971964 -122.11002992 118.95908186 -119 122 C-118.32324219 122.98419922 -118.32324219 122.98419922 -117.6328125 123.98828125 C-112.10159472 130.80305914 -100.93513616 133.87026043 -93 137 C-93 137.66 -93 138.32 -93 139 C-90.31339217 139.64974205 -87.62581326 140.29488418 -84.9375 140.9375 C-84.18533203 141.11990234 -83.43316406 141.30230469 -82.65820312 141.49023438 C-57.52431529 147.47449338 -31.30500679 145.68735283 -8.72314453 132.96972656 C-7.17227681 132.09695147 -5.60087432 131.26090864 -4.02734375 130.4296875 C1.13472918 127.58003638 4.77790267 124.45811355 8.48046875 119.87109375 C10 118 10 118 12.625 115.5 C17.59066676 110.27298236 20.58698083 104.02258536 23.6875 97.5625 C24.13391846 96.65008545 24.13391846 96.65008545 24.58935547 95.71923828 C28.5677643 87.20440416 29.33795481 79.00916722 29.25 69.6875 C29.24468262 68.67800293 29.23936523 67.66850586 29.23388672 66.62841797 C29.16038511 56.17451254 29.16038511 56.17451254 27 46 C26.34 45.67 25.68 45.34 25 45 C23.76497515 42.87054469 22.59338436 40.73405038 21.4375 38.5625 C14.20609248 25.49936592 4.07996533 15.35904118 -10 10 C-10 9.34 -10 8.68 -10 8 C-29.70399354 2.11384939 -50.71354459 -1.91880458 -70.1875 7.1875 C-75.82161393 10.25558185 -80.9322491 14.08436451 -86 18 C-86.88429687 18.66386719 -87.76859375 19.32773438 -88.6796875 20.01171875 C-90.84600111 21.86803799 -92.01478782 23.25070247 -93.3125 25.75 C-93.869375 26.8225 -94.42625 27.895 -95 29 C-95.66 29 -96.32 29 -97 29 C-97.20109375 30.0828125 -97.20109375 30.0828125 -97.40625 31.1875 C-98.14829817 34.702465 -99.2105481 38.07375391 -100.28125 41.5 C-100.99572279 43.98512275 -101.52805309 46.4587474 -102 49 C-102.66 49 -103.32 49 -104 49 C-104 52.63 -104 56.26 -104 60 C-103.34 60 -102.68 60 -102 60 C-101.78085938 60.7734375 -101.56171875 61.546875 -101.3359375 62.34375 C-98.07469453 73.05547489 -92.84283303 81.7965638 -82.71875 87.22265625 C-77.25320166 89.6354537 -72.3078884 90.4831164 -66.34765625 90.62890625 C-64 91 -64 91 -62.20703125 92.3359375 C-60.34028265 94.90951324 -60.60746173 96.92511688 -61 100 C-65.73093313 103.15395542 -70.46170719 102.52002749 -76 102 C-87.72066868 99.43428148 -97.39452868 93.26108413 -105 84 C-106.52521614 81.38857652 -107.74235018 78.75715537 -109 76 C-109.66 75.67 -110.32 75.34 -111 75 C-116.79493212 61.55575749 -115.22296104 47.83320408 -112 34 C-111.67 33.34 -111.34 32.68 -111 32 C-110.34 32 -109.68 32 -109 32 C-108.86464844 31.45472656 -108.72929688 30.90945312 -108.58984375 30.34765625 C-104.78275751 17.01145596 -93.35361712 6.46704745 -81.74609375 -0.50390625 C-77.5978251 -2.76391605 -73.49241683 -4.54299995 -69 -6 C-68.14148438 -6.2990625 -67.28296875 -6.598125 -66.3984375 -6.90625 C-44.2869233 -13.34302502 -20.67821552 -8.7747558 0 0 Z " fill="#0749B3" transform="translate(153,45)"/>
<path d="M0 0 C0.66 0 1.32 0 2 0 C0.28087301 6.65030706 -2.15360722 11.12223898 -7 16 C-7.66 15.34 -8.32 14.68 -9 14 C-7.88625 12.7625 -7.88625 12.7625 -6.75 11.5 C-3.77547127 7.95768374 -1.94706468 4.18258338 0 0 Z " fill="#0641A5" transform="translate(150,131)"/>
<path d="M0 0 C-1.4317808 3.6297578 -3.00805819 4.90238825 -6.4375 6.6875 C-7.61119141 7.31205078 -7.61119141 7.31205078 -8.80859375 7.94921875 C-11 9 -11 9 -14 10 C-12.69467452 6.08402356 -11.02734726 5.46169654 -7.5625 3.3125 C-6.07943359 2.37857422 -6.07943359 2.37857422 -4.56640625 1.42578125 C-2 0 -2 0 0 0 Z " fill="#0A46A8" transform="translate(164,178)"/>
<path d="M0 0 C0.33 0.66 0.66 1.32 1 2 C-1.97 5.63 -4.94 9.26 -8 13 C-8.66 12.34 -9.32 11.68 -10 11 C-8.52116808 9.35386588 -7.04192523 7.70810092 -5.5625 6.0625 C-4.73878906 5.14597656 -3.91507813 4.22945312 -3.06640625 3.28515625 C-1 1 -1 1 0 0 Z " fill="#053FAE" transform="translate(59,54)"/>
<path d="M0 0 C0.66 0.33 1.32 0.66 2 1 C1.3503125 1.5878125 1.3503125 1.5878125 0.6875 2.1875 C-1.27015395 4.29016535 -2.55040872 6.52361489 -4 9 C-4.98244845 10.34631825 -5.97676564 11.68441297 -7 13 C-7.99 12.67 -8.98 12.34 -10 12 C-6.66666667 8 -3.33333333 4 0 0 Z " fill="#0942A5" transform="translate(35,37)"/>
<path d="M0 0 C0.99 0 1.98 0 3 0 C4.33895632 1.66215268 5.67130142 3.32963607 7 5 C8.99408077 6.34216975 10.99301025 7.6772113 13 9 C13 9.66 13 10.32 13 11 C8.98935008 9.65843409 6.61296284 7.97314977 3.6875 4.9375 C2.99011719 4.22464844 2.29273438 3.51179687 1.57421875 2.77734375 C0 1 0 1 0 0 Z " fill="#073FA9" transform="translate(50,130)"/>
<path d="M0 0 C2.95803481 1.3487075 5.20796367 2.89568549 7.625 5.0625 C9.4181258 6.66378483 10.84656316 7.92328158 13 9 C13 9.66 13 10.32 13 11 C11.65686601 10.35330586 10.32608822 9.68096422 9 9 C7.7625 8.38125 7.7625 8.38125 6.5 7.75 C3.43664678 5.60565274 1.90931396 3.18218993 0 0 Z " fill="#0D47AA" transform="translate(21,146)"/>
<path d="M0 0 C4.29238623 1.65091778 6.8793915 4.73754566 10 8 C9.67 8.66 9.34 9.32 9 10 C5.01930733 7.12505529 2.56428003 4.17882671 0 0 Z " fill="#0A41AC" transform="translate(169,37)"/>
<path d="M0 0 C0.66 0.66 1.32 1.32 2 2 C0.71349294 2.69710731 -0.57940665 3.38242876 -1.875 4.0625 C-2.95394531 4.63677734 -2.95394531 4.63677734 -4.0546875 5.22265625 C-4.69664063 5.47917969 -5.33859375 5.73570313 -6 6 C-6.66 5.67 -7.32 5.34 -8 5 C-5.64722731 2.27573689 -3.37503669 1.1858237 0 0 Z " fill="#053FA6" transform="translate(61,19)"/>
<path d="M0 0 C3.3 0.99 6.6 1.98 10 3 C9.67 3.66 9.34 4.32 9 5 C7.68428397 4.7452486 6.37239624 4.47065859 5.0625 4.1875 C4.33160156 4.03667969 3.60070313 3.88585937 2.84765625 3.73046875 C2.23792969 3.48941406 1.62820312 3.24835938 1 3 C0.67 2.01 0.34 1.02 0 0 Z " fill="#0641A7" transform="translate(51,190)"/>
<path d="M0 0 C3.43927579 1.2419607 6.25207819 2.55740284 9 5 C9 5.66 9 6.32 9 7 C5.88626628 5.50079488 2.87771795 3.91847864 0 2 C0 1.34 0 0.68 0 0 Z " fill="#0C44A9" transform="translate(159,29)"/>
<path d="M0 0 C0 3 0 3 -1.3125 4.38671875 C-2.875 5.59114583 -4.4375 6.79557292 -6 8 C-6.66 7.67 -7.32 7.34 -8 7 C-5.4837822 4.39391727 -2.94865641 2.10618315 0 0 Z " fill="#0543A7" transform="translate(133,154)"/>
<path d="M0 0 C0.66 0 1.32 0 2 0 C0.94124926 3.40312738 -0.00902154 6.01353231 -2 9 C-2.66 9 -3.32 9 -4 9 C-2.80100302 5.9168649 -1.52299523 2.93720508 0 0 Z " fill="#114FB9" transform="translate(175,146)"/>
<path d="M0 0 C0.33 0.99 0.66 1.98 1 3 C-0.65 4.32 -2.3 5.64 -4 7 C-4.66 6.67 -5.32 6.34 -6 6 C-4.02 4.02 -2.04 2.04 0 0 Z " fill="#0C44A6" transform="translate(43,30)"/>
</svg>
