<svg xmlns="http://www.w3.org/2000/svg" width="1600" height="1200" viewBox="0 0 1600 1200" fill="none" role="img" aria-labelledby="title desc">
  <title id="title">Touchy Subjects Placeholder</title>
  <desc id="desc">Gradient image placeholder for local assets.</desc>
  <defs>
    <linearGradient id="bg" x1="176" y1="140" x2="1428" y2="1038" gradientUnits="userSpaceOnUse">
      <stop offset="0" stop-color="#161229"/>
      <stop offset="0.28" stop-color="#263455"/>
      <stop offset="0.58" stop-color="#143B35"/>
      <stop offset="1" stop-color="#3D2310"/>
    </linearGradient>
    <linearGradient id="accent" x1="254" y1="242" x2="1368" y2="926" gradientUnits="userSpaceOnUse">
      <stop offset="0" stop-color="#8B5CF6"/>
      <stop offset="0.25" stop-color="#3B82F6"/>
      <stop offset="0.5" stop-color="#10B981"/>
      <stop offset="0.75" stop-color="#F59E0B"/>
      <stop offset="1" stop-color="#EF4444"/>
    </linearGradient>
  </defs>
  <rect width="1600" height="1200" rx="48" fill="url(#bg)"/>
  <circle cx="302" cy="250" r="184" fill="#8B5CF6" fill-opacity="0.18"/>
  <circle cx="1312" cy="284" r="170" fill="#3B82F6" fill-opacity="0.18"/>
  <circle cx="1194" cy="936" r="182" fill="#10B981" fill-opacity="0.16"/>
  <circle cx="422" cy="938" r="170" fill="#F59E0B" fill-opacity="0.14"/>
  <rect x="152" y="152" width="1296" height="896" rx="40" fill="white" fill-opacity="0.04" stroke="white" stroke-opacity="0.1"/>
  <rect x="220" y="226" width="1160" height="748" rx="28" fill="black" fill-opacity="0.16"/>
  <path d="M800 374C948 374 1068 494 1068 642" stroke="url(#accent)" stroke-width="18" stroke-linecap="round"/>
  <path d="M800 442C908 442 996 530 996 638" stroke="url(#accent)" stroke-width="16" stroke-linecap="round"/>
  <path d="M800 508C874 508 934 568 934 642" stroke="url(#accent)" stroke-width="14" stroke-linecap="round"/>
  <path d="M800 572C846 572 882 608 882 654" stroke="url(#accent)" stroke-width="12" stroke-linecap="round"/>
  <path d="M802 640V802" stroke="url(#accent)" stroke-width="12" stroke-linecap="round"/>
  <text x="800" y="928" fill="white" fill-opacity="0.94" font-family="Manrope, Arial, sans-serif" font-size="62" font-weight="800" letter-spacing="12" text-anchor="middle">IMAGE PLACEHOLDER</text>
  <text x="800" y="992" fill="white" fill-opacity="0.54" font-family="IBM Plex Mono, monospace" font-size="28" font-weight="500" letter-spacing="5" text-anchor="middle">assets/images/placeholders/general-placeholder</text>
</svg>
