<?xml version="1.0" encoding="UTF-8"?>
<svg version="1.1" xmlns="http://www.w3.org/2000/svg" width="210" height="211">
<path d="M0 0 C0.74121094 0.06703125 1.48242188 0.1340625 2.24609375 0.203125 C8.80827373 1.75237491 13.23011181 7.06340798 17.85546875 11.63671875 C18.64270828 12.41255814 19.42994781 13.18839752 20.24104309 13.98774719 C21.90039485 15.62824396 23.55688528 17.27163934 25.21069336 18.91772461 C27.73775484 21.42534903 30.28533415 23.91083062 32.83398438 26.39648438 C34.44662887 27.99606981 36.05800032 29.59693991 37.66796875 31.19921875 C38.42941696 31.93597336 39.19086517 32.67272797 39.97538757 33.43180847 C45.1651737 38.66581319 47.38279173 42.58980546 47.64453125 50.10546875 C45.96200887 61.54174407 35.97805728 68.96088645 28.2421875 76.82543945 C26.54509118 78.56064908 24.85970648 80.3073943 23.18652344 82.06567383 C20.75775555 84.61683821 18.29410876 87.12928212 15.8203125 89.63671875 C15.08749054 90.42004074 14.35466858 91.20336273 13.59963989 92.01042175 C7.6209462 97.94305698 1.98183787 99.77324928 -6.4375 99.75 C-13.58115947 98.8492921 -18.14948613 93.79773084 -23.0234375 88.8984375 C-23.80643219 88.12496979 -24.58942688 87.35150208 -25.39614868 86.55459595 C-27.0410728 84.92179178 -28.67959747 83.2825181 -30.31201172 81.63720703 C-32.80500279 79.13253234 -35.32830875 76.66154416 -37.85546875 74.19140625 C-39.45506632 72.59569368 -41.05278795 70.99809793 -42.6484375 69.3984375 C-43.77649307 68.30104752 -43.77649307 68.30104752 -44.92733765 67.18148804 C-49.67962 62.32243449 -51.7189394 58.51445907 -52.4375 51.75 C-52.6025 50.615625 -52.7675 49.48125 -52.9375 48.3125 C-51.36849553 37.13334317 -41.24570078 28.9411629 -33.60693359 21.39794922 C-31.55990741 19.37243466 -29.53522725 17.32632367 -27.51171875 15.27734375 C-26.19919776 13.96746506 -24.88543699 12.65882723 -23.5703125 11.3515625 C-22.97421173 10.74736481 -22.37811096 10.14316711 -21.76394653 9.5206604 C-15.7700231 3.65689275 -8.66588668 -0.90113206 0 0 Z M-9.9296875 15.515625 C-10.6218335 16.15113281 -11.31397949 16.78664063 -12.02709961 17.44140625 C-16.47809153 21.70440428 -20.88244719 26.00898652 -25.23999023 30.3671875 C-26.89094249 32.01592107 -28.54978308 33.65644791 -30.20898438 35.296875 C-31.2635082 36.34846984 -32.31756236 37.4005359 -33.37109375 38.453125 C-33.86580673 38.94065247 -34.36051971 39.42817993 -34.870224 39.93048096 C-38.95695057 44.0448655 -39.53976131 46.8576634 -39.765625 52.6171875 C-38.90577783 58.20619407 -34.43306398 62.06168243 -30.59765625 65.890625 C-29.7526078 66.74210114 -29.7526078 66.74210114 -28.89048767 67.61077881 C-27.70370698 68.80327905 -26.51432859 69.99319906 -25.32250977 71.18066406 C-23.50058247 72.99941855 -21.6924167 74.83113131 -19.88476562 76.6640625 C-18.72737345 77.8237266 -17.56919676 78.98260835 -16.41015625 80.140625 C-15.87149429 80.6884967 -15.33283234 81.23636841 -14.77784729 81.80084229 C-11.17686809 85.39762926 -11.17686809 85.39762926 -6.4375 86.75 C-5.2 86.894375 -3.9625 87.03875 -2.6875 87.1875 C6.29268834 86.99872419 13.47718212 77.20790278 19.40063477 71.2824707 C20.87952463 69.80798886 22.37375456 68.35030443 23.86914062 66.89257812 C24.82649731 65.94108565 25.78291138 64.98864362 26.73828125 64.03515625 C27.59333252 63.18832275 28.44838379 62.34148926 29.3293457 61.46899414 C32.95690848 57.05222727 34.88928838 53.01440418 34.64599609 47.26171875 C33.80454663 41.95793522 31.02861096 39.14973683 27.2265625 35.5625 C26.59140717 34.9339209 25.95625183 34.3053418 25.30184937 33.65771484 C23.96437097 32.34097971 22.61744137 31.03378286 21.26171875 29.73583984 C19.18308423 27.74577238 17.13272605 25.72979185 15.0859375 23.70703125 C13.78018558 22.42811355 12.47294426 21.15071435 11.1640625 19.875 C10.54834381 19.27405518 9.93262512 18.67311035 9.29824829 18.05395508 C4.95019167 13.89929211 1.86260148 12.16559682 -4.29345703 12.29589844 C-6.90294015 12.84857876 -7.97180924 13.71596462 -9.9296875 15.515625 Z " fill="#9BCD40" transform="translate(154.4375,102.25)"/>
<path d="M0 0 C0.74121094 0.06703125 1.48242188 0.1340625 2.24609375 0.203125 C8.80827373 1.75237491 13.23011181 7.06340798 17.85546875 11.63671875 C18.64270828 12.41255814 19.42994781 13.18839752 20.24104309 13.98774719 C21.90039485 15.62824396 23.55688528 17.27163934 25.21069336 18.91772461 C27.73775484 21.42534903 30.28533415 23.91083062 32.83398438 26.39648438 C34.44662887 27.99606981 36.05800032 29.59693991 37.66796875 31.19921875 C38.42941696 31.93597336 39.19086517 32.67272797 39.97538757 33.43180847 C45.1651737 38.66581319 47.38279173 42.58980546 47.64453125 50.10546875 C45.96200887 61.54174407 35.97805728 68.96088645 28.2421875 76.82543945 C26.54509118 78.56064908 24.85970648 80.3073943 23.18652344 82.06567383 C20.75775555 84.61683821 18.29410876 87.12928212 15.8203125 89.63671875 C15.08749054 90.42004074 14.35466858 91.20336273 13.59963989 92.01042175 C7.6209462 97.94305698 1.98183787 99.77324928 -6.4375 99.75 C-13.58115947 98.8492921 -18.14948613 93.79773084 -23.0234375 88.8984375 C-23.80643219 88.12496979 -24.58942688 87.35150208 -25.39614868 86.55459595 C-27.0410728 84.92179178 -28.67959747 83.2825181 -30.31201172 81.63720703 C-32.80500279 79.13253234 -35.32830875 76.66154416 -37.85546875 74.19140625 C-39.45506632 72.59569368 -41.05278795 70.99809793 -42.6484375 69.3984375 C-43.77649307 68.30104752 -43.77649307 68.30104752 -44.92733765 67.18148804 C-49.67962 62.32243449 -51.7189394 58.51445907 -52.4375 51.75 C-52.6025 50.615625 -52.7675 49.48125 -52.9375 48.3125 C-51.36849553 37.13334317 -41.24570078 28.9411629 -33.60693359 21.39794922 C-31.55990741 19.37243466 -29.53522725 17.32632367 -27.51171875 15.27734375 C-26.19919776 13.96746506 -24.88543699 12.65882723 -23.5703125 11.3515625 C-22.97421173 10.74736481 -22.37811096 10.14316711 -21.76394653 9.5206604 C-15.7700231 3.65689275 -8.66588668 -0.90113206 0 0 Z M-9.9296875 15.515625 C-10.6218335 16.15113281 -11.31397949 16.78664063 -12.02709961 17.44140625 C-16.47809153 21.70440428 -20.88244719 26.00898652 -25.23999023 30.3671875 C-26.89094249 32.01592107 -28.54978308 33.65644791 -30.20898438 35.296875 C-31.2635082 36.34846984 -32.31756236 37.4005359 -33.37109375 38.453125 C-33.86580673 38.94065247 -34.36051971 39.42817993 -34.870224 39.93048096 C-38.95695057 44.0448655 -39.53976131 46.8576634 -39.765625 52.6171875 C-38.90577783 58.20619407 -34.43306398 62.06168243 -30.59765625 65.890625 C-29.7526078 66.74210114 -29.7526078 66.74210114 -28.89048767 67.61077881 C-27.70370698 68.80327905 -26.51432859 69.99319906 -25.32250977 71.18066406 C-23.50058247 72.99941855 -21.6924167 74.83113131 -19.88476562 76.6640625 C-18.72737345 77.8237266 -17.56919676 78.98260835 -16.41015625 80.140625 C-15.87149429 80.6884967 -15.33283234 81.23636841 -14.77784729 81.80084229 C-11.17686809 85.39762926 -11.17686809 85.39762926 -6.4375 86.75 C-5.2 86.894375 -3.9625 87.03875 -2.6875 87.1875 C6.29268834 86.99872419 13.47718212 77.20790278 19.40063477 71.2824707 C20.87952463 69.80798886 22.37375456 68.35030443 23.86914062 66.89257812 C24.82649731 65.94108565 25.78291138 64.98864362 26.73828125 64.03515625 C27.59333252 63.18832275 28.44838379 62.34148926 29.3293457 61.46899414 C32.95690848 57.05222727 34.88928838 53.01440418 34.64599609 47.26171875 C33.80454663 41.95793522 31.02861096 39.14973683 27.2265625 35.5625 C26.59140717 34.9339209 25.95625183 34.3053418 25.30184937 33.65771484 C23.96437097 32.34097971 22.61744137 31.03378286 21.26171875 29.73583984 C19.18308423 27.74577238 17.13272605 25.72979185 15.0859375 23.70703125 C13.78018558 22.42811355 12.47294426 21.15071435 11.1640625 19.875 C10.54834381 19.27405518 9.93262512 18.67311035 9.29824829 18.05395508 C4.95019167 13.89929211 1.86260148 12.16559682 -4.29345703 12.29589844 C-6.90294015 12.84857876 -7.97180924 13.71596462 -9.9296875 15.515625 Z " fill="#9BCD40" transform="translate(60.4375,8.25)"/>
<path d="M0 0 C1.12489334 -0.00960754 2.24978668 -0.01921509 3.4087677 -0.02911377 C5.23996407 -0.03548859 5.23996407 -0.03548859 7.1081543 -0.04199219 C8.98388374 -0.0505423 8.98388374 -0.0505423 10.89750671 -0.05926514 C13.54808188 -0.06872628 16.19854352 -0.07561722 18.84912109 -0.07910156 C22.23866025 -0.0845787 25.62779615 -0.10858956 29.01720905 -0.13707352 C32.25582684 -0.16022924 35.49446532 -0.1621519 38.7331543 -0.16699219 C39.94787918 -0.17933899 41.16260406 -0.19168579 42.41413879 -0.20440674 C43.54848862 -0.20140564 44.68283844 -0.19840454 45.8515625 -0.1953125 C46.84702591 -0.19895813 47.84248932 -0.20260376 48.86811829 -0.20635986 C53.59795776 0.42530303 56.87281818 2.9185139 59.89135742 6.515625 C63.85509763 12.09870197 63.41069769 17.86864662 63.27612305 24.48925781 C63.27237671 25.75582214 63.26863037 27.02238647 63.26477051 28.32733154 C63.25136477 30.99453834 63.22697541 33.65863119 63.18237305 36.32519531 C63.1255798 39.73708026 63.10392156 43.1480089 63.09500885 46.56032181 C63.08469117 49.82841825 63.05562669 53.09628593 63.02612305 56.36425781 C63.01337341 58.19866425 63.01337341 58.19866425 63.00036621 60.07012939 C62.98115112 61.20520935 62.96193604 62.34028931 62.94213867 63.50976562 C62.92848267 64.50711731 62.91482666 65.50446899 62.90075684 66.53204346 C62.33400941 71.83683387 59.5601879 74.70134416 55.61987305 78.16113281 C54.62987305 78.16113281 53.63987305 78.16113281 52.61987305 78.16113281 C52.61987305 78.82113281 52.61987305 79.48113281 52.61987305 80.16113281 C50.09542891 81.42335488 48.34068233 81.29493594 45.51513672 81.30639648 C44.45030563 81.31277634 43.38547455 81.31915619 42.28837585 81.32572937 C40.5556115 81.32739861 40.5556115 81.32739861 38.7878418 81.32910156 C37.60394363 81.33242996 36.42004547 81.33575836 35.20027161 81.33918762 C32.69097279 81.34425858 30.18166721 81.3465959 27.67236328 81.34643555 C23.83378956 81.34861779 19.99550509 81.36676035 16.15698242 81.38574219 C13.72143653 81.38867691 11.28588927 81.39066118 8.8503418 81.39160156 C7.70123825 81.39878708 6.5521347 81.4059726 5.36820984 81.41337585 C4.29392227 81.41029922 3.2196347 81.4072226 2.11279297 81.40405273 C1.17062424 81.40547775 0.22845551 81.40690277 -0.74226379 81.40837097 C-4.76431461 81.0313975 -7.51692756 80.02433221 -10.38012695 77.16113281 C-10.71012695 76.50113281 -11.04012695 75.84113281 -11.38012695 75.16113281 C-12.04012695 74.83113281 -12.70012695 74.50113281 -13.38012695 74.16113281 C-16.12872985 69.87331229 -17.50437662 67.23116633 -17.52539062 62.14819336 C-17.53177048 61.10338303 -17.53815033 60.05857269 -17.54472351 58.98210144 C-17.54583633 57.84879898 -17.54694916 56.71549652 -17.5480957 55.54785156 C-17.5514241 54.38614944 -17.5547525 53.22444733 -17.55818176 52.02754211 C-17.56325259 49.56532183 -17.56559004 47.10309465 -17.56542969 44.64086914 C-17.56761184 40.87472161 -17.58575424 37.10886893 -17.60473633 33.34277344 C-17.60767107 30.95280048 -17.60965533 28.56282613 -17.6105957 26.17285156 C-17.61778122 25.0456218 -17.62496674 23.91839203 -17.63237 22.75700378 C-17.62929337 21.70273697 -17.62621674 20.64847015 -17.62304688 19.56225586 C-17.62447189 18.63785202 -17.62589691 17.71344818 -17.62736511 16.7610321 C-17.24675757 12.75865124 -16.22898007 10.00998593 -13.38012695 7.16113281 C-12.90575195 6.45988281 -12.43137695 5.75863281 -11.94262695 5.03613281 C-11.42700195 4.41738281 -10.91137695 3.79863281 -10.38012695 3.16113281 C-9.39012695 3.16113281 -8.40012695 3.16113281 -7.38012695 3.16113281 C-7.38012695 2.50113281 -7.38012695 1.84113281 -7.38012695 1.16113281 C-4.79203408 -0.13291362 -2.89819207 0.01992682 0 0 Z M-5.16333008 15.21606445 C-6.95614166 19.55528718 -6.84787953 23.62884465 -6.84887695 28.28222656 C-6.85649048 29.2597438 -6.864104 30.23726105 -6.87194824 31.24440002 C-6.882734 33.30784557 -6.88560855 35.37134564 -6.88110352 37.43481445 C-6.88013124 40.5847511 -6.92176995 43.73225078 -6.96606445 46.88183594 C-6.97127184 48.89029442 -6.97395964 50.89876133 -6.97387695 52.90722656 C-6.99027222 53.84489365 -7.00666748 54.78256073 -7.02355957 55.74864197 C-6.97751167 60.12481208 -6.83723134 63.19038507 -4.03051758 66.67700195 C-0.74164485 69.75956275 1.23540769 71.40425834 5.72070312 71.45166016 C6.54198196 71.46441986 7.3632608 71.47717957 8.20942688 71.49032593 C9.5360157 71.4936644 9.5360157 71.4936644 10.8894043 71.49707031 C12.2600428 71.50705551 12.2600428 71.50705551 13.65837097 71.51724243 C15.59253934 71.52736924 17.52674265 71.53205944 19.4609375 71.53173828 C22.41099186 71.53610119 25.35953759 71.57239155 28.30932617 71.61035156 C30.19018044 71.61622188 32.07104181 71.62018983 33.9519043 71.62207031 C34.83022415 71.63644135 35.70854401 71.65081238 36.61347961 71.6656189 C42.13204003 71.6247429 45.20893152 70.78448285 49.61987305 67.16113281 C50.51706055 66.44957031 50.51706055 66.44957031 51.43237305 65.72363281 C54.55136745 61.61969281 53.78067855 55.71242332 53.7878418 50.79003906 C53.7911702 49.99009018 53.7944986 49.1901413 53.79792786 48.36595154 C53.80297565 46.67911349 53.80533685 44.99226552 53.80517578 43.30541992 C53.8073628 40.73567149 53.82554255 38.16635232 53.84448242 35.59667969 C53.84741676 33.95280094 53.84940128 32.30892016 53.8503418 30.66503906 C53.85752731 29.90236221 53.86471283 29.13968536 53.87211609 28.35389709 C53.84681004 22.3973659 53.21213251 17.90873466 49.05737305 13.34863281 C48.25299805 12.62675781 47.44862305 11.90488281 46.61987305 11.16113281 C46.12487305 10.66613281 46.12487305 10.66613281 45.61987305 10.16113281 C44.2653838 10.05286589 42.905386 10.01213782 41.54663086 10 C40.68193176 9.99039246 39.81723267 9.98078491 38.92633057 9.97088623 C37.98473083 9.96663635 37.0431311 9.96238647 36.07299805 9.95800781 C35.10964539 9.95230774 34.14629272 9.94660767 33.15374756 9.94073486 C31.10926416 9.93126717 29.06476538 9.9247439 27.02026367 9.92089844 C23.89694353 9.91121673 20.77428788 9.88021981 17.65112305 9.84863281 C15.66675196 9.84210066 13.68237616 9.83685102 11.69799805 9.83300781 C10.76449524 9.82066101 9.83099243 9.80831421 8.86920166 9.79559326 C2.71860366 9.81663326 -0.96397667 10.37680409 -5.16333008 15.21606445 Z " fill="#9BCE40" transform="translate(36.380126953125,109.8388671875)"/>
<path d="M0 0 C1.12489334 -0.00960754 2.24978668 -0.01921509 3.4087677 -0.02911377 C5.23996407 -0.03548859 5.23996407 -0.03548859 7.1081543 -0.04199219 C8.98388374 -0.0505423 8.98388374 -0.0505423 10.89750671 -0.05926514 C13.54808188 -0.06872628 16.19854352 -0.07561722 18.84912109 -0.07910156 C22.23866025 -0.0845787 25.62779615 -0.10858956 29.01720905 -0.13707352 C32.25582684 -0.16022924 35.49446532 -0.1621519 38.7331543 -0.16699219 C39.94787918 -0.17933899 41.16260406 -0.19168579 42.41413879 -0.20440674 C43.54848862 -0.20140564 44.68283844 -0.19840454 45.8515625 -0.1953125 C46.84702591 -0.19895813 47.84248932 -0.20260376 48.86811829 -0.20635986 C53.59795776 0.42530303 56.87281818 2.9185139 59.89135742 6.515625 C63.85509763 12.09870197 63.41069769 17.86864662 63.27612305 24.48925781 C63.27237671 25.75582214 63.26863037 27.02238647 63.26477051 28.32733154 C63.25136477 30.99453834 63.22697541 33.65863119 63.18237305 36.32519531 C63.1255798 39.73708026 63.10392156 43.1480089 63.09500885 46.56032181 C63.08469117 49.82841825 63.05562669 53.09628593 63.02612305 56.36425781 C63.01337341 58.19866425 63.01337341 58.19866425 63.00036621 60.07012939 C62.98115112 61.20520935 62.96193604 62.34028931 62.94213867 63.50976562 C62.92848267 64.50711731 62.91482666 65.50446899 62.90075684 66.53204346 C62.33400941 71.83683387 59.5601879 74.70134416 55.61987305 78.16113281 C54.62987305 78.16113281 53.63987305 78.16113281 52.61987305 78.16113281 C52.61987305 78.82113281 52.61987305 79.48113281 52.61987305 80.16113281 C50.09542891 81.42335488 48.34068233 81.29493594 45.51513672 81.30639648 C44.45030563 81.31277634 43.38547455 81.31915619 42.28837585 81.32572937 C40.5556115 81.32739861 40.5556115 81.32739861 38.7878418 81.32910156 C37.60394363 81.33242996 36.42004547 81.33575836 35.20027161 81.33918762 C32.69097279 81.34425858 30.18166721 81.3465959 27.67236328 81.34643555 C23.83378956 81.34861779 19.99550509 81.36676035 16.15698242 81.38574219 C13.72143653 81.38867691 11.28588927 81.39066118 8.8503418 81.39160156 C7.70123825 81.39878708 6.5521347 81.4059726 5.36820984 81.41337585 C4.29392227 81.41029922 3.2196347 81.4072226 2.11279297 81.40405273 C1.17062424 81.40547775 0.22845551 81.40690277 -0.74226379 81.40837097 C-4.76431461 81.0313975 -7.51692756 80.02433221 -10.38012695 77.16113281 C-10.71012695 76.50113281 -11.04012695 75.84113281 -11.38012695 75.16113281 C-12.04012695 74.83113281 -12.70012695 74.50113281 -13.38012695 74.16113281 C-16.12872985 69.87331229 -17.50437662 67.23116633 -17.52539062 62.14819336 C-17.53177048 61.10338303 -17.53815033 60.05857269 -17.54472351 58.98210144 C-17.54583633 57.84879898 -17.54694916 56.71549652 -17.5480957 55.54785156 C-17.5514241 54.38614944 -17.5547525 53.22444733 -17.55818176 52.02754211 C-17.56325259 49.56532183 -17.56559004 47.10309465 -17.56542969 44.64086914 C-17.56761184 40.87472161 -17.58575424 37.10886893 -17.60473633 33.34277344 C-17.60767107 30.95280048 -17.60965533 28.56282613 -17.6105957 26.17285156 C-17.61778122 25.0456218 -17.62496674 23.91839203 -17.63237 22.75700378 C-17.62929337 21.70273697 -17.62621674 20.64847015 -17.62304688 19.56225586 C-17.62447189 18.63785202 -17.62589691 17.71344818 -17.62736511 16.7610321 C-17.24675757 12.75865124 -16.22898007 10.00998593 -13.38012695 7.16113281 C-12.90575195 6.45988281 -12.43137695 5.75863281 -11.94262695 5.03613281 C-11.42700195 4.41738281 -10.91137695 3.79863281 -10.38012695 3.16113281 C-9.39012695 3.16113281 -8.40012695 3.16113281 -7.38012695 3.16113281 C-7.38012695 2.50113281 -7.38012695 1.84113281 -7.38012695 1.16113281 C-4.79203408 -0.13291362 -2.89819207 0.01992682 0 0 Z M-5.16333008 15.21606445 C-6.95614166 19.55528718 -6.84787953 23.62884465 -6.84887695 28.28222656 C-6.85649048 29.2597438 -6.864104 30.23726105 -6.87194824 31.24440002 C-6.882734 33.30784557 -6.88560855 35.37134564 -6.88110352 37.43481445 C-6.88013124 40.5847511 -6.92176995 43.73225078 -6.96606445 46.88183594 C-6.97127184 48.89029442 -6.97395964 50.89876133 -6.97387695 52.90722656 C-6.99027222 53.84489365 -7.00666748 54.78256073 -7.02355957 55.74864197 C-6.97751167 60.12481208 -6.83723134 63.19038507 -4.03051758 66.67700195 C-0.74164485 69.75956275 1.23540769 71.40425834 5.72070312 71.45166016 C6.54198196 71.46441986 7.3632608 71.47717957 8.20942688 71.49032593 C9.5360157 71.4936644 9.5360157 71.4936644 10.8894043 71.49707031 C12.2600428 71.50705551 12.2600428 71.50705551 13.65837097 71.51724243 C15.59253934 71.52736924 17.52674265 71.53205944 19.4609375 71.53173828 C22.41099186 71.53610119 25.35953759 71.57239155 28.30932617 71.61035156 C30.19018044 71.61622188 32.07104181 71.62018983 33.9519043 71.62207031 C34.83022415 71.63644135 35.70854401 71.65081238 36.61347961 71.6656189 C42.13204003 71.6247429 45.20893152 70.78448285 49.61987305 67.16113281 C50.51706055 66.44957031 50.51706055 66.44957031 51.43237305 65.72363281 C54.55136745 61.61969281 53.78067855 55.71242332 53.7878418 50.79003906 C53.7911702 49.99009018 53.7944986 49.1901413 53.79792786 48.36595154 C53.80297565 46.67911349 53.80533685 44.99226552 53.80517578 43.30541992 C53.8073628 40.73567149 53.82554255 38.16635232 53.84448242 35.59667969 C53.84741676 33.95280094 53.84940128 32.30892016 53.8503418 30.66503906 C53.85752731 29.90236221 53.86471283 29.13968536 53.87211609 28.35389709 C53.84681004 22.3973659 53.21213251 17.90873466 49.05737305 13.34863281 C48.25299805 12.62675781 47.44862305 11.90488281 46.61987305 11.16113281 C46.12487305 10.66613281 46.12487305 10.66613281 45.61987305 10.16113281 C44.2653838 10.05286589 42.905386 10.01213782 41.54663086 10 C40.68193176 9.99039246 39.81723267 9.98078491 38.92633057 9.97088623 C37.98473083 9.96663635 37.0431311 9.96238647 36.07299805 9.95800781 C35.10964539 9.95230774 34.14629272 9.94660767 33.15374756 9.94073486 C31.10926416 9.93126717 29.06476538 9.9247439 27.02026367 9.92089844 C23.89694353 9.91121673 20.77428788 9.88021981 17.65112305 9.84863281 C15.66675196 9.84210066 13.68237616 9.83685102 11.69799805 9.83300781 C10.76449524 9.82066101 9.83099243 9.80831421 8.86920166 9.79559326 C2.71860366 9.81663326 -0.96397667 10.37680409 -5.16333008 15.21606445 Z " fill="#9BCE40" transform="translate(127.380126953125,17.8388671875)"/>
</svg>
