<?xml version="1.0" encoding="UTF-8"?>
<svg version="1.1" xmlns="http://www.w3.org/2000/svg" width="209" height="205">
<path d="M0 0 C0.86133545 -0.01401855 1.7226709 -0.02803711 2.61010742 -0.04248047 C7.43845378 -0.00545982 10.5375293 0.34181417 14.5 3.375 C15.428125 3.99375 16.35625 4.6125 17.3125 5.25 C20.76337491 10.1798213 20.20867327 15.53404035 19.5 21.375 C18.47265625 23.77734375 18.47265625 23.77734375 17.5 25.375 C16.84 25.375 16.18 25.375 15.5 25.375 C15.005 26.86 15.005 26.86 14.5 28.375 C13.84 28.375 13.18 28.375 12.5 28.375 C12.39171875 28.96152344 12.2834375 29.54804688 12.171875 30.15234375 C10.7315882 34.91701344 6.81209081 38.51021287 2.75 41.1875 C2.0075 41.579375 1.265 41.97125 0.5 42.375 C-0.49 43.365 -0.49 43.365 -1.5 44.375 C-2.49 44.375 -3.48 44.375 -4.5 44.375 C-4.70625 45.1175 -4.9125 45.86 -5.125 46.625 C-6.5 49.375 -6.5 49.375 -9.265625 51.20703125 C-12.61575002 53.45258606 -14.95885359 55.79950382 -17.625 58.8125 C-18.86636719 60.20275391 -18.86636719 60.20275391 -20.1328125 61.62109375 C-25.21577954 67.52635451 -25.21577954 67.52635451 -28.6875 74.4375 C-29.01105469 75.27410156 -29.33460937 76.11070313 -29.66796875 76.97265625 C-32.59319345 85.41872758 -32.0457538 92.08338267 -28.5703125 100.30859375 C-27.55744587 102.5193306 -27.55744587 102.5193306 -25.5 104.375 C-25.5 105.365 -25.5 106.355 -25.5 107.375 C-24.96375 107.4575 -24.4275 107.54 -23.875 107.625 C-20.6647569 108.63876098 -18.23707608 110.44660549 -15.5 112.375 C-15.66008545 111.79484131 -15.8201709 111.21468262 -15.98510742 110.61694336 C-18.53207022 99.52696737 -16.6132194 87.76822401 -12.5 77.375 C-11.84 77.375 -11.18 77.375 -10.5 77.375 C-10.17 75.725 -9.84 74.075 -9.5 72.375 C-8.51 72.045 -7.52 71.715 -6.5 71.375 C-6.5 70.385 -6.5 69.395 -6.5 68.375 C-4.83720673 67.3685725 -3.17016516 66.36914593 -1.5 65.375 C-0.79848848 64.0596659 -0.13474075 62.72382408 0.5 61.375 C2.1222454 59.66506566 3.79413425 58.00152316 5.5 56.375 C6.345625 55.4675 7.19125 54.56 8.0625 53.625 C10.5 51.375 10.5 51.375 12.625 50.875 C14.79236458 50.51829772 14.79236458 50.51829772 16.125 47.9375 C16.805625 46.6690625 16.805625 46.6690625 17.5 45.375 C19.5 43.375 19.5 43.375 21.40234375 43.046875 C24.45467619 42.06921917 25.31864293 40.26224246 27.0625 37.625 C27.64128906 36.76390625 28.22007812 35.9028125 28.81640625 35.015625 C29.93939566 33.25427734 31.03084948 31.47242545 32.08984375 29.671875 C33.5 27.375 33.5 27.375 35.5 25.375 C36.43989947 24.23113407 37.37715193 23.08509064 38.3125 21.9375 C43.19487417 16.31926561 47.24644989 14.82386453 54.62890625 14.29296875 C58.93587882 14.41602511 62.57969706 15.66168242 66.5 17.375 C66.5 18.035 66.5 18.695 66.5 19.375 C67.49 19.705 68.48 20.035 69.5 20.375 C73.17385083 24.7553606 73.53261044 29.847531 73.5 35.375 C73.0468638 38.44726346 72.37079665 41.39558007 71.5 44.375 C70.84 44.375 70.18 44.375 69.5 44.375 C69.37818359 45.63183594 69.37818359 45.63183594 69.25390625 46.9140625 C68.34378847 51.09211613 66.62956153 54.12306572 64.4375 57.75 C63.87192383 58.71099609 63.87192383 58.71099609 63.29492188 59.69140625 C62.37160383 61.25754066 61.43694607 62.81698034 60.5 64.375 C59.84 64.375 59.18 64.375 58.5 64.375 C58.5 65.365 58.5 66.355 58.5 67.375 C56.83784732 68.71395632 55.17036393 70.04630142 53.5 71.375 C52.571875 72.798125 52.571875 72.798125 51.625 74.25 C49.43908863 77.46457555 47.22752772 79.42590414 44.25 81.8515625 C41.65217251 84.11306411 39.62493122 86.67054208 37.5 89.375 C34.07440916 88.17141403 31.96741391 87.01607354 29.5 84.375 C32.28155408 78.94209224 34.91047719 74.50557053 39.5 70.375 C42.82561758 67.20774516 45.17719167 64.313675 47.5 60.375 C48.11488281 59.80394531 48.72976562 59.23289063 49.36328125 58.64453125 C55.78838515 51.82006074 60.61134148 40.38744016 60.4375 31 C59.72642246 28.23621102 59.72642246 28.23621102 57.375 26.8125 C54.32416339 26.34824226 52.27947845 26.51354315 49.47265625 27.83984375 C45.68002463 30.79133727 43.12217079 34.93181588 40.41796875 38.85546875 C39.78503906 39.68691406 39.15210938 40.51835938 38.5 41.375 C37.84 41.375 37.18 41.375 36.5 41.375 C36.438125 41.931875 36.37625 42.48875 36.3125 43.0625 C34.24144136 48.9570515 27.15136686 53.38895964 22.609375 57.38671875 C20.44486736 59.19850446 20.44486736 59.19850446 19.5 61.375 C18.695625 61.49875 17.89125 61.6225 17.0625 61.75 C16.216875 61.95625 15.37125 62.1625 14.5 62.375 C13.83219203 63.70776207 13.16570864 65.04118808 12.5 66.375 C10.66015625 68.12109375 10.66015625 68.12109375 8.5625 69.8125 C5.43637708 72.47195349 3.35404918 74.66690164 1.5 78.375 C1.10039063 79.03242187 0.70078125 79.68984375 0.2890625 80.3671875 C-4.13863915 87.76375269 -6.62383546 95.68180218 -5.5 104.375 C-4.49580976 108.18357518 -3.26274575 111.8495085 -1.5 115.375 C-0.81081081 122.38175676 -0.81081081 122.38175676 -3.625 126.4375 C-6.5 128.375 -6.5 128.375 -9.3203125 128.12109375 C-22.36135297 125.06109531 -31.30528119 118.00762635 -39.34375 107.4921875 C-42.56160901 101.60002675 -42.85749555 95.60380893 -42.8125 89.0625 C-42.80512817 87.79901733 -42.80512817 87.79901733 -42.79760742 86.51000977 C-42.68180481 80.3665328 -42.0192346 75.03575027 -39.5 69.375 C-39.12488281 68.50359375 -38.74976563 67.6321875 -38.36328125 66.734375 C-36.02726169 61.69387855 -33.64768587 58.13685463 -29.5 54.375 C-28.26318956 52.94407133 -27.03487182 51.50578239 -25.8125 50.0625 C-22.16325505 45.90776191 -18.19373787 42.53887415 -13.796875 39.19921875 C-11.51825922 37.38950179 -9.53931803 35.44694712 -7.5 33.375 C-6.17565749 32.21878691 -4.84236348 31.07274099 -3.5 29.9375 C-0.44591231 27.30349129 2.00145093 24.54623536 4.5 21.375 C5.16 21.375 5.82 21.375 6.5 21.375 C6.83 19.725 7.16 18.075 7.5 16.375 C8.16 16.375 8.82 16.375 9.5 16.375 C9.5 15.715 9.5 15.055 9.5 14.375 C8.84 14.375 8.18 14.375 7.5 14.375 C7.5 13.715 7.5 13.055 7.5 12.375 C-3.5332405 11.75360348 -12.68694044 12.76313403 -23.18359375 16.28125 C-26.5 17.375 -26.5 17.375 -28.5 17.375 C-28.83 18.035 -29.16 18.695 -29.5 19.375 C-31.81638388 20.6602385 -34.13499571 21.87375624 -36.5 23.0625 C-42.71541366 26.28035712 -48.17564504 29.80040115 -53.5 34.375 C-54.41652344 35.11169922 -54.41652344 35.11169922 -55.3515625 35.86328125 C-59.92898125 39.60385913 -63.7442309 43.82154543 -67.5 48.375 C-68.12390625 49.12265625 -68.7478125 49.8703125 -69.390625 50.640625 C-72.9564182 55.04542837 -75.57020212 59.03967644 -77.5 64.375 C-78.16 64.375 -78.82 64.375 -79.5 64.375 C-79.78746094 65.24125 -80.07492188 66.1075 -80.37109375 67 C-81.08295641 69.12819839 -81.80317552 71.25363698 -82.53515625 73.375 C-82.87417969 74.365 -83.21320313 75.355 -83.5625 76.375 C-83.90410156 77.365 -84.24570313 78.355 -84.59765625 79.375 C-85.49793122 82.36812198 -86.05390136 85.28450217 -86.5 88.375 C-87.16 88.375 -87.82 88.375 -88.5 88.375 C-88.17 90.685 -87.84 92.995 -87.5 95.375 C-88.16 95.375 -88.82 95.375 -89.5 95.375 C-88.93744466 99.98316612 -88.3612271 104.58932214 -87.7734375 109.19433594 C-87.52539532 111.17247231 -87.29304902 113.1525611 -87.0625 115.1328125 C-86.08170625 122.96164832 -84.21946932 129.98144279 -81.5 137.375 C-80.82773373 139.37312475 -80.15959541 141.37265679 -79.5 143.375 C-78.84 143.375 -78.18 143.375 -77.5 143.375 C-74.5 149 -74.5 149 -74.5 152.375 C-73.51 152.705 -72.52 153.035 -71.5 153.375 C-70.8162955 154.69967746 -70.15035814 156.03363633 -69.5 157.375 C-68.51 158.035 -67.52 158.695 -66.5 159.375 C-66.190625 160.00792969 -65.88125 160.64085937 -65.5625 161.29296875 C-64.25696934 163.85123287 -62.79308367 164.97178204 -60.5 166.6875 C-59.70722656 167.285625 -58.91445313 167.88375 -58.09765625 168.5 C-54.57460927 171.0429512 -50.98872643 173.48828242 -47.37109375 175.89453125 C-46.75363281 176.38308594 -46.13617188 176.87164062 -45.5 177.375 C-45.5 178.035 -45.5 178.695 -45.5 179.375 C-44.98566406 179.48199219 -44.47132812 179.58898437 -43.94140625 179.69921875 C-40.66813583 180.60526 -37.57471063 181.90096671 -34.4375 183.1875 C-29.84859877 185.04085987 -25.25950319 186.8878807 -20.625 188.625 C-19.84382813 188.91890625 -19.06265625 189.2128125 -18.2578125 189.515625 C-9.54551062 192.23050661 -1.43590879 192.71112353 7.6875 192.6875 C9.52538086 192.71166992 9.52538086 192.71166992 11.40039062 192.73632812 C19.10102371 192.7403875 26.08782825 191.86208267 33.56762695 190.02026367 C36.5 189.375 36.5 189.375 40.5 189.375 C40.5 188.715 40.5 188.055 40.5 187.375 C41.25023437 187.08367187 42.00046875 186.79234375 42.7734375 186.4921875 C49.7905522 183.68180655 56.11181776 180.39624619 62.5 176.375 C63.16 176.045 63.82 175.715 64.5 175.375 C64.83 174.385 65.16 173.395 65.5 172.375 C67.0234375 170.91015625 67.0234375 170.91015625 68.875 169.4375 C71.02617704 167.67704695 72.58879242 166.25449601 74.25 164 C74.6625 163.46375 75.075 162.9275 75.5 162.375 C76.49 162.375 77.48 162.375 78.5 162.375 C78.60699219 161.64796875 78.71398437 160.9209375 78.82421875 160.171875 C79.55226325 157.1586966 80.63753052 155.22014258 82.3125 152.625 C87.35471492 145.00798977 87.35471492 145.00798977 89.5 136.375 C90.16 136.375 90.82 136.375 91.5 136.375 C91.6546875 135.0446875 91.6546875 135.0446875 91.8125 133.6875 C92.30865046 130.12096912 93.13883336 126.6825763 94 123.1875 C97.13304908 111.09279556 97.13304908 111.09279556 94.5 99.375 C90.37491377 96.61012539 85.47704117 96.02818343 80.625 96.625 C71.15602727 98.99961777 64.49454388 107.15080609 58.5 114.375 C57.84 114.375 57.18 114.375 56.5 114.375 C56.5 115.035 56.5 115.695 56.5 116.375 C55.5246803 117.39908568 54.51801357 118.39334406 53.5 119.375 C52.84 120.24125 52.18 121.1075 51.5 122 C49.5 124.375 49.5 124.375 46.5 125.375 C45.860625 126.138125 45.22125 126.90125 44.5625 127.6875 C40.02185623 132.37858678 32.90002 134.26763095 26.53125 134.46875 C24.08896092 134.27224398 21.84887305 134.07424523 19.5 133.375 C18.00893543 130.39287087 18.38058533 127.65890342 18.5 124.375 C20.13300883 122.74199117 22.25309136 122.9777257 24.5 122.6875 C30.65710202 121.62537994 34.59617887 119.09844931 39.5 115.375 C40.5725 114.67375 41.645 113.9725 42.75 113.25 C48.03888248 110.00396077 48.03888248 110.00396077 51.359375 105.0546875 C54.95788687 96.60064934 64.42391806 90.21468106 72.5 86.375 C80.78239412 83.47705649 92.19625997 84.37966321 99.99609375 88.109375 C101.90956445 89.71967242 101.92546647 90.99961766 102.5 93.375 C103.49 93.705 104.48 94.035 105.5 94.375 C111.0022937 103.85117247 108.32232166 117.06452358 105.828125 127.0703125 C101.44480994 143.48538012 101.44480994 143.48538012 99.5 147.375 C98.84 147.375 98.18 147.375 97.5 147.375 C97.30664062 148.08527344 97.11328125 148.79554688 96.9140625 149.52734375 C96.65367187 150.44644531 96.39328125 151.36554688 96.125 152.3125 C95.86976563 153.22902344 95.61453125 154.14554688 95.3515625 155.08984375 C94.5 157.375 94.5 157.375 92.5 158.375 C91.84786708 160.39963255 91.84786708 160.39963255 91.5 162.375 C90.84 162.375 90.18 162.375 89.5 162.375 C89.5 163.365 89.5 164.355 89.5 165.375 C88.84 165.705 88.18 166.035 87.5 166.375 C87.025625 167.2 86.55125 168.025 86.0625 168.875 C84.5 171.375 84.5 171.375 81.5 172.375 C81.37753906 172.95378906 81.25507813 173.53257812 81.12890625 174.12890625 C79.29250328 180.6874883 69.30628295 186.92546764 63.59375 190.2265625 C62.9028125 190.60554687 62.211875 190.98453125 61.5 191.375 C60.6234375 191.87773437 59.746875 192.38046875 58.84375 192.8984375 C33.67602022 207.07257103 2.98840717 207.90101856 -24.5 200.375 C-25.49128906 200.10945312 -26.48257813 199.84390625 -27.50390625 199.5703125 C-33.6965835 197.58487399 -39.42476496 194.47698142 -45.1875 191.5 C-45.98422119 191.08927246 -46.78094238 190.67854492 -47.60180664 190.25537109 C-62.31407996 182.4363678 -78.20182869 169.60596622 -85.5 154.375 C-85.5 153.715 -85.5 153.055 -85.5 152.375 C-86.16 152.045 -86.82 151.715 -87.5 151.375 C-93.6670326 143.56342537 -96.61660587 133.19626418 -97.5 123.375 C-97.005 122.385 -97.005 122.385 -96.5 121.375 C-97.16 121.375 -97.82 121.375 -98.5 121.375 C-98.5 118.405 -98.5 115.435 -98.5 112.375 C-99.16 112.375 -99.82 112.375 -100.5 112.375 C-100.55394705 109.77055652 -100.59364469 107.16723002 -100.625 104.5625 C-100.64175781 103.82451172 -100.65851563 103.08652344 -100.67578125 102.32617188 C-100.71074628 98.46253574 -100.69397555 96.66596332 -98.5 93.375 C-98.561875 91.76625 -98.561875 91.76625 -98.625 90.125 C-98.89287873 77.93651774 -92.845122 65.065244 -87.5 54.375 C-86.51 54.375 -85.52 54.375 -84.5 54.375 C-84.355625 53.776875 -84.21125 53.17875 -84.0625 52.5625 C-83.6127561 50.81349596 -83.07107659 49.08822977 -82.5 47.375 C-81.84 47.375 -81.18 47.375 -80.5 47.375 C-80.39945313 46.79492188 -80.29890625 46.21484375 -80.1953125 45.6171875 C-78.29123324 39.47706673 -71.96449715 34.72282726 -67.1328125 30.7578125 C-65.24902965 29.20629463 -65.24902965 29.20629463 -62.75 26.5625 C-60.5 24.375 -60.5 24.375 -57.5 23.375 C-57.005 21.89 -57.005 21.89 -56.5 20.375 C-55.51 20.375 -54.52 20.375 -53.5 20.375 C-53.005 18.89 -53.005 18.89 -52.5 17.375 C-51.51 17.375 -50.52 17.375 -49.5 17.375 C-49.5 16.715 -49.5 16.055 -49.5 15.375 C-48.0437455 14.70380451 -46.58492133 14.03818193 -45.125 13.375 C-44.31289063 13.00375 -43.50078125 12.6325 -42.6640625 12.25 C-40.5 11.375 -40.5 11.375 -38.5 11.375 C-38.5 10.715 -38.5 10.055 -38.5 9.375 C-25.71742815 3.91190913 -14.05257606 0.1595301 0 0 Z " fill="#CF232D" transform="translate(100.5,-0.375)"/>
<path d="M0 0 C0.66 0.66 1.32 1.32 2 2 C-1.3 4.97 -4.6 7.94 -8 11 C-8.66 10.67 -9.32 10.34 -10 10 C-6.92118304 6.12948725 -3.99926986 2.97088618 0 0 Z " fill="#C81B24" transform="translate(84,41)"/>
<path d="M0 0 C0.66 0 1.32 0 2 0 C1.34 6.27 0.68 12.54 0 19 C-0.33 19 -0.66 19 -1 19 C-1.02697137 16.39576408 -1.04682489 13.79180756 -1.0625 11.1875 C-1.07087891 10.44951172 -1.07925781 9.71152344 -1.08789062 8.95117188 C-1.10259828 5.70077932 -1.03531702 3.10595105 0 0 Z " fill="#CD1C24" transform="translate(85,87)"/>
<path d="M0 0 C0.66 0.33 1.32 0.66 2 1 C0.35 4.63 -1.3 8.26 -3 12 C-3.66 11.34 -4.32 10.68 -5 10 C-3.35 6.7 -1.7 3.4 0 0 Z " fill="#CD1A26" transform="translate(160,41)"/>
<path d="M0 0 C-1.5830577 4.2742558 -4.50568404 6.26531794 -8 9 C-8.66 8.67 -9.32 8.34 -10 8 C-8.71451591 6.66070495 -7.42141845 5.32871357 -6.125 4 C-5.04605469 2.88625 -5.04605469 2.88625 -3.9453125 1.75 C-2 0 -2 0 0 0 Z " fill="#C91924" transform="translate(151,74)"/>
<path d="M0 0 C0.66 0 1.32 0 2 0 C1.01 2.97 0.02 5.94 -1 9 C-1.99 9 -2.98 9 -4 9 C-2.68 6.03 -1.36 3.06 0 0 Z " fill="#CB1721" transform="translate(188,143)"/>
<path d="M0 0 C0.66 0.66 1.32 1.32 2 2 C0.88200014 3.33920838 -0.24461897 4.67122556 -1.375 6 C-2.00148438 6.7425 -2.62796875 7.485 -3.2734375 8.25 C-3.84320312 8.8275 -4.41296875 9.405 -5 10 C-5.66 10 -6.32 10 -7 10 C-5.33248852 6.05860922 -2.77289351 3.2107188 0 0 Z " fill="#C41F28" transform="translate(34,43)"/>
<path d="M0 0 C0 3 0 3 -1.125 4.5 C-3.56079285 6.44863428 -6.1815192 7.68470896 -9 9 C-7.48328036 4.44984107 -3.83108947 2.49942736 0 0 Z " fill="#C3202A" transform="translate(109,33)"/>
<path d="M0 0 C0.66 0 1.32 0 2 0 C1.54177532 3.46941546 1.10868317 6.67395049 0 10 C-0.66 10 -1.32 10 -2 10 C-1.34 6.7 -0.68 3.4 0 0 Z " fill="#C61D25" transform="translate(14,75)"/>
<path d="M0 0 C0.66 0.33 1.32 0.66 2 1 C-0.64 3.97 -3.28 6.94 -6 10 C-6 6.36672806 -5.04413589 4.95264073 -3 2 C-2.01 1.34 -1.02 0.68 0 0 Z " fill="#CA1B25" transform="translate(138,73)"/>
<path d="M0 0 C0.66 0.33 1.32 0.66 2 1 C0.02 3.31 -1.96 5.62 -4 8 C-4.33 7.01 -4.66 6.02 -5 5 C-3.35 3.35 -1.7 1.7 0 0 Z " fill="#C51823" transform="translate(159,96)"/>
<path d="M0 0 C0.33 0.99 0.66 1.98 1 3 C0.34 3.66 -0.32 4.32 -1 5 C-1.99 5 -2.98 5 -4 5 C-4.33 5.99 -4.66 6.98 -5 8 C-5.66 8 -6.32 8 -7 8 C-5.9024777 5.00675737 -5.32317108 4.15389099 -2.375 2.75 C-1.59125 2.5025 -0.8075 2.255 0 2 C0 1.34 0 0.68 0 0 Z " fill="#C81B25" transform="translate(43,21)"/>
<path d="M0 0 C0.99 0.33 1.98 0.66 3 1 C-0.465 3.97 -0.465 3.97 -4 7 C-4 4 -4 4 -2 1.8125 C-1.34 1.214375 -0.68 0.61625 0 0 Z " fill="#CA1822" transform="translate(173,166)"/>
</svg>
