<?xml version="1.0" encoding="UTF-8"?>
<svg version="1.1" xmlns="http://www.w3.org/2000/svg" width="188" height="168">
<path d="M0 0 C0.99804153 -0.00281982 1.99608307 -0.00563965 3.02436829 -0.00854492 C4.10813248 -0.00652069 5.19189667 -0.00449646 6.3085022 -0.00241089 C7.45866318 -0.00416321 8.60882416 -0.00591553 9.7938385 -0.00772095 C13.59643055 -0.01212255 17.39897608 -0.00920699 21.2015686 -0.00582886 C23.84566253 -0.00650247 26.48975639 -0.00747298 29.1338501 -0.00872803 C34.67693587 -0.01054611 40.2200083 -0.00815341 45.76309204 -0.00338745 C52.15973525 0.00204911 58.55634655 0.00029547 64.95298898 -0.00521386 C71.11833833 -0.01031031 77.28367361 -0.00975579 83.4490242 -0.00683212 C86.06686024 -0.00616554 88.6846971 -0.00698191 91.3025322 -0.00931168 C94.96470027 -0.01185512 98.6268074 -0.0079734 102.28897095 -0.00241089 C103.36868668 -0.00443512 104.4484024 -0.00645935 105.56083679 -0.00854492 C110.79258709 0.00615359 115.7737103 0.21247407 120.9281311 1.12698364 C120.9281311 1.78698364 120.9281311 2.44698364 120.9281311 3.12698364 C122.1656311 3.21979614 122.1656311 3.21979614 123.4281311 3.31448364 C131.27969793 5.1371688 136.09858911 9.95268893 140.9281311 16.12698364 C141.6293811 16.84885864 142.3306311 17.57073364 143.0531311 18.31448364 C150.61865355 29.66276731 149.49951454 42.7636021 149.42422485 55.82229614 C149.42438009 58.02321419 149.42587319 60.22413251 149.42863464 62.42504883 C149.43001322 67.01934007 149.41754925 71.61331707 149.39468384 76.20755005 C149.36626765 82.07595151 149.36905312 87.94383287 149.38177395 93.81227303 C149.3887503 98.35065094 149.38092003 102.88891006 149.36851692 107.4272728 C149.36402381 109.59046853 149.36364676 111.75367711 149.36758232 113.91687393 C149.37051465 116.94566986 149.35389232 119.97376493 149.33218384 123.00247192 C149.33893631 124.32287476 149.33893631 124.32287476 149.3458252 125.66995239 C149.23158363 135.33349916 146.52634243 143.28595579 140.9281311 151.12698364 C140.3506311 151.97260864 139.7731311 152.81823364 139.1781311 153.68948364 C130.8001665 162.76561196 121.5508742 166.89008422 109.26950073 167.50543213 C102.23190184 167.72380042 95.1949519 167.71060804 88.1546936 167.69338989 C85.54119649 167.69863319 82.92770127 167.70491224 80.31420898 167.71217346 C74.85243327 167.72396873 69.3908704 167.71839547 63.92910767 167.70339966 C57.6549061 167.68649365 51.38140114 167.70231119 45.10727561 167.73462254 C39.02301575 167.76474504 32.93906987 167.7664607 26.85474777 167.75712395 C24.2881721 167.75630922 21.72158142 167.76308002 19.15504837 167.77789497 C-12.70933095 167.93365005 -12.70933095 167.93365005 -21.82562256 159.61381531 C-24.01478338 157.19018333 -26.0402371 154.68290752 -28.0718689 152.12698364 C-28.7318689 151.57010864 -29.3918689 151.01323364 -30.0718689 150.43948364 C-37.19375146 142.20480693 -37.21944959 130.90536185 -37.23300171 120.58084106 C-37.23796661 119.6609993 -37.24293152 118.74115753 -37.24804688 117.79344177 C-37.26256213 114.77310416 -37.26945204 111.75281904 -37.2749939 108.73245239 C-37.27782127 107.69439264 -37.28064865 106.65633289 -37.28356171 105.58681679 C-37.29850992 100.09523899 -37.30776742 94.60368718 -37.31210327 89.11209106 C-37.3175867 83.46344467 -37.34162478 77.81503945 -37.37007523 72.16646862 C-37.38876899 67.80050476 -37.39391075 63.43459829 -37.39543915 59.06859779 C-37.39845011 56.98715202 -37.40642552 54.90570687 -37.41962433 52.82430077 C-37.57305935 26.77281508 -37.57305935 26.77281508 -29.0718689 15.12698364 C-28.4531189 14.24010864 -27.8343689 13.35323364 -27.1968689 12.43948364 C-23.28277273 8.18002605 -18.64735857 4.83060549 -13.0718689 3.12698364 C-12.0818689 3.12698364 -11.0918689 3.12698364 -10.0718689 3.12698364 C-10.0718689 2.46698364 -10.0718689 1.80698364 -10.0718689 1.12698364 C-6.65411411 0.35660062 -3.50081646 0.00152793 0 0 Z M-19.63046265 22.13479614 C-24.40088696 28.88431735 -26.18629926 34.91582783 -26.63046265 43.11135864 C-26.23338335 45.32614093 -26.23338335 45.32614093 -24.0406189 46.69729614 C-20.46610041 48.41870899 -16.85399893 49.87741284 -13.1343689 51.25198364 C-12.44407593 51.51624146 -11.75378296 51.78049927 -11.04257202 52.05276489 C-7.85811254 53.24203223 -5.00522297 54.13772567 -1.63046265 54.68167114 C-0.78612671 54.82862427 0.05820923 54.97557739 0.9281311 55.12698364 C1.2581311 55.78698364 1.5881311 56.44698364 1.9281311 57.12698364 C5.99093832 59.97942894 10.33168985 61.44293825 14.9906311 63.00198364 C23.87053842 66.05664896 32.48914966 69.50511564 40.9906311 73.50198364 C46.21102413 75.90137133 51.54588022 77.93798275 56.9281311 79.93948364 C57.76610229 80.25385376 58.60407349 80.56822388 59.46743774 80.89212036 C60.25884155 81.18232056 61.05024536 81.47252075 61.8656311 81.77151489 C62.57590454 82.03295288 63.28617798 82.29439087 64.01797485 82.56375122 C66.0758065 83.26839531 66.0758065 83.26839531 68.9281311 83.12698364 C69.2581311 83.78698364 69.5881311 84.44698364 69.9281311 85.12698364 C70.4231311 83.64198364 70.4231311 83.64198364 70.9281311 82.12698364 C72.65078735 81.45901489 72.65078735 81.45901489 74.9906311 80.93948364 C82.8034407 78.84696986 89.79483563 74.85293574 96.9281311 71.12698364 C96.9281311 70.46698364 96.9281311 69.80698364 96.9281311 69.12698364 C97.60617798 68.86917114 98.28422485 68.61135864 98.9828186 68.34573364 C102.41956728 66.92363074 105.73336653 65.29865575 109.0531311 63.62698364 C109.73383667 63.28530151 110.41454224 62.94361938 111.11587524 62.59158325 C116.89339439 59.67712124 122.63520167 56.69532572 128.3656311 53.68948364 C129.20046021 53.25249146 130.03528931 52.81549927 130.89541626 52.36526489 C131.6680481 51.95792114 132.44067993 51.55057739 133.23672485 51.13088989 C133.92564819 50.76809937 134.61457153 50.40530884 135.32437134 50.03152466 C136.91643597 49.22818673 136.91643597 49.22818673 137.9281311 48.12698364 C138.0546159 45.87967239 138.10395663 43.62782125 138.1156311 41.37698364 C138.12981079 40.14463989 138.14399048 38.91229614 138.15859985 37.64260864 C137.94058731 34.31699356 137.36465081 32.10222605 135.9281311 29.12698364 C135.2681311 29.12698364 134.6081311 29.12698364 133.9281311 29.12698364 C133.7012561 28.24010864 133.4743811 27.35323364 133.2406311 26.43948364 C130.6318357 19.85538097 124.79705426 15.83422532 118.44638062 13.03186035 C113.47080324 11.75216599 108.69184365 11.83210495 103.57363892 11.8364563 C102.43790436 11.82973907 101.3021698 11.82302185 100.13201904 11.81610107 C96.38172007 11.79712167 92.6316001 11.79319672 88.8812561 11.79104614 C86.26819791 11.78461769 83.65514043 11.77788929 81.04208374 11.77087402 C75.56463459 11.75809905 70.08723376 11.7551074 64.60977173 11.75637817 C58.29880871 11.75757811 51.98818849 11.73650074 45.67731214 11.70489085 C39.58509256 11.67547472 33.49303606 11.66840515 27.40074921 11.66959763 C24.81887158 11.66724315 22.2369912 11.65842836 19.655159 11.64293289 C16.03655396 11.62325031 12.4188217 11.62912117 8.80020142 11.6411438 C7.7421933 11.62990479 6.68418518 11.61866577 5.59411621 11.60708618 C-4.10878741 11.68865116 -13.45504598 14.17949748 -19.63046265 22.13479614 Z M-26.0718689 57.12698364 C-26.0718689 67.68698364 -26.0718689 78.24698364 -26.0718689 89.12698364 C-21.4312439 91.19979614 -21.4312439 91.19979614 -16.6968689 93.31448364 C-11.26080513 95.74629226 -5.84724728 98.17121578 -0.5718689 100.93948364 C7.66857245 105.13249973 17.00987262 109.30129345 26.25234985 106.39651489 C28.85868954 105.39407655 31.38827816 104.28752959 33.9281311 103.12698364 C34.94520142 102.67194458 35.96227173 102.21690552 37.01016235 101.74807739 C39.65654316 100.55567731 42.29505099 99.34841244 44.9281311 98.12698364 C44.9281311 97.46698364 44.9281311 96.80698364 44.9281311 96.12698364 C45.9800061 95.97229614 45.9800061 95.97229614 47.0531311 95.81448364 C50.31950758 95.03339362 52.9753163 93.70639621 55.9281311 92.12698364 C55.9281311 91.46698364 55.9281311 90.80698364 55.9281311 90.12698364 C55.25983276 89.89624146 54.59153442 89.66549927 53.90298462 89.42776489 C42.38675728 85.42864949 31.0152767 81.42555008 20.07461548 76.02542114 C14.66402616 73.38662832 9.1408203 71.20002882 3.4906311 69.12698364 C2.2543396 68.67234741 2.2543396 68.67234741 0.99307251 68.20852661 C-2.93889239 66.68152004 -2.93889239 66.68152004 -7.0718689 66.12698364 C-7.4018689 65.46698364 -7.7318689 64.80698364 -8.0718689 64.12698364 C-9.0618689 64.62198364 -9.0618689 64.62198364 -10.0718689 65.12698364 C-10.0718689 64.46698364 -10.0718689 63.80698364 -10.0718689 63.12698364 C-15.3518689 61.14698364 -20.6318689 59.16698364 -26.0718689 57.12698364 Z M132.2171936 63.10354614 C131.10102661 63.7341394 131.10102661 63.7341394 129.96231079 64.37747192 C129.16728149 64.83106079 128.3722522 65.28464966 127.5531311 65.75198364 C122.31481045 68.7064296 117.08549725 71.61424406 111.6781311 74.25198364 C106.61738687 76.72612527 101.7527672 79.46490113 96.88540649 82.29397583 C93.6785304 84.15175232 90.45734009 85.89987629 87.1156311 87.50198364 C83.86278479 88.7628997 83.86278479 88.7628997 82.9281311 91.12698364 C83.91994385 91.43720459 83.91994385 91.43720459 84.93179321 91.75369263 C87.91075417 92.68742029 90.88820115 93.62588605 93.8656311 94.56448364 C94.90654907 94.88997192 95.94746704 95.21546021 97.01992798 95.55081177 C98.00928345 95.86340942 98.99863892 96.17600708 100.01797485 96.49807739 C100.93441772 96.78610229 101.8508606 97.0741272 102.79507446 97.37088013 C104.9281311 98.12698364 104.9281311 98.12698364 105.9281311 99.12698364 C107.44741148 99.19878328 108.96980592 99.21090372 110.4906311 99.18948364 C111.31692017 99.18046021 112.14320923 99.17143677 112.99453735 99.16213989 C113.63262329 99.15053833 114.27070923 99.13893677 114.9281311 99.12698364 C114.9281311 98.46698364 114.9281311 97.80698364 114.9281311 97.12698364 C116.1243811 96.94135864 117.3206311 96.75573364 118.5531311 96.56448364 C125.57443998 95.04788093 131.60988415 91.43946263 137.9281311 88.12698364 C137.9281311 79.21698364 137.9281311 70.30698364 137.9281311 61.12698364 C135.44367295 61.12698364 134.37041162 61.87484434 132.2171936 63.10354614 Z M53.9281311 105.12698364 C53.9281311 105.78698364 53.9281311 106.44698364 53.9281311 107.12698364 C53.19602417 107.25460083 52.46391724 107.38221802 51.70962524 107.51370239 C49.08672055 108.09201685 46.88103271 108.87156067 44.42422485 109.93948364 C43.60115845 110.29268677 42.77809204 110.64588989 41.93008423 111.00979614 C41.0838147 111.37846802 40.23754517 111.74713989 39.3656311 112.12698364 C37.67799579 112.85884672 35.98923113 113.58811232 34.29922485 114.31448364 C33.55599976 114.63803833 32.81277466 114.96159302 32.04702759 115.29495239 C16.79308632 121.28474751 1.35630343 113.10792814 -12.59140015 107.12698364 C-15.636835 105.79605005 -18.61774689 104.37673664 -21.58358765 102.87698364 C-24.57039972 101.05224793 -24.57039972 101.05224793 -26.0718689 101.12698364 C-26.14692602 105.07383355 -26.20089105 109.02039791 -26.23666382 112.96780396 C-26.25888368 114.95851269 -26.29703484 116.94902332 -26.33554077 118.93948364 C-26.40215624 127.73272524 -26.05798052 135.64781621 -21.0718689 143.12698364 C-20.4118689 143.12698364 -19.7518689 143.12698364 -19.0718689 143.12698364 C-18.8037439 143.72510864 -18.5356189 144.32323364 -18.2593689 144.93948364 C-17.07269483 147.12546218 -15.97587777 148.54030958 -14.0718689 150.12698364 C-13.4118689 150.12698364 -12.7518689 150.12698364 -12.0718689 150.12698364 C-11.7418689 151.11698364 -11.4118689 152.10698364 -11.0718689 153.12698364 C-4.78095583 156.66466164 2.43296096 156.56671387 9.43960571 156.54690552 C10.55627121 156.55537506 11.67293671 156.5638446 12.82344055 156.5725708 C16.49256975 156.59585456 20.16127755 156.59696505 23.83047485 156.59573364 C26.39440578 156.60283978 28.95833512 156.61053944 31.52226257 156.61880493 C36.88766554 156.63222955 42.25290533 156.6340097 47.61831665 156.62796021 C53.79822183 156.62132005 59.97753007 156.64419623 66.15731424 156.68127394 C72.13050717 156.71579596 78.1033854 156.72229806 84.07669258 156.71818542 C86.60554343 156.719874 89.13440235 156.72949099 91.66319084 156.74732971 C95.20502426 156.76956887 98.74543166 156.75979075 102.28726196 156.74221802 C103.83915222 156.76211288 103.83915222 156.76211288 105.4223938 156.78240967 C114.76077936 156.67524952 122.41624585 153.22754984 129.3265686 146.93948364 C135.22139213 140.26826873 138.09226651 133.65031835 138.02578735 124.83401489 C138.02437241 124.1279863 138.02295746 123.4219577 138.02149963 122.6945343 C138.01590874 120.44280738 138.00335798 118.19118043 137.9906311 115.93948364 C137.98561492 114.41149029 137.98105222 112.88349537 137.97695923 111.35549927 C137.9659423 107.61262229 137.94868398 103.86981991 137.9281311 100.12698364 C137.31324829 100.48792114 136.69836548 100.84885864 136.06484985 101.22073364 C135.25660767 101.68479614 134.44836548 102.14885864 133.6156311 102.62698364 C132.41486938 103.32307739 132.41486938 103.32307739 131.18984985 104.03323364 C128.9281311 105.12698364 128.9281311 105.12698364 125.9281311 105.12698364 C125.9281311 105.78698364 125.9281311 106.44698364 125.9281311 107.12698364 C111.48261143 111.84388802 98.6459439 108.73132989 85.3031311 102.56448364 C84.39692017 102.15713989 83.49070923 101.74979614 82.55703735 101.33010864 C80.87323982 100.55951482 79.21045418 99.74008294 77.58047485 98.86135864 C68.8223128 94.94284874 61.46179207 100.68717104 53.9281311 105.12698364 Z " fill="#F2AF0B" transform="translate(38.071868896484375,-0.126983642578125)"/>
</svg>
