<?xml version="1.0" standalone="no"?>
<!DOCTYPE svg PUBLIC "-//W3C//DTD SVG 20010904//EN"
 "http://www.w3.org/TR/2001/REC-SVG-20010904/DTD/svg10.dtd">
<svg version="1.0" xmlns="http://www.w3.org/2000/svg"
 width="600.000000pt" height="600.000000pt" viewBox="0 0 600.000000 600.000000"
 preserveAspectRatio="xMidYMid meet">
<g transform="translate(0.000000,600.000000) scale(0.050000,-0.050000)"
fill="#000000" stroke="none">
<path d="M5350 8908 c-450 -51 -697 -129 -627 -199 31 -32 71 -29 317 21 190
39 400 55 730 55 405 0 590 -21 1020 -113 82 -18 421 -117 440 -128 11 -7 29
-14 40 -16 11 -2 92 -31 180 -63 177 -66 210 -65 210 6 0 70 -320 208 -740
319 -5 1 -64 13 -130 27 -66 13 -156 33 -200 44 -268 65 -872 88 -1240 47z"/>
<path d="M5250 8649 c-295 -30 -445 -58 -740 -140 -196 -55 -204 -58 -376
-141 -264 -127 -185 -225 85 -107 224 97 494 178 701 211 549 88 948 81 1565
-25 153 -27 201 -29 220 -10 54 54 -46 120 -226 151 -440 76 -868 97 -1229 61z"/>
<path d="M6843 8453 c-44 -53 26 -94 307 -181 240 -74 437 -143 600 -212 312
-130 437 -154 446 -86 8 54 -30 79 -266 176 -99 41 -198 81 -220 91 -22 9
-148 52 -280 96 -451 149 -545 168 -587 116z"/>
<path d="M5100 8360 c-719 -91 -1233 -306 -1586 -666 -77 -79 -90 -138 -32
-150 28 -5 68 23 248 173 193 161 786 429 1000 452 11 1 47 9 80 17 204 49
504 65 970 52 343 -9 494 -7 504 8 27 44 -24 92 -109 102 -531 62 -657 64
-1075 12z"/>
<path d="M6454 8275 c-64 -47 -20 -92 133 -136 428 -124 631 -192 1233 -418
298 -112 526 -141 536 -69 7 50 4 51 -376 170 -148 46 -283 91 -300 99 -164
80 -670 256 -910 316 -251 63 -278 66 -316 38z"/>
<path d="M4940 8079 c-104 -18 -244 -48 -310 -68 -66 -19 -140 -39 -164 -45
-58 -14 -94 -57 -79 -96 15 -38 67 -38 220 2 133 35 144 37 323 70 135 25 162
28 436 49 214 16 596 -14 1014 -81 133 -22 635 -166 730 -210 22 -11 90 -37
150 -60 61 -23 128 -50 150 -60 447 -211 1250 -333 1250 -189 0 43 -29 51
-286 79 -297 32 -520 85 -744 174 -55 22 -136 54 -180 71 -44 18 -116 48 -160
66 -655 282 -1690 413 -2350 298z"/>
<path d="M4960 7829 c-341 -55 -500 -117 -444 -173 16 -16 73 -12 208 13 411
77 710 81 1166 16 110 -16 230 -32 266 -37 67 -9 144 19 144 51 0 59 -138 97
-475 133 -228 24 -709 23 -865 -3z"/>
<path d="M4120 7726 c-1 -148 -17 -174 -98 -157 l-62 14 0 -91 0 -92 78 0 78
0 -1 -291 c-1 -380 69 -475 320 -439 136 20 132 160 -6 175 -123 14 -119 5
-119 292 l0 253 105 6 105 6 0 90 0 91 -104 -7 -104 -6 -1 130 -1 130 -95 6
-95 6 0 -116z"/>
<path d="M6473 7670 c-21 -54 9 -89 94 -111 46 -12 97 -25 113 -30 17 -5 39
-11 50 -13 11 -3 106 -33 210 -68 200 -67 260 -64 260 12 0 101 -692 301 -727
210z"/>
<path d="M3730 7586 c-312 -226 -569 -573 -663 -896 -105 -356 1 -413 125 -67
120 335 288 573 571 810 235 195 206 327 -33 153z"/>
<path d="M4978 7591 c-5 -5 -34 -13 -64 -19 -431 -78 -450 -759 -24 -883 476
-138 812 440 452 777 -100 93 -320 169 -364 125z m182 -217 c135 -67 160 -343
42 -461 -143 -144 -393 -39 -417 175 -26 229 178 385 375 286z"/>
<path d="M5520 7550 c-28 -34 -13 -90 24 -91 184 -4 399 -33 646 -86 184 -40
589 -165 720 -223 660 -291 1720 -449 1887 -282 72 73 23 84 -360 80 -425 -5
-540 13 -987 153 -99 31 -216 71 -260 90 -96 41 -623 226 -680 239 -22 5 -94
23 -160 40 -114 30 -672 110 -763 110 -23 0 -53 -13 -67 -30z"/>
<path d="M7380 7410 c-68 -81 236 -227 670 -321 252 -55 711 -27 739 45 22 58
-18 67 -341 74 -175 4 -340 11 -368 17 -149 29 -451 129 -560 185 -73 38 -109
38 -140 0z"/>
<path d="M3763 7285 c-139 -97 -369 -458 -493 -775 -65 -166 -167 -341 -238
-409 -87 -81 -63 -178 39 -153 90 23 298 356 338 541 34 156 193 424 377 636
143 165 129 266 -23 160z"/>
<path d="M5635 7309 c-53 -54 18 -90 235 -119 189 -24 577 -148 830 -265 374
-172 472 -189 456 -78 -8 57 -617 313 -914 384 -41 10 -200 49 -252 62 -77 20
-340 31 -355 16z"/>
<path d="M5839 7049 c-41 -50 -6 -84 135 -129 195 -65 349 -129 573 -241 226
-114 333 -130 333 -51 0 62 -16 73 -240 172 -396 175 -767 290 -801 249z"/>
<path d="M3789 6955 c-108 -119 -227 -356 -285 -567 -78 -280 -210 -473 -452
-659 -63 -49 -75 -68 -63 -104 66 -210 553 294 619 641 56 292 148 503 273
625 47 45 79 96 79 123 0 78 -69 54 -171 -59z"/>
<path d="M5593 6883 c-73 -80 -16 -223 89 -223 52 0 138 79 138 127 0 117
-150 181 -227 96z"/>
<path d="M7355 6768 c-196 -196 878 -359 1439 -219 121 30 80 165 -42 144
-407 -73 -760 -67 -1082 19 -256 67 -297 74 -315 56z"/>
<path d="M3914 6724 c-46 -50 -90 -163 -156 -394 -118 -415 -268 -640 -550
-829 -182 -122 -208 -146 -208 -200 0 -88 88 -95 202 -15 327 229 584 569 669
884 19 72 15 56 47 190 15 61 34 119 42 130 108 149 67 359 -46 234z"/>
<path d="M6182 6615 c-28 -76 -4 -1443 29 -1611 189 -971 1575 -983 1828 -15
37 143 41 216 41 741 0 613 -2 630 -92 630 l-43 0 -10 -615 c-11 -647 -21
-725 -122 -920 -254 -488 -1016 -542 -1325 -93 -142 205 -153 283 -162 1128
-8 661 -13 753 -41 775 -49 37 -84 30 -103 -20z"/>
<path d="M4920 6562 c-645 -148 -907 -741 -513 -1158 122 -129 288 -213 618
-312 363 -110 440 -162 405 -272 -77 -242 -871 -83 -1262 253 -60 52 -108 59
-144 23 -47 -47 -23 -89 101 -179 662 -484 1501 -485 1457 -4 -9 103 -173 202
-499 300 -502 152 -693 328 -691 637 1 228 108 375 365 504 l153 76 290 0
c320 0 385 -15 616 -141 139 -76 179 -84 197 -38 66 172 -721 396 -1093 311z"/>
<path d="M6433 6567 c-20 -20 -15 -1278 5 -1417 94 -632 778 -860 1199 -399
176 192 188 258 187 995 l-2 622 -53 28 c-93 49 -96 30 -99 -621 -1 -410 -10
-632 -26 -688 -140 -477 -769 -564 -984 -136 l-70 139 -7 715 c-6 704 -7 716
-49 745 -46 32 -79 38 -101 17z"/>
<path d="M4131 6495 c-18 -25 -49 -99 -70 -165 -85 -271 -168 -465 -255 -596
-72 -108 -88 -146 -72 -172 32 -51 89 -51 130 1 141 180 218 319 266 485 19
64 61 181 93 259 67 163 64 233 -12 233 -28 0 -62 -19 -80 -45z"/>
<path d="M6670 6441 c-25 -79 10 -1245 41 -1351 116 -406 649 -432 822 -40 53
118 67 1347 17 1398 -39 39 -97 42 -127 6 -13 -17 -23 -252 -27 -675 -5 -571
-10 -657 -41 -712 -108 -198 -367 -210 -470 -22 -31 57 -36 143 -45 722 -9
620 -12 658 -49 685 -55 40 -106 35 -121 -11z"/>
<path d="M8732 6419 c-65 -22 -200 -50 -300 -62 -201 -26 -232 -40 -232 -107
0 -82 47 -99 196 -75 368 61 593 173 513 254 -38 37 -31 38 -177 -10z"/>
<path d="M4984 6350 c-569 -131 -694 -694 -208 -937 52 -26 216 -86 364 -133
405 -127 493 -186 540 -361 88 -325 -345 -547 -852 -438 -65 15 -127 28 -138
30 -148 33 -372 147 -613 313 -150 104 -178 117 -215 97 -79 -42 -50 -95 123
-223 819 -602 1905 -488 1850 194 -19 235 -162 356 -579 488 -556 177 -693
306 -603 569 115 337 688 380 1170 87 100 -61 200 28 112 99 -218 175 -674
278 -951 215z"/>
<path d="M8820 6157 c-134 -49 -356 -107 -485 -126 -104 -15 -147 -62 -124
-134 15 -47 144 -43 314 10 47 15 151 48 232 73 177 55 264 120 232 173 -31
50 -46 50 -169 4z"/>
<path d="M4998 6131 c-299 -112 -367 -335 -153 -499 79 -60 124 -78 405 -162
521 -157 689 -310 689 -630 2 -756 -1221 -874 -2061 -200 -134 108 -185 122
-217 61 -32 -60 -8 -92 166 -225 333 -251 747 -405 1153 -429 187 -10 262 -4
477 41 348 74 629 399 632 732 3 403 -199 603 -779 770 -419 120 -528 240
-343 378 131 98 622 23 703 -108 17 -28 97 -25 126 4 141 141 -534 367 -798
267z"/>
<path d="M8870 5886 c-393 -88 -692 -244 -660 -345 18 -59 68 -51 248 37 88
43 212 91 276 108 218 57 276 85 283 134 10 68 -39 91 -147 66z"/>
<path d="M5165 5827 c-41 -17 -28 -87 20 -106 25 -10 139 -47 253 -82 120 -37
281 -106 380 -162 176 -102 237 -114 225 -46 -17 103 -342 279 -663 359 -16 4
-61 17 -100 29 -75 23 -78 23 -115 8z"/>
<path d="M4018 5565 c-26 -31 -86 -105 -132 -165 -120 -158 -416 -440 -556
-530 -218 -140 -243 -177 -170 -250 106 -106 539 273 926 813 85 117 89 138
35 166 -51 28 -47 29 -103 -34z"/>
<path d="M8897 5610 c-6 -6 -29 -15 -49 -19 -225 -47 -648 -303 -648 -393 0
-84 89 -90 184 -12 108 89 364 226 456 244 128 27 183 66 176 126 -6 52 -86
88 -119 54z"/>
<path d="M3450 5320 c-66 -66 -177 -156 -246 -201 -139 -89 -165 -127 -119
-173 81 -80 625 352 583 463 -24 61 -97 31 -218 -89z"/>
<path d="M4185 5347 c-89 -36 130 -274 315 -343 124 -46 147 82 26 146 -41 22
-118 78 -171 125 -94 83 -118 93 -170 72z"/>
<path d="M8768 5250 c-176 -92 -468 -284 -468 -308 0 -7 39 -22 88 -33 150
-35 703 296 652 391 -32 59 -80 50 -272 -50z"/>
<path d="M8816 4894 c-14 -15 -69 -52 -121 -82 -104 -61 -106 -68 -71 -166 26
-72 40 -79 80 -40 14 14 71 60 126 101 106 81 152 144 136 187 -13 34 -116 34
-150 0z"/>
<path d="M8222 4705 c-144 -70 -89 -305 71 -305 57 0 167 99 167 150 0 124
-129 208 -238 155z"/>
<path d="M3484 4516 c-72 -72 206 -328 567 -520 250 -134 711 -258 793 -214
91 49 19 125 -134 145 -349 45 -699 215 -1002 486 -145 129 -181 146 -224 103z"/>
<path d="M8780 4505 c-24 -9 -187 -133 -334 -255 -14 -11 -77 -59 -140 -106
-64 -48 -363 -272 -666 -498 -302 -227 -599 -444 -660 -484 -146 -95 -179
-142 -103 -142 96 0 391 176 823 491 83 60 173 125 200 143 49 34 581 433 640
480 17 13 100 79 185 146 152 119 181 166 131 216 -26 26 -31 27 -76 9z"/>
<path d="M6141 4386 c-15 -7 -79 -63 -141 -126 -195 -198 -424 -304 -745 -344
-238 -29 -329 -95 -215 -156 226 -121 1256 363 1205 565 -17 65 -47 83 -104
61z"/>
<path d="M3329 4279 c-26 -42 12 -115 102 -197 105 -97 175 -105 185 -21 11
99 -242 291 -287 218z"/>
<path d="M7808 4147 c-87 -62 -186 -136 -220 -165 -35 -29 -97 -79 -139 -112
-188 -148 -231 -195 -225 -248 9 -75 77 -77 159 -6 37 32 216 169 397 305 368
275 373 279 326 314 -65 48 -137 27 -298 -88z"/>
<path d="M6330 4139 c-380 -334 -653 -459 -1095 -503 -461 -47 -982 53 -1286
247 -207 132 -339 137 -271 11 41 -77 495 -302 696 -345 609 -130 1239 -67
1632 163 64 37 121 68 126 68 24 0 388 284 426 331 118 151 -62 173 -228 28z"/>
<path d="M7359 4166 c-27 -18 -53 -40 -59 -47 -5 -7 -82 -74 -170 -149 -877
-744 -1739 -1044 -2501 -869 -54 12 -112 25 -129 29 -16 3 -84 20 -150 37
-207 55 -215 -46 -10 -128 878 -351 2044 23 3067 984 150 140 112 252 -48 143z"/>
<path d="M6838 4136 c-397 -381 -1017 -711 -1458 -778 -186 -28 -278 -109
-170 -151 297 -114 1790 632 1766 881 -7 70 -87 97 -138 48z"/>
<path d="M8580 4005 c-111 -43 -290 -210 -273 -255 25 -64 231 25 342 149 56
62 8 136 -69 106z"/>
<path d="M8030 3590 c-77 -62 -154 -123 -170 -136 -480 -380 -1104 -669 -1650
-764 -169 -29 -190 -130 -28 -130 321 0 999 252 1418 528 283 187 312 207 423
296 59 47 141 112 183 143 60 45 75 68 70 110 -11 94 -87 79 -246 -47z"/>
<path d="M3709 3651 c-73 -54 149 -227 228 -177 62 39 38 93 -67 150 -118 65
-112 64 -161 27z"/>
<path d="M6970 3478 c-86 -67 -309 -218 -320 -218 -3 0 -70 -40 -149 -88 -333
-206 -687 -322 -1085 -356 -285 -25 -346 -50 -263 -110 180 -132 970 66 1463
366 486 296 600 407 472 456 -39 15 -25 21 -118 -50z"/>
<path d="M4107 3450 c-22 -58 20 -98 145 -136 337 -104 789 -140 805 -65 11
54 -47 88 -133 78 -80 -9 -407 48 -584 103 -181 56 -218 59 -233 20z"/>
</g>
</svg>
