<?xml version="1.0" encoding="UTF-8"?>
<svg version="1.1" xmlns="http://www.w3.org/2000/svg" width="215" height="182">
<path d="M0 0 C1.67916 -0.0076664 1.67916 -0.0076664 3.39224243 -0.01548767 C7.08723316 -0.02937053 10.78203709 -0.02842778 14.47705078 -0.02612305 C17.0500597 -0.03001079 19.62306799 -0.03434562 22.19607544 -0.03910828 C27.58777215 -0.04656777 32.97939667 -0.04641988 38.37109375 -0.04101562 C44.58888367 -0.03497881 50.80644712 -0.04728303 57.02419841 -0.06858569 C63.02244699 -0.08837499 69.02057759 -0.09136957 75.01886368 -0.08785057 C77.56331031 -0.08836334 80.10776059 -0.09359265 82.65218735 -0.10366249 C86.21361376 -0.11602712 89.77451915 -0.10923433 93.3359375 -0.09765625 C94.38243469 -0.10529999 95.42893188 -0.11294373 96.50714111 -0.12081909 C103.94757192 -0.06747567 111.17466714 0.86021006 116.79736328 6.2746582 C117.23048828 7.0377832 117.66361328 7.8009082 118.10986328 8.5871582 C119.72798422 11.16416562 121.02892512 12.4012389 123.35986328 14.2746582 C126.29214326 16.66254865 127.80425226 18.52290547 128.79736328 22.2746582 C129.45736328 22.2746582 130.11736328 22.2746582 130.79736328 22.2746582 C131.91064453 23.91918945 131.91064453 23.91918945 133.10986328 26.0871582 C135.26999369 29.72560794 137.13027754 31.15160856 140.79736328 33.2746582 C141.25111328 34.2027832 141.70486328 35.1309082 142.17236328 36.0871582 C143.76200985 39.20531108 144.63551051 40.10593443 147.29736328 42.1496582 C152.26707336 46.17375749 153.51814314 50.62206683 154.17236328 56.8371582 C153.42459296 63.69171948 150.76162292 67.67363708 145.79736328 72.2746582 C143.8532178 74.61906893 142.00481605 76.98422433 140.23486328 79.4621582 C138.79736328 81.2746582 138.79736328 81.2746582 135.79736328 83.2746582 C135.10593262 84.59531935 134.44058938 85.92985993 133.79736328 87.2746582 C132.42456055 88.95043945 132.42456055 88.95043945 130.86376953 90.5871582 C130.29722656 91.18786133 129.73068359 91.78856445 129.14697266 92.4074707 C128.55722656 93.02364258 127.96748047 93.63981445 127.35986328 94.2746582 C126.19272638 95.50214212 125.02730857 96.73126332 123.86376953 97.9621582 C123.32252441 98.53450195 122.7812793 99.1068457 122.22363281 99.6965332 C120.66920221 101.3622202 120.66920221 101.3622202 119.01220703 103.7121582 C118.61130859 104.2277832 118.21041016 104.7434082 117.79736328 105.2746582 C117.13736328 105.2746582 116.47736328 105.2746582 115.79736328 105.2746582 C115.45705078 106.3574707 115.45705078 106.3574707 115.10986328 107.4621582 C113.85282501 110.15581163 112.56265014 111.68364437 110.42236328 113.6965332 C105.76309464 118.22139986 101.0378177 123.08791165 97.54736328 128.5871582 C95.59279233 131.58882073 93.35890324 133.77268894 90.79736328 136.2746582 C89.62115525 137.59958219 88.45511414 138.93357586 87.29736328 140.2746582 C84.58391453 143.41189938 81.73073111 146.34129038 78.79736328 149.2746582 C76.88936654 151.55194463 75.08671021 153.85832013 73.39111328 156.2980957 C70.46722435 160.43032648 68.7152345 162.6353678 63.79736328 164.2746582 C62.59732985 166.09067185 62.59732985 166.09067185 61.79736328 168.2746582 C59.85429459 171.80751037 57.89539482 174.66069409 54.79736328 177.2746582 C53.80736328 177.2746582 52.81736328 177.2746582 51.79736328 177.2746582 C51.79736328 177.9346582 51.79736328 178.5946582 51.79736328 179.2746582 C49.81736328 179.9346582 47.83736328 180.5946582 45.79736328 181.2746582 C45.79736328 180.6146582 45.79736328 179.9546582 45.79736328 179.2746582 C44.47671875 179.17797852 44.47671875 179.17797852 43.12939453 179.0793457 C38.96389304 178.07337465 37.42972632 176.4797668 34.48486328 173.3996582 C34.00976318 172.90643066 33.53466309 172.41320312 33.04516602 171.9050293 C29.19675591 167.85115596 25.6761871 163.55636956 22.19970703 159.1809082 C18.92510987 155.21944432 15.42227137 151.4898279 11.86987305 147.77709961 C9.04110546 144.78259676 6.86924212 141.82028418 4.79736328 138.2746582 C3.93111328 137.5940332 3.06486328 136.9134082 2.17236328 136.2121582 C-0.42470442 134.09349771 -0.55846573 133.38815132 -1.20263672 130.2746582 C-2.19263672 129.9446582 -3.18263672 129.6146582 -4.20263672 129.2746582 C-8.20263672 123.90322963 -8.20263672 123.90322963 -8.20263672 121.2746582 C-9.33185547 120.91307617 -9.33185547 120.91307617 -10.48388672 120.54418945 C-13.59849203 119.08981197 -14.72532421 117.73692458 -16.70263672 114.9621582 C-18.67846447 112.27914698 -20.52438462 109.9529103 -22.89013672 107.5871582 C-25.45607924 105.02121568 -27.33802642 102.38234203 -29.20263672 99.2746582 C-29.20263672 98.6146582 -29.20263672 97.9546582 -29.20263672 97.2746582 C-29.82138672 97.0477832 -30.44013672 96.8209082 -31.07763672 96.5871582 C-33.20263672 95.2746582 -33.20263672 95.2746582 -34.20263672 92.7121582 C-34.53263672 91.9077832 -34.86263672 91.1034082 -35.20263672 90.2746582 C-35.82138672 90.1302832 -36.44013672 89.9859082 -37.07763672 89.8371582 C-39.94277416 89.07873947 -40.44680729 87.46268255 -41.97607422 85.06396484 C-44.76410663 80.99678938 -48.2352877 77.4266147 -51.51318359 73.75317383 C-56.93573943 67.60510879 -60.42872507 62.72471031 -60.20263672 54.2746582 C-58.88510858 47.80465397 -55.40056624 42.62607697 -50.07763672 38.7121582 C-47.73427625 36.91558184 -46.69834054 34.79016009 -45.20263672 32.2746582 C-44.54263672 32.2746582 -43.88263672 32.2746582 -43.20263672 32.2746582 C-42.868125 31.21698242 -42.868125 31.21698242 -42.52685547 30.13793945 C-40.91585744 26.65457203 -38.64359675 24.19200106 -36.01513672 21.4621582 C-35.01691334 20.40304173 -34.01951746 19.34314472 -33.02294922 18.2824707 C-32.53858398 17.76974609 -32.05421875 17.25702148 -31.55517578 16.72875977 C-29.77436088 14.81422302 -28.08094599 12.83125165 -26.39013672 10.8371582 C-18.52962848 1.83500472 -11.7508896 -0.02771117 0 0 Z M-6.20263672 12.2746582 C-4.55263672 15.9046582 -2.90263672 19.5346582 -1.20263672 23.2746582 C-0.37523969 25.16032342 0.44614734 27.04867457 1.25439453 28.94262695 C1.64433594 29.85463867 2.03427734 30.76665039 2.43603516 31.70629883 C2.82339844 32.61573242 3.21076172 33.52516602 3.60986328 34.4621582 C4.0165625 35.41413086 4.42326172 36.36610352 4.84228516 37.34692383 C5.82844122 39.6556892 6.81345497 41.96493425 7.79736328 44.2746582 C11.85459405 42.92224795 13.28821747 40.66539579 15.79736328 37.2746582 C15.79736328 36.2846582 15.79736328 35.2946582 15.79736328 34.2746582 C16.38388672 34.02329102 16.97041016 33.77192383 17.57470703 33.51293945 C23.72192799 30.08821354 28.61090681 22.83402763 30.79736328 16.2746582 C32.11383447 15.57528288 33.44758479 14.90736687 34.79736328 14.2746582 C35.12736328 13.6146582 35.45736328 12.9546582 35.79736328 12.2746582 C21.93736328 12.2746582 8.07736328 12.2746582 -6.20263672 12.2746582 Z M57.79736328 12.2746582 C59.33482627 15.34958417 60.77746969 17.79780185 62.79736328 20.5246582 C63.31298828 21.23106445 63.82861328 21.9374707 64.35986328 22.6652832 C64.83423828 23.19637695 65.30861328 23.7274707 65.79736328 24.2746582 C66.45736328 24.2746582 67.11736328 24.2746582 67.79736328 24.2746582 C68.06935547 24.85473633 68.34134766 25.43481445 68.62158203 26.0324707 C70.57678902 29.76100496 73.21500132 32.96263623 75.79736328 36.2746582 C76.27044922 36.88567383 76.74353516 37.49668945 77.23095703 38.1262207 C78.36889865 39.55118024 79.57745683 40.91920659 80.79736328 42.2746582 C81.45736328 42.2746582 82.11736328 42.2746582 82.79736328 42.2746582 C83.12736328 42.9346582 83.45736328 43.5946582 83.79736328 44.2746582 C83.92111328 43.6352832 84.04486328 42.9959082 84.17236328 42.3371582 C84.48173828 41.3162207 84.48173828 41.3162207 84.79736328 40.2746582 C85.45736328 39.9446582 86.11736328 39.6146582 86.79736328 39.2746582 C89.71599092 33.97788953 92.10042216 28.42638067 94.54736328 22.8996582 C94.86535889 22.18543701 95.18335449 21.47121582 95.51098633 20.73535156 C97.20552289 17.14085131 97.20552289 17.14085131 97.79736328 13.2746582 C98.45736328 12.9446582 99.11736328 12.6146582 99.79736328 12.2746582 C85.93736328 12.2746582 72.07736328 12.2746582 57.79736328 12.2746582 Z M45.79736328 16.2746582 C44.13466069 18.94944064 42.79752515 21.2741726 41.79736328 24.2746582 C40.89630859 24.70198242 40.89630859 24.70198242 39.97705078 25.13793945 C37.01155979 26.68445895 35.80718779 28.71818678 33.92236328 31.4621582 C31.13763356 35.43143714 28.29705611 39.16465849 25.02392578 42.73950195 C23.63617264 44.47640318 22.72788275 46.2614315 21.79736328 48.2746582 C23.79779164 50.71895287 23.79779164 50.71895287 27.78808594 50.50170898 C29.51256497 50.50139157 31.23706361 50.49004944 32.96142578 50.4699707 C33.86863373 50.46714081 34.77584167 50.46431091 35.71054077 50.46139526 C38.61461451 50.45017973 41.5183824 50.42507283 44.42236328 50.3996582 C46.38850467 50.38963017 48.35465088 50.38050401 50.32080078 50.37231445 C55.14643987 50.35023592 59.97184968 50.31569685 64.79736328 50.2746582 C64.79736328 49.6146582 64.79736328 48.9546582 64.79736328 48.2746582 C66.77736328 48.2746582 68.75736328 48.2746582 70.79736328 48.2746582 C67.2333977 41.91043396 62.81376243 36.62880363 57.98779297 31.19995117 C55.45978744 28.33258925 53.36518072 25.79621737 51.79736328 22.2746582 C50.50502721 20.90155113 49.17299183 19.56430996 47.79736328 18.2746582 C47.13736328 17.6146582 46.47736328 16.9546582 45.79736328 16.2746582 Z M-16.20263672 18.2746582 C-16.57549805 18.71334229 -16.94835937 19.15202637 -17.33251953 19.60400391 C-19.03495784 21.60207046 -20.74371439 23.59463527 -22.45263672 25.5871582 C-23.03916016 26.27745117 -23.62568359 26.96774414 -24.22998047 27.67895508 C-24.80361328 28.34604492 -25.37724609 29.01313477 -25.96826172 29.70043945 C-26.49194336 30.31314697 -27.015625 30.92585449 -27.55517578 31.55712891 C-29.20263672 33.2746582 -29.20263672 33.2746582 -31.30712891 34.83789062 C-33.68150344 36.63763227 -34.70009998 38.72687851 -36.20263672 41.2746582 C-37.19263672 41.9346582 -38.18263672 42.5946582 -39.20263672 43.2746582 C-39.57474092 44.59769537 -39.90893845 45.93203755 -40.20263672 47.2746582 C-40.86263672 47.9346582 -41.52263672 48.5946582 -42.20263672 49.2746582 C-28.67263672 49.2746582 -15.14263672 49.2746582 -1.20263672 49.2746582 C-5.52264364 38.01230704 -5.52264364 38.01230704 -10.39013672 27.0246582 C-10.73238281 26.28086914 -11.07462891 25.53708008 -11.42724609 24.77075195 C-13.04297738 20.84151906 -13.04297738 20.84151906 -16.20263672 18.2746582 Z M107.79736328 19.2746582 C104.33646459 25.86509295 101.19044612 32.49284776 98.42236328 39.3996582 C98.15987793 40.05071533 97.89739258 40.70177246 97.62695312 41.37255859 C96.24875704 44.72193603 96.24875704 44.72193603 95.79736328 48.2746582 C95.13736328 48.6046582 94.47736328 48.9346582 93.79736328 49.2746582 C107.65736328 49.2746582 121.51736328 49.2746582 135.79736328 49.2746582 C133.29716786 44.27426737 131.83844166 41.79764961 127.79736328 38.2746582 C127.13736328 38.2746582 126.47736328 38.2746582 125.79736328 38.2746582 C124.79736328 36.2746582 123.79736328 34.2746582 122.79736328 32.2746582 C122.13736328 32.2746582 121.47736328 32.2746582 120.79736328 32.2746582 C120.57048828 31.7384082 120.34361328 31.2021582 120.10986328 30.6496582 C117.59121417 26.09210268 114.247841 22.03702368 109.79736328 19.2746582 C109.13736328 19.2746582 108.47736328 19.2746582 107.79736328 19.2746582 Z M-44.20263672 61.2746582 C-43.1206609 65.60256148 -42.12825598 66.35243333 -38.75732422 68.98950195 C-35.70693531 71.51105459 -33.61762859 74.5311311 -31.70263672 77.9621582 C-30.40811531 80.39473807 -30.40811531 80.39473807 -28.14013672 81.2746582 C-26.20263672 82.2746582 -26.20263672 82.2746582 -25.35498047 84.52075195 C-23.99363955 87.774126 -22.22492989 89.76066537 -19.82763672 92.3371582 C-19.05677734 93.17375977 -18.28591797 94.01036133 -17.49169922 94.87231445 C-16.01178788 96.42546372 -14.50775394 97.95613097 -12.97607422 99.45825195 C-11.20263672 101.2746582 -11.20263672 101.2746582 -10.20263672 103.2746582 C-9.54263672 103.2746582 -8.88263672 103.2746582 -8.20263672 103.2746582 C-7.86232422 104.0480957 -7.86232422 104.0480957 -7.51513672 104.8371582 C-6.35976951 106.98284017 -5.13807934 108.95236871 -3.76513672 110.9621582 C-3.14832031 111.86514648 -3.14832031 111.86514648 -2.51904297 112.78637695 C-1.16761382 114.56471322 -1.16761382 114.56471322 1.79736328 115.2746582 C2.79736328 117.2746582 3.79736328 119.2746582 4.79736328 121.2746582 C7.12897392 123.85170154 9.44749117 126.01449689 12.23486328 128.0871582 C15.04337362 130.48466703 16.91169802 133.01988438 19.06298828 135.99731445 C21.70807448 139.47047943 24.66340085 142.64312488 27.60595703 145.86450195 C30.40641617 148.94450782 33.10551137 152.09965338 35.79736328 155.2746582 C37.03004819 153.36883339 37.03004819 153.36883339 36.31933594 151.56420898 C35.89467041 150.52756104 35.89467041 150.52756104 35.46142578 149.4699707 C35.14343018 148.67260498 34.82543457 147.87523926 34.49780273 147.05371094 C34.14290771 146.17787354 33.7880127 145.30203613 33.42236328 144.3996582 C29.50489139 134.47428771 26.18004287 124.41608822 23.03222656 114.22241211 C21.01632665 107.7713465 18.72388496 101.58107336 16.06225586 95.37060547 C13.74196781 89.69147544 11.88693152 83.85429164 9.98486328 78.0246582 C9.37481445 76.17420898 9.37481445 76.17420898 8.75244141 74.28637695 C7.76322654 71.28381889 6.77827913 68.27993554 5.79736328 65.2746582 C5.13736328 65.2746582 4.47736328 65.2746582 3.79736328 65.2746582 C3.30236328 63.2946582 3.30236328 63.2946582 2.79736328 61.2746582 C-12.71263672 61.2746582 -28.22263672 61.2746582 -44.20263672 61.2746582 Z M68.22436523 60.25292969 C67.08340897 60.27302597 65.9424527 60.29312225 64.766922 60.31382751 C63.53560043 60.34086258 62.30427887 60.36789764 61.03564453 60.39575195 C59.77471481 60.41936295 58.5137851 60.44297394 57.21464539 60.46730042 C53.86577696 60.53095026 50.51706393 60.59915478 47.16833496 60.66955566 C43.74982942 60.74030573 40.33121128 60.80508273 36.91259766 60.87036133 C30.20740193 60.99961455 23.50234725 61.1348726 16.79736328 61.2746582 C17.30267511 65.15585188 17.82470773 68.86321622 19.06689453 72.5793457 C19.31632812 73.32829102 19.56576172 74.07723633 19.82275391 74.84887695 C20.0825 75.60813477 20.34224609 76.36739258 20.60986328 77.1496582 C20.98208008 78.27694336 20.98208008 78.27694336 21.36181641 79.42700195 C22.61442963 83.1434066 23.97278922 86.72703708 25.63720703 90.27856445 C28.87625481 97.39687381 31.1154628 104.91534058 33.54736328 112.3371582 C34.05866031 113.8861256 34.57037571 115.43495496 35.08251953 116.98364258 C36.32563006 120.74574036 37.56306328 124.50966106 38.79736328 128.2746582 C39.45736328 128.2746582 40.11736328 128.2746582 40.79736328 128.2746582 C40.92111328 129.6359082 40.92111328 129.6359082 41.04736328 131.0246582 C41.82425198 136.64840473 43.91539557 141.94387525 45.79736328 147.2746582 C47.69365053 143.77691666 48.92144667 140.16108146 50.18017578 136.3918457 C50.39930634 135.73636749 50.61843689 135.08088928 50.84420776 134.4055481 C51.30451464 133.02598366 51.76331802 131.64591674 52.22070312 130.26538086 C52.92276075 128.14845972 53.63122298 126.03375756 54.34033203 123.91918945 C54.78733166 122.5768697 55.23395925 121.23442598 55.68017578 119.8918457 C56.0863916 118.67094238 56.49260742 117.45003906 56.91113281 116.19213867 C57.89424721 113.46390092 57.89424721 113.46390092 57.79736328 111.2746582 C58.45736328 110.9446582 59.11736328 110.6146582 59.79736328 110.2746582 C60.76615079 108.14424735 60.76615079 108.14424735 61.60205078 105.5324707 C61.93849609 104.54762695 62.27494141 103.5627832 62.62158203 102.5480957 C63.14171875 100.98961914 63.14171875 100.98961914 63.67236328 99.3996582 C64.3564675 97.38116057 65.04136161 95.36293047 65.72705078 93.3449707 C66.06446289 92.34240234 66.401875 91.33983398 66.74951172 90.30688477 C68.10408364 86.38708438 69.57365385 82.51397126 71.06738281 78.64526367 C71.99355884 76.05092343 71.99355884 76.05092343 71.79736328 72.2746582 C72.45736328 72.2746582 73.11736328 72.2746582 73.79736328 72.2746582 C75.28236328 66.8296582 75.28236328 66.8296582 76.79736328 61.2746582 C73.63804656 60.22155263 71.53580557 60.18713948 68.22436523 60.25292969 Z M125.57958984 60.36645508 C124.75904114 60.38647583 123.93849243 60.40649658 123.09307861 60.42712402 C121.7788089 60.45993469 121.7788089 60.45993469 120.43798828 60.4934082 C119.53361023 60.51560425 118.62923218 60.53780029 117.69744873 60.56066895 C114.81407541 60.63154043 111.9307194 60.70309064 109.04736328 60.7746582 C107.09033313 60.82288005 105.1333019 60.87105765 103.17626953 60.91918945 C98.38328798 61.03716607 93.59032184 61.15575134 88.79736328 61.2746582 C88.5759668 61.92426514 88.35457031 62.57387207 88.12646484 63.24316406 C87.10433725 66.23429655 86.07589308 69.22322142 85.04736328 72.2121582 C84.69931641 73.23374023 84.35126953 74.25532227 83.99267578 75.30786133 C82.42816998 79.84203091 80.84536649 84.30311719 78.82861328 88.6574707 C76.07595293 94.66382983 74.10907163 100.94308736 72.04736328 107.2121582 C71.63615234 108.44256836 71.22494141 109.67297852 70.80126953 110.94067383 C68.69078472 116.4928187 68.69078472 116.4928187 67.79736328 122.2746582 C67.13736328 122.2746582 66.47736328 122.2746582 65.79736328 122.2746582 C64.34542059 126.64984553 62.90319223 131.02806804 61.4699707 135.40942383 C60.98078502 136.90021354 60.48893115 138.39013042 59.99438477 139.87915039 C59.28499423 142.01657183 58.58518144 144.15692339 57.88720703 146.2980957 C57.66330795 146.96586029 57.43940887 147.63362488 57.20872498 148.32162476 C55.88098573 151.82807387 55.88098573 151.82807387 56.79736328 155.2746582 C57.88017578 154.1918457 57.88017578 154.1918457 58.98486328 153.0871582 C60.77665107 151.29537042 62.58741906 149.52222413 64.42236328 147.7746582 C66.83634792 145.41518421 66.83634792 145.41518421 68.29736328 142.7746582 C70.10012454 139.77005611 72.28987159 137.72516144 74.79736328 135.2746582 C75.97374067 133.94988459 77.13980954 132.61591069 78.29736328 131.2746582 C80.23951532 129.02695207 82.16757675 126.91370008 84.29736328 124.8371582 C87.80470468 121.24213327 90.75914207 117.2673326 93.79736328 113.2746582 C95.78124061 110.70728755 97.71189481 108.35877717 100.02392578 106.08325195 C103.19207319 102.87494493 106.11765635 99.511751 109.04736328 96.0871582 C113.68133199 90.68581855 118.39063654 85.39522432 123.28564453 80.2277832 C125.10340203 78.2908953 125.10340203 78.2908953 124.79736328 75.2746582 C125.35939453 75.06067383 125.92142578 74.84668945 126.50048828 74.6262207 C129.59302618 72.80646201 131.32828914 70.45613432 133.54736328 67.6496582 C134.34658203 66.64676758 135.14580078 65.64387695 135.96923828 64.6105957 C136.57251953 63.83973633 137.17580078 63.06887695 137.79736328 62.2746582 C133.72544088 59.9478454 130.14127296 60.25382093 125.57958984 60.36645508 Z " fill="#5D3CA3" transform="translate(60.20263671875,0.725341796875)"/>
<path d="M0 0 C19.47 0 38.94 0 59 0 C59 0.66 59 1.32 59 2 C39.2 2.33 19.4 2.66 -1 3 C-0.67 2.01 -0.34 1.02 0 0 Z " fill="#523194" transform="translate(75,60)"/>
<path d="M0 0 C-0.58212823 3.26488369 -1.52995878 4.90649106 -3.87109375 7.234375 C-4.44537109 7.80800781 -5.01964844 8.38164062 -5.61132812 8.97265625 C-6.21396484 9.55917969 -6.81660156 10.14570313 -7.4375 10.75 C-8.03626953 11.35199219 -8.63503906 11.95398438 -9.25195312 12.57421875 C-13.73293119 17 -13.73293119 17 -16 17 C-14.44363758 13.37409619 -12.2207077 10.83141085 -9.5625 7.9375 C-8.78003906 7.08027344 -7.99757813 6.22304687 -7.19140625 5.33984375 C-6.10666016 4.18162109 -6.10666016 4.18162109 -5 3 C-4.45214844 2.40316406 -3.90429688 1.80632813 -3.33984375 1.19140625 C-2 0 -2 0 0 0 Z " fill="#553598" transform="translate(43,4)"/>
<path d="M0 0 C1.23364032 3.70092097 0.59950089 4.90298972 -0.65234375 8.54296875 C-1.01650391 9.61611328 -1.38066406 10.68925781 -1.75585938 11.79492188 C-2.14580078 12.91447266 -2.53574219 14.03402344 -2.9375 15.1875 C-3.51661133 16.88422852 -3.51661133 16.88422852 -4.10742188 18.61523438 C-5.06362336 21.41300909 -6.0281007 24.20764759 -7 27 C-7.66 27 -8.32 27 -9 27 C-4.13114754 6.19672131 -4.13114754 6.19672131 0 0 Z " fill="#55359C" transform="translate(123,129)"/>
<path d="M0 0 C0.66 0 1.32 0 2 0 C2 0.66 2 1.32 2 2 C2.90492187 2.36738281 2.90492187 2.36738281 3.828125 2.7421875 C6.38964779 4.22565933 7.27500992 5.58473931 8.75 8.125 C9.39195313 9.21167969 9.39195313 9.21167969 10.046875 10.3203125 C10.51867187 11.15175781 10.51867187 11.15175781 11 12 C7.612801 10.5611898 5.6405896 8.77880501 3.25 6 C2.63640625 5.29875 2.0228125 4.5975 1.390625 3.875 C0 2 0 2 0 0 Z " fill="#533794" transform="translate(79,154)"/>
<path d="M0 0 C3.51855159 1.40742064 4.38612834 2.66466523 6 6 C6.99 6.33 7.98 6.66 9 7 C10.6875 9.5625 10.6875 9.5625 12 12 C7.0187842 9.78612631 2.933076 6.63117263 0 2 C0 1.34 0 0.68 0 0 Z " fill="#543796" transform="translate(183,33)"/>
<path d="M0 0 C0 3.99282941 -1.47808076 5.15331592 -4 8.1875 C-4.7425 9.08855469 -5.485 9.98960938 -6.25 10.91796875 C-6.8275 11.60503906 -7.405 12.29210937 -8 13 C-8.66 12.34 -9.32 11.68 -10 11 C-9.525625 10.566875 -9.05125 10.13375 -8.5625 9.6875 C-6.76313043 7.97690387 -6.76313043 7.97690387 -6 5 C-4.12382302 3.15500602 -2.07262391 1.6316401 0 0 Z " fill="#54349C" transform="translate(191,71)"/>
<path d="M0 0 C4.28904235 1.5885342 6.32345526 4.43127368 9 8 C9 8.66 9 9.32 9 10 C4.50486731 8.50162244 2.37078067 4.87680938 0 1 C0 0.67 0 0.34 0 0 Z " fill="#533896" transform="translate(18,67)"/>
<path d="M0 0 C0.66 0.66 1.32 1.32 2 2 C1.57847656 2.48210937 1.15695313 2.96421875 0.72265625 3.4609375 C0.17480469 4.09257813 -0.37304688 4.72421875 -0.9375 5.375 C-1.48277344 6.00148438 -2.02804688 6.62796875 -2.58984375 7.2734375 C-4.06958624 8.95632334 -4.06958624 8.95632334 -5 11 C-5.66 11 -6.32 11 -7 11 C-6.40716379 7.60807637 -5.23256811 5.7892243 -2.9375 3.25 C-2.38964844 2.63640625 -1.84179688 2.0228125 -1.27734375 1.390625 C-0.85582031 0.93171875 -0.43429688 0.4728125 0 0 Z " fill="#4F3397" transform="translate(210,64)"/>
<path d="M0 0 C4.55015893 1.51671964 6.50057264 5.16891053 9 9 C4.12744585 7.64651274 2.47594119 5.3099717 0 1 C0 0.67 0 0.34 0 0 Z " fill="#503495" transform="translate(31,99)"/>
<path d="M0 0 C0.66 0.33 1.32 0.66 2 1 C1.5504955 2.31554985 1.09010284 3.62738358 0.625 4.9375 C0.36976562 5.66839844 0.11453125 6.39929688 -0.1484375 7.15234375 C-1 9 -1 9 -3 10 C-2.69201674 8.51988629 -2.378482 7.04092675 -2.0625 5.5625 C-1.88847656 4.73878906 -1.71445313 3.91507812 -1.53515625 3.06640625 C-1 1 -1 1 0 0 Z " fill="#53369B" transform="translate(125,96)"/>
<path d="M0 0 C0 3 0 3 -2.375 5.6875 C-5 8 -5 8 -7 8 C-5.50902342 4.2047869 -3.24299151 2.38957269 0 0 Z " fill="#513599" transform="translate(193,86)"/>
<path d="M0 0 C3.82946843 1.45255699 5.12050295 3.42895561 7 7 C4.13302508 5.71480435 2.02392288 4.42870746 0 2 C0 1.34 0 0.68 0 0 Z " fill="#54369A" transform="translate(70,144)"/>
<path d="M0 0 C0.66 0 1.32 0 2 0 C3.25664978 2.90600261 4 4.79604584 4 8 C3.34 8 2.68 8 2 8 C0.23537317 4.91190305 0 3.76687864 0 0 Z " fill="#56359A" transform="translate(99,131)"/>
<path d="M0 0 C2.94956528 1.36944102 5.52468811 2.87830409 8 5 C8 5.66 8 6.32 8 7 C7.01 7 6.02 7 5 7 C3.61328125 5.46875 3.61328125 5.46875 2.3125 3.5 C1.87550781 2.8503125 1.43851562 2.200625 0.98828125 1.53125 C0.49908203 0.77328125 0.49908203 0.77328125 0 0 Z " fill="#503696" transform="translate(68,126)"/>
<path d="M0 0 C0.66 0.33 1.32 0.66 2 1 C0.02 3.31 -1.96 5.62 -4 8 C-4.66 7.34 -5.32 6.68 -6 6 C-4.02 4.02 -2.04 2.04 0 0 Z " fill="#513293" transform="translate(178,86)"/>
<path d="M0 0 C0.66 0 1.32 0 2 0 C1.1875 2.4375 1.1875 2.4375 0 5 C-0.99 5.33 -1.98 5.66 -3 6 C-2.42655063 3.13275314 -2.1385485 2.1385485 0 0 Z " fill="#523697" transform="translate(200,76)"/>
<path d="M0 0 C2.31 1.65 4.62 3.3 7 5 C6.01 6.485 6.01 6.485 5 8 C0 2.25 0 2.25 0 0 Z " fill="#523593" transform="translate(179,12)"/>
</svg>
