<?xml version="1.0" encoding="UTF-8"?>
<svg version="1.1" xmlns="http://www.w3.org/2000/svg" width="1024" height="1024">
<path d="M0 0 C1.0625 2.375 1.0625 2.375 1 5 C-1 7.875 -1 7.875 -4 10 C-10.17556836 10.49404547 -13.99536454 7.17072941 -18.9765625 3.84765625 C-32.18931195 -4.22680174 -48.59169287 -7.06324828 -63.8125 -4.3125 C-69.71818663 -2.75722709 -74.42938272 -0.07875816 -78.125 4.8125 C-79.31171324 9.1355268 -79.21495173 12.0526396 -77 16 C-68.42804173 24.63260891 -53.74292462 27.13908724 -42.35400391 30.53759766 C-6.60718817 41.21991542 -6.60718817 41.21991542 7 54 C7.61617187 54.50402344 8.23234375 55.00804687 8.8671875 55.52734375 C13.06845254 59.19644855 15.66732249 63.53189432 18.3125 68.375 C18.81934326 69.29357788 18.81934326 69.29357788 19.33642578 70.23071289 C25.84014835 82.74255791 26.11482188 99.74605746 22.09765625 113.10546875 C18.0995578 123.64849705 13.14898063 132.05925568 5 140 C4.33613281 140.69609375 3.67226563 141.3921875 2.98828125 142.109375 C-13.5824009 158.39598831 -39.72100489 163.4055458 -62 163.3125 C-63.02229706 163.31026428 -63.02229706 163.31026428 -64.06524658 163.3079834 C-74.52887748 163.26695075 -84.67364425 162.65098753 -94.92626953 160.44433594 C-96.99600669 160.00085564 -99.07103077 159.61157356 -101.15234375 159.2265625 C-128.90685998 153.75521872 -154.60328474 139.0472733 -176.1875 121.1875 C-176.99936768 120.5214978 -176.99936768 120.5214978 -177.82763672 119.84204102 C-180.93341909 117.20128231 -183.30031101 114.7295334 -185 111 C-184.1875 107.6875 -184.1875 107.6875 -183 105 C-176.81929047 103.51662971 -176.81929047 103.51662971 -173.11328125 105.703125 C-170.12444875 107.90818586 -167.21115874 110.17797698 -164.3125 112.5 C-135.52012112 134.97676845 -100.92614067 149.47613441 -64.125 149.3125 C-62.81160645 149.30758545 -61.49821289 149.3026709 -60.14501953 149.29760742 C-39.60587801 149.04955016 -18.07787727 144.07787727 -3 129 C7.45286751 115.70893668 11.05740354 103.78418322 10 87 C8.31739223 76.48016657 2.30765308 66.61898313 -6 60 C-20.45966303 49.72338274 -36.60040468 45.03091513 -53.50732422 40.42211914 C-81.97203525 32.5585726 -81.97203525 32.5585726 -89.65625 21.6484375 C-92.68645731 16.21089882 -94.29567878 11.18344265 -93 5 C-90.65177995 -1.81707934 -87.21879765 -7.22831045 -81 -11 C-55.64267511 -23.24605717 -21.64527406 -18.55309205 0 0 Z " fill="#000000" transform="translate(496,516)"/>
<path d="M0 0 C1.26585937 0.28359375 2.53171875 0.5671875 3.8359375 0.859375 C12.49681221 3.01378046 20.32019074 6.35780011 28.25 10.4375 C29.14332031 10.89181396 30.03664063 11.34612793 30.95703125 11.81420898 C36.1411505 14.58880105 39.5788751 17.20052932 43 22 C41.92598892 24.91517292 41.22189824 26.77810176 39 29 C33.34554308 29.82687036 29.95189955 27.64700691 25.3125 24.8125 C23.88580009 23.98017701 22.45740893 23.15074629 21.02734375 22.32421875 C20.33624512 21.92251465 19.64514648 21.52081055 18.93310547 21.10693359 C10.28058186 16.15233116 1.80165274 13.70308183 -8 12 C-8.74121094 11.86722656 -9.48242188 11.73445313 -10.24609375 11.59765625 C-27.2344851 9.01937648 -43.99462503 11.95454255 -58.4375 21.3125 C-64.88131847 26.0807188 -68.6517852 32.04553269 -70 40 C-70.10388806 48.6486808 -68.32396921 55.24988089 -62.5625 61.75 C-49.94436213 72.82934056 -34.42112322 77.02105218 -18.6184082 81.65405273 C-1.04443124 86.83944119 19.1093246 93.33532505 29 110 C33.77490548 120.11156454 34.55626876 130.98428987 30.984375 141.58203125 C25.76422809 154.40453497 16.99659944 162.74277221 4.57421875 168.62109375 C-1.48133285 171.01912065 -7.55961884 172.9874355 -14 174 C-14.69480469 174.11085938 -15.38960938 174.22171875 -16.10546875 174.3359375 C-56.02288433 179.42008337 -96.24656843 164.68113933 -127.69140625 140.5703125 C-128.25746582 140.12977539 -128.82352539 139.68923828 -129.40673828 139.23535156 C-130.82723304 138.13395661 -132.26966879 137.06099316 -133.71484375 135.9921875 C-137.38070699 133.11876921 -138.81271221 131.93643895 -139.75 127.25 C-139 124 -139 124 -137.375 122 C-134.0690514 120.60802164 -132.47300006 121.0646487 -129 122 C-126.25972033 123.58360501 -123.7745337 125.4710747 -121.25 127.375 C-107.63640187 137.27809977 -93.7605532 145.96189224 -78 152 C-76.80246094 152.46019531 -75.60492188 152.92039062 -74.37109375 153.39453125 C-52.19113274 161.31423685 -24.44484582 166.37100796 -2 157 C0.79570512 155.54782675 3.43266093 154.02567845 6.046875 152.26953125 C8 151 8 151 11 150 C12.08407022 148.16081394 12.08407022 148.16081394 13 146 C13.41378906 145.34902344 13.82757813 144.69804688 14.25390625 144.02734375 C18.42034033 137.37348634 19.80226547 131.1650615 18.58984375 123.359375 C16.41408646 114.86480164 12.17100187 109.19800927 4.9375 104.3125 C-5.36279728 98.29279859 -16.72756219 95.08703775 -28.11495972 91.80682373 C-48.8694535 85.78644528 -69.66264853 79.60580173 -81.25 59.87109375 C-85.37198778 51.41243133 -85.33726203 41.07702508 -83.33984375 32 C-78.65599422 19.02310086 -68.09155368 9.99896644 -55.94140625 4.28125 C-38.52142525 -3.30673641 -18.46450222 -4.14239429 0 0 Z " fill="#000000" transform="translate(466,482)"/>
<path d="M0 0 C4.57266568 0.34510684 7.6597355 0.77570273 11 4 C11.50222206 6.09924412 11.50222206 6.09924412 11.50552368 8.56752014 C11.51654617 9.50484482 11.52756866 10.44216949 11.53892517 11.40789795 C11.53075272 12.4348175 11.52258026 13.46173706 11.51416016 14.51977539 C11.52128525 15.60320724 11.52841034 16.6866391 11.53575134 17.80290222 C11.55511621 21.40133625 11.54673027 24.9991869 11.5390625 28.59765625 C11.54897034 31.10616411 11.56091191 33.6146647 11.57479858 36.12315369 C11.60394266 42.07276373 11.61675413 48.02225255 11.62037504 53.97191948 C11.62738623 65.20145794 11.66326498 76.43084882 11.7138176 87.66027641 C11.72627559 91.32574062 11.72565412 94.99102859 11.72354126 98.6565094 C11.76864745 125.56237852 12.76755637 153.73717733 33 174 C46.2865588 185.21162376 63.52361588 191.32942383 81 190 C100.60819762 188.11232755 116.48410678 181.46335927 130 167 C145.60471177 147.03053338 147.2674706 122.09264533 147.33552551 97.78128242 C147.34396196 94.86821783 147.36458586 91.95544533 147.38806152 89.04246521 C147.44385239 81.82952151 147.47987016 74.61650832 147.51568604 67.40344238 C147.54688121 61.2595357 147.58595056 55.11578166 147.63594055 48.97199821 C147.65600602 46.10131186 147.66431869 43.23074242 147.67224121 40.36000061 C147.68520112 38.61572835 147.69871956 36.87146011 147.71289062 35.12719727 C147.71141777 33.92972115 147.71141777 33.92972115 147.70991516 32.70805359 C147.77227705 27.22772295 147.77227705 27.22772295 150 25 C157.18078116 25.22796131 157.18078116 25.22796131 159.60002136 27.50787354 C161.61729675 31.09886074 161.41009189 34.54355358 161.37231445 38.55371094 C161.37596512 39.41616928 161.37961578 40.27862762 161.38337708 41.16722107 C161.39149061 44.02313869 161.3778524 46.8784897 161.36328125 49.734375 C161.36276217 51.73057047 161.36328172 53.72676646 161.36479187 55.72296143 C161.36470207 59.91613357 161.35426797 64.1091138 161.33618164 68.30224609 C161.31367045 73.63436973 161.31291763 78.96620866 161.31969929 84.29836655 C161.32307173 88.42865451 161.31634532 92.55887962 161.30657005 96.68915558 C161.30276057 98.65201741 161.30155187 100.61488629 161.3031559 102.57775116 C161.30677582 129.10802857 158.67145764 156.46914408 140 177 C139.29617188 177.80695313 138.59234375 178.61390625 137.8671875 179.4453125 C123.49001842 194.96126726 103.67796599 202.27953626 82.78515625 203.21875 C59.80023362 203.87946642 38.38712073 198.31261344 21.26074219 182.29907227 C9.85314629 171.22317872 3.39379543 156.38698106 0 141 C-0.26676041 139.81677658 -0.26676041 139.81677658 -0.53890991 138.60964966 C-2.53492954 128.38658068 -2.35397564 118.11519771 -2.4140625 107.7421875 C-2.43283586 105.66927372 -2.45241349 103.59636708 -2.4727478 101.52346802 C-2.52386715 96.07888212 -2.56353007 90.63427048 -2.60089111 85.1895752 C-2.64056994 79.73438964 -2.6920577 74.27931641 -2.7421875 68.82421875 C-2.82567221 59.56266683 -2.89316641 50.30111524 -2.94766617 41.0393486 C-2.97711 36.14097643 -3.01525679 31.24293634 -3.07109261 26.34479332 C-3.10395735 23.33669048 -3.12521449 20.32850295 -3.1484375 17.3203125 C-3.16379547 16.31781464 -3.17915344 15.31531677 -3.19497681 14.28244019 C-3.21894002 9.44830734 -2.96784473 5.51682858 -1 1 C-0.67 0.67 -0.34 0.34 0 0 Z " fill="#000000" transform="translate(529,456)"/>
<path d="M0 0 C1.453125 1.359375 1.453125 1.359375 3.453125 4.359375 C2.91258446 8.89991554 2.91258446 8.89991554 1.453125 10.359375 C-4.42628671 10.02319517 -8.33327454 8.09778136 -13.359375 5.171875 C-19.36848496 1.84100496 -25.33681768 -0.90859437 -31.859375 -3.078125 C-32.8963855 -3.42943481 -32.8963855 -3.42943481 -33.9543457 -3.7878418 C-44.24958617 -7.06014104 -54.60150928 -8.00847867 -65.359375 -7.953125 C-66.49648926 -7.94821045 -67.63360352 -7.9432959 -68.80517578 -7.93823242 C-89.20079546 -7.65475802 -107.53622259 -1.49671573 -122.765625 12.484375 C-131.64039397 21.82623708 -134.99904736 33.36165473 -134.8125 46.046875 C-133.91435525 57.24726836 -129.38207757 66.37097014 -121.546875 74.359375 C-119.28681925 76.28083034 -116.93593565 78.00318734 -114.484375 79.671875 C-113.93869873 80.04401123 -113.39302246 80.41614746 -112.83081055 80.79956055 C-99.718245 89.08990949 -84.72597052 93.36903955 -69.95410156 97.59155273 C-42.30971747 105.54234561 -42.30971747 105.54234561 -33.609375 118.171875 C-31.40736815 124.77789554 -31.99035673 131.04518098 -34.5 137.47265625 C-38.93243202 145.46095724 -46.86090554 149.18882325 -55.421875 151.671875 C-56.78941049 151.94203985 -58.16633834 152.16634421 -59.546875 152.359375 C-60.49175781 152.49214844 -61.43664062 152.62492188 -62.41015625 152.76171875 C-98.38809527 156.52439392 -132.3964356 141.56128822 -160.546875 120.359375 C-161.73410156 119.47185547 -161.73410156 119.47185547 -162.9453125 118.56640625 C-165.51888088 116.52330809 -167.34738024 114.76833926 -168.796875 111.796875 C-168.546875 109.359375 -168.546875 109.359375 -166.484375 106.484375 C-163.546875 104.359375 -163.546875 104.359375 -160.85546875 104.3828125 C-156.40172935 105.69737549 -153.34328924 108.08083584 -149.671875 110.859375 C-124.13994775 129.46255333 -93.86414885 142.26248022 -61.74609375 139.08203125 C-56.37077865 138.10723318 -51.81916157 135.75976635 -47.546875 132.359375 C-45.99663036 129.25888572 -46.25695485 126.78043282 -46.546875 123.359375 C-53.77866794 112.32159819 -71.66576172 109.70506818 -83.6730957 106.25756836 C-105.98314319 99.81475363 -130.15459007 91.27511242 -142.23046875 69.953125 C-149.03116043 56.55354257 -151.19275544 41.93950729 -146.859375 27.296875 C-146.12907353 25.3023965 -145.36072718 23.32124384 -144.546875 21.359375 C-144.21945312 20.5034375 -143.89203125 19.6475 -143.5546875 18.765625 C-136.70925498 2.97616022 -121.05416689 -8.36299388 -105.546875 -14.640625 C-71.75765447 -26.32712233 -28.77962831 -22.27292973 0 0 Z " fill="#000000" transform="translate(509.546875,482.640625)"/>
<path d="M0 0 C4.29170492 0.40487782 6.09232369 1.44413136 9.3125 4.3125 C9.91722073 7.48946071 10.11221042 9.91233435 10.05371094 13.09057617 C10.06112808 13.97759216 10.06854523 14.86460815 10.07618713 15.77850342 C10.09413244 18.72145433 10.07017247 21.66257943 10.046875 24.60546875 C10.05305609 26.66979515 10.06215772 28.73411466 10.07403564 30.79841614 C10.09883235 36.25525675 10.08952667 41.71148743 10.07147217 47.16833496 C10.04538412 56.85569495 10.07840931 66.54315253 10.109375 76.23046875 C10.11188641 77.26247847 10.11439781 78.29448818 10.11698532 79.35777092 C9.47678225 108.91405597 9.47678225 108.91405597 16.3125 137.3125 C16.61027344 138.06015625 16.90804687 138.8078125 17.21484375 139.578125 C21.31896135 148.80798604 28.4012734 155.51187223 37.703125 159.28125 C50.0750443 163.28175085 63.45044793 162.48783546 75.3125 157.3125 C88.15152595 150.71768173 94.58349731 142.06445775 99.25 128.609375 C100.98070083 122.65177023 101.59564525 116.81273654 101.89111328 110.65039062 C101.93237902 109.82222084 101.97364475 108.99405106 102.01616096 108.14078522 C102.39629376 99.76646641 102.3996338 91.40492637 102.32653427 83.02406311 C102.30400876 80.32491865 102.29026662 77.62584896 102.27883911 74.92663574 C102.24566908 67.26983681 102.2029953 59.61316677 102.14111328 51.95654297 C102.10355317 47.23383397 102.08048387 42.51124223 102.06680679 37.78840637 C102.05875877 35.99897426 102.04515867 34.2095581 102.02587509 32.42021179 C101.99950491 29.93689067 101.991515 27.45414644 101.98779297 24.97070312 C101.9754361 24.23522751 101.96307922 23.49975189 101.9503479 22.74198914 C101.96190097 19.83072473 101.99395879 17.79721105 103.61795044 15.3260498 C106.584812 13.55150037 109.09337318 14.52183727 112.3125 15.3125 C114.82994176 16.70371781 116.03041694 17.42281466 116.90570545 20.18346024 C117.56953441 23.65774042 117.45977858 27.15820752 117.45776367 30.68261719 C117.46112228 31.52556839 117.4644809 32.36851959 117.46794128 33.23701477 C117.47744766 36.0278165 117.47939511 38.81855807 117.48046875 41.609375 C117.48368462 43.56073023 117.48704894 45.51208521 117.49055481 47.46343994 C117.49654746 51.5623836 117.49839488 55.66130618 117.49780273 59.76025391 C117.49770181 64.97128273 117.5112811 70.18217317 117.52857494 75.3931694 C117.53979319 79.43079222 117.54171885 83.4683828 117.54119301 87.50601959 C117.54236119 89.42423219 117.54671639 91.34244595 117.55452538 93.26064301 C117.64604613 118.09203284 115.54930094 141.03236834 97.71875 159.9921875 C85.78536377 171.49938137 70.58069991 176.26269233 54.25 176.5625 C38.0853153 176.26347972 23.55311606 170.66522058 12.05859375 159.03125 C-1.13593476 143.60842351 -3.85494502 124.32584058 -3.81689453 104.75 C-3.81864685 103.62863144 -3.82039917 102.50726288 -3.82220459 101.35191345 C-3.8265807 97.6720929 -3.8237017 93.99232097 -3.8203125 90.3125 C-3.82098638 87.74943024 -3.8219571 85.18636055 -3.82321167 82.62329102 C-3.82468256 77.26724578 -3.82264825 71.91121782 -3.81787109 66.55517578 C-3.81240791 60.35827853 -3.81420953 54.16141408 -3.8196975 47.96451759 C-3.82477205 41.99562938 -3.82424889 36.0267514 -3.82131577 30.05786133 C-3.82064679 27.51879878 -3.82147389 24.9797354 -3.82379532 22.44067383 C-3.82631903 18.90704075 -3.8224863 15.373472 -3.81689453 11.83984375 C-3.81891876 10.7822435 -3.82094299 9.72464325 -3.82302856 8.63499451 C-3.82020874 7.67899857 -3.81738892 6.72300262 -3.81448364 5.73803711 C-3.81410662 4.90259872 -3.81372959 4.06716034 -3.81334114 3.20640564 C-3.61267328 0.18635999 -3.03866247 0.35333285 0 0 Z " fill="#000000" transform="translate(551.6875,462.6875)"/>
<path d="M0 0 C3.40046369 0.83520161 5.11902782 1.43152782 7.5625 3.875 C8.46077854 6.56983563 8.68963867 8.11246934 8.69621277 10.87547302 C8.70261024 12.09252678 8.70261024 12.09252678 8.70913696 13.33416748 C8.70845718 14.66426849 8.70845718 14.66426849 8.70776367 16.02124023 C8.71112228 16.95825272 8.7144809 17.8952652 8.71794128 18.860672 C8.72746296 21.96832598 8.72939557 25.07592607 8.73046875 28.18359375 C8.73368248 30.34774294 8.73704664 32.51189191 8.74055481 34.67604065 C8.74655052 39.22145083 8.74839446 43.766842 8.74780273 48.31225586 C8.74770154 54.11222815 8.76130709 59.91207682 8.77857494 65.71201992 C8.7897479 70.18783619 8.79172025 74.6636232 8.79119301 79.13945198 C8.79236695 81.27588384 8.79675553 83.41231661 8.80452538 85.54873466 C8.92579367 122.36487794 8.92579367 122.36487794 -4.83203125 136.67578125 C-14.939603 145.2073598 -25.65090842 146.63044414 -38.4375 145.875 C-46.45005689 144.56546854 -53.79758441 141.03374543 -59.19140625 134.87109375 C-65.51390473 126.01325754 -68.42514293 115.88075548 -68.74951172 105.10375977 C-68.77000202 104.44077566 -68.79049232 103.77779156 -68.81160355 103.09471703 C-68.87717024 100.89789644 -68.93529057 98.70096757 -68.9921875 96.50390625 C-69.01312344 95.7390497 -69.03405937 94.97419315 -69.05562973 94.18615913 C-69.51912442 77.03443722 -69.59209552 59.88533249 -69.56787109 42.72827148 C-69.56201615 38.54250717 -69.56557586 34.3568048 -69.57144356 30.17104244 C-69.57503735 26.90181498 -69.57391877 23.6326026 -69.57131577 20.36337471 C-69.5706512 18.81597448 -69.57145841 17.26857285 -69.57379532 15.72117424 C-69.57631885 13.59394445 -69.57249286 11.46682136 -69.56689453 9.33959961 C-69.56609894 8.13500595 -69.56530334 6.93041229 -69.56448364 5.6893158 C-69.4375 2.875 -69.4375 2.875 -68.4375 0.875 C-63.44565264 0.58136192 -60.46305256 0.79663628 -56.4375 3.875 C-54.71806564 7.31386873 -55.28414052 11.27431698 -55.27978516 15.05957031 C-55.27216408 16.48931183 -55.27216408 16.48931183 -55.26438904 17.94793701 C-55.25366698 20.02466149 -55.24505404 22.10139766 -55.23826981 24.17813873 C-55.22648255 27.47548942 -55.20702483 30.77270902 -55.18515015 34.07000732 C-55.12356542 43.44799358 -55.06969795 52.82597 -55.03613281 62.20410156 C-55.01505655 67.93832183 -54.97963864 73.67230891 -54.93537521 79.40639496 C-54.92130384 81.58300763 -54.91251303 83.75966163 -54.90932083 85.93631744 C-55.58054621 108.28376869 -55.58054621 108.28376869 -46.4375 127.875 C-39.97796224 132.91343945 -34.42729774 133.631236 -26.4375 132.875 C-19.80491954 131.0702944 -15.17623699 126.4979811 -11.4375 120.875 C-7.71661325 112.81989352 -7.28950419 104.52182036 -7.27978516 95.78637695 C-7.27470444 94.7857019 -7.26962372 93.78502686 -7.26438904 92.75402832 C-7.25371584 90.58840614 -7.24508379 88.42277315 -7.23826981 86.25713539 C-7.22645552 82.83226926 -7.20699936 79.40752778 -7.18515015 75.98271179 C-7.12359502 66.24787509 -7.06937389 56.51305414 -7.03613281 46.77807617 C-7.01523817 40.81884496 -6.97998652 34.85984611 -6.93537521 28.9007473 C-6.92118391 26.6285188 -6.91248575 24.35624926 -6.90932083 22.08397865 C-6.90443535 18.91421613 -6.88134163 15.74507631 -6.85400391 12.57543945 C-6.85701004 11.63252548 -6.86001617 10.68961151 -6.8631134 9.71812439 C-6.85202042 8.85601349 -6.84092743 7.99390259 -6.82949829 7.10566711 C-6.82618814 6.35666799 -6.822878 5.60766886 -6.81946754 4.83597279 C-6.00102754 0.63420589 -4.07839509 -0.14830528 0 0 Z " fill="#000000" transform="translate(638.4375,471.125)"/>
<path d="M0 0 C1.58920258 -0.00537781 1.58920258 -0.00537781 3.21051025 -0.01086426 C60.95990517 -0.11580835 115.28958182 13.50916274 168.10546875 36.16748047 C181.71641395 41.92463532 195.46153108 46.77688354 209.8125 50.3125 C210.73579102 50.55403809 211.65908203 50.79557617 212.61035156 51.04443359 C222.61598066 53.5419312 232.65785818 54.53445149 242.89404297 55.54199219 C251.18339418 56.36866008 259.01079136 57.17756685 266.8125 60.3125 C266.4825 61.9625 266.1525 63.6125 265.8125 65.3125 C232.91488755 77.5274419 189.3591155 58.95747907 159.359375 46.75341797 C125.80067374 33.12019558 92.67343679 22.12380282 56.8125 16.3125 C55.63945313 16.11011719 54.46640625 15.90773438 53.2578125 15.69921875 C7.70315147 8.40379015 -39.6282981 11.0275101 -83.97192383 23.50463867 C-88.59546579 24.66622855 -92.92023993 25.61789216 -97.25 23.125 C-98.1875 21.3125 -98.1875 21.3125 -98.4375 18.875 C-96.79014455 15.49792132 -94.68945277 14.6799831 -91.2734375 13.34375 C-77.84603626 8.85661845 -64.12893749 5.71308079 -50.1875 3.3125 C-49.35718262 3.16006836 -48.52686523 3.00763672 -47.67138672 2.85058594 C-31.85815327 0.04701439 -16.00964516 0.02178704 0 0 Z " fill="#5A36A3" transform="translate(472.1875,330.6875)"/>
<path d="M0 0 C1.9375 1.1875 1.9375 1.1875 3 3 C2.33260688 10.13056863 -3.43951471 13.85483152 -8.625 18.19921875 C-10.4855752 19.71357896 -12.35163599 21.22122024 -14.22265625 22.72265625 C-16.83524253 24.86490351 -19.32809016 27.08640571 -21.8125 29.375 C-27.39040521 34.44983464 -33.2949563 39.05283781 -39.26367188 43.65332031 C-40.86887721 44.8983024 -42.45861837 46.16315465 -44.046875 47.4296875 C-79.69337528 75.59596362 -121.27149604 97.14997515 -166 106 C-167.1449292 106.24339111 -167.1449292 106.24339111 -168.31298828 106.49169922 C-180.99804145 109.11871707 -193.72176038 109.30934362 -206.625 109.375 C-207.84953888 109.38691879 -207.84953888 109.38691879 -209.09881592 109.39907837 C-225.0345815 109.51815732 -240.62399903 107.76555505 -255.9375 103.1875 C-256.80866455 102.93323242 -257.6798291 102.67896484 -258.57739258 102.41699219 C-266.01866054 100.16143351 -274.39574456 97.60425544 -280 92 C-279.44444444 87.44444444 -279.44444444 87.44444444 -278 86 C-271.56757624 85.36937022 -266.42181 86.94087849 -260.28515625 88.78515625 C-209.2598054 103.65889325 -157.40171235 96.36475071 -110 73 C-109.25943359 72.6385791 -108.51886719 72.2771582 -107.75585938 71.90478516 C-81.89384049 59.15474404 -58.05560598 42.49094631 -36 24 C-35.1339917 23.27466064 -35.1339917 23.27466064 -34.25048828 22.53466797 C-29.28779613 18.36911454 -24.35609599 14.1679877 -19.4453125 9.94140625 C-18.5649231 9.18754639 -18.5649231 9.18754639 -17.66674805 8.41845703 C-16.54539536 7.45811178 -15.42688174 6.49443763 -14.31176758 5.52685547 C-9.55163054 1.45669215 -6.39580155 -0.68040442 0 0 Z " fill="#D7221F" transform="translate(638,666)"/>
<path d="M0 0 C2.125 2.125 2.125 2.125 3 5 C-0.68968005 20.20718961 -23.23262333 32.16976876 -36 40 C-75.97864893 63.78330893 -123.90254572 71.71682701 -169.76416016 62.44873047 C-172.06981977 61.98598725 -174.38102586 61.58614498 -176.69921875 61.19140625 C-193.88789066 58.10934843 -209.82935943 51.9268606 -225.3125 43.9375 C-226.24868164 43.45539062 -227.18486328 42.97328125 -228.14941406 42.4765625 C-243.77251221 34.13374938 -243.77251221 34.13374938 -245.77880859 29.01171875 C-246.0625 27.0625 -246.0625 27.0625 -246 24 C-243.9375 22.375 -243.9375 22.375 -241 21 C-235.75977381 22.06059668 -231.68397222 24.19622965 -227.25 27.0625 C-206.28391436 39.99347356 -183.43111226 47.77885944 -159 51 C-158.2994751 51.0928125 -157.5989502 51.185625 -156.87719727 51.28125 C-148.83642147 52.22316705 -140.77206191 52.24346456 -132.6875 52.25 C-131.93499969 52.25067474 -131.18249939 52.25134949 -130.40719604 52.25204468 C-118.0593164 52.23451415 -106.11333666 51.57471758 -94 49 C-93.20142578 48.83371094 -92.40285156 48.66742187 -91.58007812 48.49609375 C-61.69154594 42.03500192 -37.1122405 25.51418732 -15.11328125 4.8046875 C-10.00475031 0.44213427 -6.60875967 -0.85274318 0 0 Z " fill="#E72D10" transform="translate(559,662)"/>
<path d="M0 0 C7.41002816 5.97871488 12.1533118 11.37233289 14.94140625 20.56640625 C15.43640625 22.05140625 15.43640625 22.05140625 15.94140625 23.56640625 C17.13150864 36.40966293 16.40472788 47.80492546 8.56640625 58.44140625 C2.89123976 65.20099946 -4.13750333 70.96676245 -13.05859375 72.56640625 C-26.7268722 73.30523211 -38.08012145 72.6063375 -49.05859375 63.56640625 C-57.13443421 56.20778075 -61.15883108 47.42560791 -62.26171875 36.56640625 C-62.51177938 25.89715267 -60.15570884 15.71266009 -53.05859375 7.56640625 C-39.20313876 -6.80221374 -17.46352852 -12.21353247 0 0 Z M-39.05859375 16.56640625 C-44.18256395 23.89849621 -45.06106487 30.78070427 -44.05859375 39.56640625 C-42.83558025 46.10357575 -39.32030182 50.58855495 -34.05859375 54.56640625 C-28.83647838 57.51167932 -23.97041741 58.12943707 -18.05859375 57.56640625 C-12.6717269 55.74034969 -7.76195728 53.62328424 -4.8984375 48.484375 C-0.91777132 39.88099971 0.28642757 32.08643056 -2.62109375 22.94140625 C-4.68514095 17.70134276 -7.17875131 14.41212489 -12.05859375 11.56640625 C-21.51687313 7.85065364 -31.88232144 9.00222733 -39.05859375 16.56640625 Z " fill="#000000" transform="translate(452.05859375,382.43359375)"/>
<path d="M0 0 C1.20052002 0.1330957 2.40104004 0.26619141 3.63793945 0.40332031 C42.3781785 4.92854063 78.41972383 17.01244448 114.5625 31.125 C133.91256449 38.66123162 153.48806517 44.5197515 173.8125 48.8125 C174.64942383 48.99329102 175.48634766 49.17408203 176.34863281 49.36035156 C198.67404772 53.97213132 223.06395092 52.8343741 245.67651367 50.82714844 C248.8125 50.8125 248.8125 50.8125 251.8125 52.8125 C251.4825 55.1225 251.1525 57.4325 250.8125 59.8125 C249.31529178 60.30031989 247.81452636 60.77722363 246.3125 61.25 C245.05953125 61.65025391 245.05953125 61.65025391 243.78125 62.05859375 C234.93866 64.30414621 225.87585082 64.05520888 216.8125 64.0625 C215.68151382 64.06351212 215.68151382 64.06351212 214.52767944 64.06454468 C201.10758862 64.04555942 188.04633469 63.16949886 174.8125 60.8125 C173.90661133 60.65152832 173.00072266 60.49055664 172.06738281 60.32470703 C142.87175166 54.92252928 114.96878107 45.06326533 87.32910156 34.47851562 C54.27933623 21.83322366 20.74863719 12.62458057 -14.60693359 9.7487793 C-15.78980957 9.65121338 -16.97268555 9.55364746 -18.19140625 9.453125 C-19.23111572 9.37610352 -20.2708252 9.29908203 -21.34204102 9.21972656 C-24.5129216 8.76592744 -27.8460407 8.1539593 -30.1875 5.8125 C-30.4375 3.375 -30.4375 3.375 -30.1875 0.8125 C-22.53572691 -4.28868206 -8.83705014 -0.98466516 0 0 Z " fill="#1C5CB5" transform="translate(500.1875,379.1875)"/>
<path d="M0 0 C0.68198456 0.00027191 1.36396912 0.00054382 2.06661987 0.00082397 C48.55988112 0.08476744 92.81640941 7.86171053 136.6875 23.1875 C138.3880957 23.7738623 138.3880957 23.7738623 140.12304688 24.37207031 C145.98861328 26.47134379 151.67404829 28.82994639 157.26953125 31.5625 C158.34436768 32.08585937 159.4192041 32.60921875 160.52661133 33.1484375 C163 35.1875 163 35.1875 163.8581543 38.9140625 C163.92836792 40.53441406 163.92836792 40.53441406 164 42.1875 C160.60054668 44.45380222 159.18478725 44.31390396 155.25732422 43.69970703 C151.19053943 42.77691723 147.41494291 41.19714615 143.5625 39.625 C99.35612021 22.27182433 53.36540299 13.48135943 6 12.1875 C4.69933594 12.14496094 3.39867187 12.10242188 2.05859375 12.05859375 C-1.63483953 11.99439734 -5.30977441 12.04817023 -9 12.1875 C-9.91362305 12.22182129 -10.82724609 12.25614258 -11.76855469 12.29150391 C-28.28467566 13.00721983 -44.31871315 15.14717242 -60.56518555 18.06689453 C-80.06469043 21.5650221 -80.06469043 21.5650221 -85 21.1875 C-86.80859375 19.85180664 -86.80859375 19.85180664 -88 18.1875 C-88.1875 15.6875 -88.1875 15.6875 -87 13.1875 C-60.34404463 1.84767368 -28.59418203 -0.0196107 0 0 Z " fill="#9B2390" transform="translate(490,261.8125)"/>
<path d="M0 0 C0.71510742 0.05876312 1.43021484 0.11752625 2.16699219 0.17807007 C9.93386905 0.83487437 17.07905105 1.81260621 24.375 4.6875 C25 7 25 7 25.375 9.6875 C23.375 12.6875 23.375 12.6875 20.38549805 13.43237305 C15.61423474 13.92197151 10.95322335 13.2923826 6.20703125 12.76953125 C-6.29671974 11.54718909 -18.7284606 11.34912619 -31.28491211 11.37182617 C-34.9239702 11.37498824 -38.56221312 11.3513999 -42.20117188 11.32617188 C-100.68589604 11.16793385 -159.00807801 26.67156108 -203.625 65.6875 C-207.0112938 68.53099989 -209.47155761 70.55933973 -214 71.0625 C-216.625 70.6875 -216.625 70.6875 -217.625 69.6875 C-218.13058606 66.71553324 -218.24783462 64.61172393 -216.51806641 62.04492188 C-214.89494823 60.25309249 -213.20223433 58.59015482 -211.4375 56.9375 C-210.48182129 56.01843872 -210.48182129 56.01843872 -209.50683594 55.08081055 C-154.87194817 3.37520787 -71.85338922 -6.14831016 0 0 Z " fill="#712B9C" transform="translate(511.625,309.3125)"/>
<path d="M0 0 C1.15483887 0.01885254 1.15483887 0.01885254 2.33300781 0.03808594 C24.87653794 0.4829643 47.71956143 3.03432635 69.8125 7.5625 C70.78364746 7.76004883 71.75479492 7.95759766 72.75537109 8.16113281 C77.27584228 9.15297305 81.30997375 10.04497898 85 13 C85.9375 16.0625 85.9375 16.0625 86 19 C84 21 84 21 80.05078125 21.23828125 C74.65543693 21.1146581 69.48132944 20.17412375 64.1875 19.1875 C54.92374674 17.55109068 45.66816639 16.29456572 36.3125 15.3125 C35.18030029 15.19350342 34.04810059 15.07450684 32.8815918 14.9519043 C29.58912695 14.61717962 26.29547469 14.30356655 23 14 C21.99461182 13.90356201 20.98922363 13.80712402 19.95336914 13.70776367 C-8.37955981 11.22658716 -36.95032054 12.5389885 -65 17 C-66.08974121 17.17128418 -67.17948242 17.34256836 -68.30224609 17.51904297 C-90.76092865 21.22008595 -113.05879708 28.68322105 -133.61987305 38.39550781 C-139.33502801 41.03099071 -139.33502801 41.03099071 -142.93359375 40.86328125 C-145 40 -145 40 -147 38 C-146.9375 35.625 -146.9375 35.625 -146 33 C-112.12979676 2.3555304 -43.10792591 -0.87746753 0 0 Z " fill="#932590" transform="translate(487,284)"/>
<path d="M0 0 C3.25 0.9375 3.25 0.9375 5.25 3.9375 C5.10326651 7.38115165 4.73912023 9.32949638 2.5625 12.03515625 C-5.62824886 18.99452564 -14.12622074 25.52480362 -22.75 31.9375 C-23.84175537 32.75057617 -23.84175537 32.75057617 -24.95556641 33.58007812 C-66.37956047 64.29463451 -123.82284864 99.51466765 -177.38671875 98.30859375 C-179.75 97.9375 -179.75 97.9375 -182.75 95.9375 C-183.1634579 93.25002367 -183.26021753 91.67156468 -181.68212891 89.40112305 C-178.88471934 87.28203405 -175.82155201 86.71378642 -172.4609375 85.95703125 C-170.95897163 85.59827925 -169.45701905 85.23947163 -167.95507812 84.88061523 C-167.16689697 84.69651093 -166.37871582 84.51240662 -165.56665039 84.32272339 C-137.54776885 77.75050124 -110.21915517 69.37200369 -84.66455078 55.94189453 C-82.70858479 54.91577312 -80.74368729 53.90841361 -78.77734375 52.90234375 C-72.38704474 49.60240922 -66.257675 46.14502916 -60.44140625 41.890625 C-58.38650249 40.39940311 -56.3216326 38.96142527 -54.21484375 37.546875 C-43.68720006 30.46718996 -33.69044132 22.81474549 -23.75 14.9375 C-21.76925362 13.36999611 -19.78807573 11.8030601 -17.80517578 10.23828125 C-16.64785779 9.32419725 -15.4924081 8.40773986 -14.33935547 7.48828125 C-4.78152704 -0.07969212 -4.78152704 -0.07969212 0 0 Z " fill="#D1171F" transform="translate(701.75,708.0625)"/>
<path d="M0 0 C2 3 2 3 1.82421875 5.4609375 C-1.15019057 14.62380981 -13.55281379 21.31061479 -21 27 C-22.36209943 28.04541624 -23.7240762 29.09099231 -25.0859375 30.13671875 C-27.93269322 32.31972828 -30.78331524 34.49756291 -33.63671875 36.671875 C-36.54005458 38.88431179 -39.43832818 41.10310462 -42.33203125 43.328125 C-56.58679363 54.28212515 -71.11914588 64.83101817 -85.70166016 75.34277344 C-88.72105626 77.51992032 -91.73878807 79.69936525 -94.75610352 81.87939453 C-96.25479201 82.96178972 -97.75398035 84.04349315 -99.25366211 85.12451172 C-102.98975229 87.81864022 -106.71759474 90.52288196 -110.4296875 93.25 C-156.06994968 126.69442095 -156.06994968 126.69442095 -171 126 C-171.33 125.01 -171.66 124.02 -172 123 C-168.51205346 119.27909228 -165.0349202 116.58886438 -160.6875 113.9375 C-152.41979989 108.77224804 -144.73075399 102.92703164 -137 97 C-135.5549742 95.89806143 -134.10965838 94.79650309 -132.6640625 93.6953125 C-127.31951436 89.61951049 -121.97619899 85.54215426 -116.671875 81.4140625 C-109.95801896 76.20154613 -103.13031656 71.19243426 -96.22167969 66.24267578 C-89.25560443 61.23007332 -82.43641472 56.03536924 -75.625 50.81542969 C-69.86425878 46.40526224 -64.05479917 42.07419315 -58.18774414 37.80688477 C-53.60858617 34.46858807 -49.11185927 31.03353472 -44.63525391 27.55932617 C-41.26244583 24.94870812 -37.84150993 22.42199579 -34.375 19.9375 C-29.64563787 16.52795986 -25.14107499 12.89742159 -20.6484375 9.18359375 C-18.11782473 7.09714458 -15.57202659 5.03514725 -13 3 C-12.29875 2.443125 -11.5975 1.88625 -10.875 1.3125 C-7.08185999 -1.34269801 -4.34797026 -1.11012007 0 0 Z " fill="#DF2119" transform="translate(756,640)"/>
<path d="M0 0 C0.70253906 0.00386719 1.40507812 0.00773437 2.12890625 0.01171875 C2.83144531 0.00785156 3.53398437 0.00398438 4.2578125 0 C9.50229247 0.01010497 9.50229247 0.01010497 10.62890625 1.13671875 C10.71590967 2.77144757 10.73591688 4.4098593 10.7265625 6.046875 C10.72333984 7.03623047 10.72011719 8.02558594 10.71679688 9.04492188 C10.70841797 10.08583984 10.70003906 11.12675781 10.69140625 12.19921875 C10.68689453 13.24400391 10.68238281 14.28878906 10.67773438 15.36523438 C10.66590552 17.95575329 10.64796944 20.54624297 10.62890625 23.13671875 C16.56890625 23.13671875 22.50890625 23.13671875 28.62890625 23.13671875 C28.62890625 28.08671875 28.62890625 33.03671875 28.62890625 38.13671875 C22.68890625 38.13671875 16.74890625 38.13671875 10.62890625 38.13671875 C10.60590179 43.58110802 10.58600271 49.02532735 10.57397461 54.46972656 C10.56895814 56.32031833 10.56214343 58.17090615 10.5534668 60.02148438 C10.54128335 62.68750992 10.53565097 65.35348287 10.53125 68.01953125 C10.52608871 68.84164093 10.52092743 69.66375061 10.51560974 70.51077271 C10.51553421 71.29112885 10.51545868 72.07148499 10.51538086 72.87548828 C10.51204994 73.89474899 10.51204994 73.89474899 10.50865173 74.93460083 C10.65911567 77.68991799 11.17526 80.41484125 11.62890625 83.13671875 C17.23890625 83.79671875 22.84890625 84.45671875 28.62890625 85.13671875 C28.62890625 89.75671875 28.62890625 94.37671875 28.62890625 99.13671875 C18.71175588 100.78957714 8.64339999 101.65922129 -0.15234375 95.98828125 C-5.07473149 91.81390341 -6.21643578 86.27208652 -7.37109375 80.13671875 C-7.72352822 75.70921826 -7.70424059 71.32531144 -7.62109375 66.88671875 C-7.61013672 65.70682373 -7.59917969 64.52692871 -7.58789062 63.3112793 C-7.48149175 54.89478166 -7.15729846 46.51822256 -6.37109375 38.13671875 C-7.65306641 38.15412109 -7.65306641 38.15412109 -8.9609375 38.171875 C-10.06566406 38.18089844 -11.17039062 38.18992187 -12.30859375 38.19921875 C-13.41074219 38.21082031 -14.51289063 38.22242188 -15.6484375 38.234375 C-18.37109375 38.13671875 -18.37109375 38.13671875 -19.37109375 37.13671875 C-19.44381116 34.7835832 -19.45480243 32.42838207 -19.43359375 30.07421875 C-19.42457031 28.78386719 -19.41554688 27.49351562 -19.40625 26.1640625 C-19.39464844 25.16503906 -19.38304687 24.16601562 -19.37109375 23.13671875 C-15.41109375 23.13671875 -11.45109375 23.13671875 -7.37109375 23.13671875 C-7.28021484 20.77193359 -7.28021484 20.77193359 -7.1875 18.359375 C-7.10311388 16.30597932 -7.01846492 14.25259444 -6.93359375 12.19921875 C-6.87461914 10.6378418 -6.87461914 10.6378418 -6.81445312 9.04492188 C-6.77255859 8.05556641 -6.73066406 7.06621094 -6.6875 6.046875 C-6.65084229 5.13043213 -6.61418457 4.21398926 -6.57641602 3.26977539 C-6.17008965 -0.95147723 -3.69144215 0.00711261 0 0 Z " fill="#000000" transform="translate(357.37109375,354.86328125)"/>
<path d="M0 0 C2.40832094 3.61248141 2.72360855 4.73874968 2 9 C-2.8158888 16.98561924 -11.62313013 22.53288741 -19 28 C-19.65291016 28.4851709 -20.30582031 28.9703418 -20.97851562 29.47021484 C-53.88329221 53.73228113 -90.06758426 71.50532588 -130.3125 79.375 C-131.16585938 79.54290039 -132.01921875 79.71080078 -132.8984375 79.88378906 C-138.01028221 80.82150067 -142.80182049 81.33167702 -148 81 C-150.5 79 -150.5 79 -152 77 C-150.52313647 71.33868981 -150.52313647 71.33868981 -148.2578125 69.87207031 C-145.71241602 68.88892193 -143.31543526 68.38164459 -140.625 67.921875 C-139.03969482 67.64053711 -139.03969482 67.64053711 -137.42236328 67.35351562 C-136.2929834 67.15435547 -135.16360352 66.95519531 -134 66.75 C-92.81215205 59.02550879 -58.21341651 39.3244013 -26 13 C-23.59212324 11.05133572 -21.17318864 9.11707614 -18.75 7.1875 C-18.17088867 6.71876465 -17.59177734 6.2500293 -16.99511719 5.76708984 C-6.95144654 -2.2118239 -6.95144654 -2.2118239 0 0 Z " fill="#E22815" transform="translate(594,670)"/>
<path d="M0 0 C2.5625 0.9375 2.5625 0.9375 3.5625 2.9375 C3.9375 5.75 3.9375 5.75 3.5625 8.9375 C-27.00473585 42.72799446 -88.74904005 69.61252742 -133.765625 72.2890625 C-135.73940794 72.38393057 -137.71337714 72.47498999 -139.6875 72.5625 C-140.66074219 72.6140625 -141.63398438 72.665625 -142.63671875 72.71875 C-161.09080726 73.55200234 -161.09080726 73.55200234 -166.4375 68.9375 C-166.0625 66 -166.0625 66 -165.4375 62.9375 C-162.80314 61.62032 -160.6537713 61.69083304 -157.70703125 61.54296875 C-103.8263597 58.53371492 -58.76926661 39.15901258 -15.19921875 7.59375 C-12.55651762 5.7067011 -9.89053625 3.86605238 -7.171875 2.08984375 C-6.53862305 1.67468506 -5.90537109 1.25952637 -5.25292969 0.83178711 C-3.4375 -0.0625 -3.4375 -0.0625 0 0 Z " fill="#C9182E" transform="translate(604.4375,723.0625)"/>
<path d="M0 0 C23.70501981 6.18548863 46.50011927 15.21112402 69.35693359 23.93386841 C86.16556898 30.34222238 103.04006381 36.52101035 120.42797852 41.20019531 C121.68723145 41.54131348 122.94648437 41.88243164 124.24389648 42.23388672 C125.39962158 42.53705811 126.55534668 42.84022949 127.74609375 43.15258789 C130.58122899 44.15682127 131.92927904 44.78497908 133.67749023 47.19091797 C133.98999023 49.75341797 133.98999023 49.75341797 133.67749023 52.19091797 C131.67749023 54.19091797 131.67749023 54.19091797 129.84960938 54.45654297 C116.40042992 54.3609999 103.1793573 49.84537933 90.53686523 45.59326172 C89.5074028 45.24843246 88.47794037 44.90360321 87.4172821 44.54832458 C76.75981338 40.94029035 66.24324993 36.97532787 55.72616577 32.98031616 C31.59482385 23.83164685 7.4979237 15.46764966 -17.54248047 9.12719727 C-26.77847483 6.7349529 -26.77847483 6.7349529 -30.32250977 3.19091797 C-30.63500977 0.81591797 -30.63500977 0.81591797 -30.32250977 -1.80908203 C-23.14678943 -8.7030069 -8.43615946 -2.13118165 0 0 Z " fill="#62309F" transform="translate(579.322509765625,320.80908203125)"/>
<path d="M0 0 C2 2 2 2 2.3515625 5.06640625 C1.91784363 9.91923847 0.34434055 13.52807255 -1.625 17.9375 C-4.87390937 25.56939229 -7.19660067 33.10984986 -9.0625 41.1875 C-14.18955201 63.03644257 -23.7424085 80.77665372 -38 98 C-38.86818359 99.0828125 -38.86818359 99.0828125 -39.75390625 100.1875 C-42.79549525 103.90039338 -46.15702755 107.02848744 -49.8203125 110.125 C-51.32707869 111.42114296 -52.79958883 112.75779847 -54.2421875 114.125 C-58.94484264 118.56553994 -63.83377209 122.51077103 -69.1875 126.125 C-69.75742676 126.5276709 -70.32735352 126.9303418 -70.91455078 127.34521484 C-74.13559702 129.44080167 -75.92284269 130.00269614 -79.80078125 129.8671875 C-83 129 -83 129 -85 127 C-85.63515228 121.46510152 -85.63515228 121.46510152 -85 119 C-81.45087944 114.73300439 -77.35085054 112.27940435 -72.625 109.5625 C-43.38867028 91.99363149 -29.90970033 64.17585966 -21.04754639 32.49841309 C-11.5499306 -1.22871602 -11.5499306 -1.22871602 0 0 Z " fill="#148EAC" transform="translate(342,448)"/>
<path d="M0 0 C2.5625 0.5625 2.5625 0.5625 3.5625 1.5625 C3.5625 5.12902438 3.49439229 7.43843783 1.1796875 10.23046875 C-0.03422208 11.37633407 -1.25481413 12.51514382 -2.48046875 13.6484375 C-15.37008968 26.25505278 -21.30733265 45.14945168 -25.18408203 62.19287109 C-31.41028914 89.3859637 -44.52161354 109.55558229 -67.4375 125.5625 C-69.65045616 126.66897808 -70.98422699 126.75838368 -73.4375 126.8125 C-74.13875 126.83828125 -74.84 126.8640625 -75.5625 126.890625 C-76.18125 126.78234375 -76.8 126.6740625 -77.4375 126.5625 C-79.4375 123.5625 -79.4375 123.5625 -79.37890625 120.15625 C-78.23884996 115.80416791 -76.9516548 114.69948345 -73.375 112.0625 C-72.37597656 111.29808594 -71.37695312 110.53367187 -70.34765625 109.74609375 C-69.38730469 109.02550781 -68.42695313 108.30492187 -67.4375 107.5625 C-51.78033047 94.86372614 -42.44160908 79.73554814 -36.9609375 60.43359375 C-31.65946118 41.84301909 -25.22551596 22.65466337 -11.4375 8.5625 C-10.73625 7.76328125 -10.035 6.9640625 -9.3125 6.140625 C-4.37398703 0.71574333 -4.37398703 0.71574333 0 0 Z " fill="#116FBD" transform="translate(334.4375,421.4375)"/>
<path d="M0 0 C31.55384151 9.54672136 63.32290452 10.68221494 95.66796875 5.109375 C100.9933047 4.25983839 106.30208221 3.42514464 111 6.375 C112.3125 8.6875 112.3125 8.6875 112.375 11.25 C110.91624854 14.59654746 109.61783146 15.09573301 106.3125 16.6875 C102.9290388 17.5922974 99.51067426 18.20798137 96.0625 18.8125 C95.15886719 18.98136719 94.25523437 19.15023438 93.32421875 19.32421875 C84.6875296 20.90243389 76.20290283 21.8399602 67.421875 21.890625 C66.19391457 21.90114647 66.19391457 21.90114647 64.94114685 21.91188049 C62.31487459 21.92928065 59.68882778 21.93573232 57.0625 21.9375 C55.71691513 21.93851212 55.71691513 21.93851212 54.34414673 21.93954468 C41.12916344 21.92373604 28.25851019 21.59442974 15.3125 18.6875 C14.48540527 18.50525879 13.65831055 18.32301758 12.80615234 18.13525391 C-10.58798539 12.82666948 -10.58798539 12.82666948 -18.6875 5.6875 C-19.1875 2.6875 -19.1875 2.6875 -18.6875 -0.3125 C-14.08122177 -6.02428501 -5.91430915 -1.87759206 0 0 Z " fill="#008DA3" transform="translate(644.6875,448.3125)"/>
<path d="M0 0 C2.94681767 2.03425478 5.43406252 4.51195705 8 7 C33.2683114 30.51831011 63.99868227 46.96368484 98.44970703 51.58300781 C103.64071779 52.32811146 107.32659768 52.91247717 111 57 C111.4375 60.125 111.4375 60.125 111 63 C108.51713242 65.48286758 107.47604115 65.63927875 104 66 C101.15841265 65.69534084 98.43000323 65.31681707 95.625 64.8125 C94.42254639 64.60004639 94.42254639 64.60004639 93.19580078 64.38330078 C57.29997338 57.82506689 25.70161533 41.72208866 -1 17 C-1.71027344 16.37867188 -2.42054688 15.75734375 -3.15234375 15.1171875 C-6.38416884 12.16955153 -7.83915335 10.53615551 -9.125 6.25 C-9 3 -9 3 -7.9375 1.0625 C-4.90373307 -0.60117864 -3.44100291 -0.64924583 0 0 Z " fill="#EA5C0C" transform="translate(305,637)"/>
<path d="M0 0 C0.99 2.475 0.99 2.475 2 5 C1.04330408 6.10558569 0.08447479 7.20932507 -0.875 8.3125 C-1.51566406 9.04984375 -2.15632813 9.7871875 -2.81640625 10.546875 C-4.2953859 12.20841206 -5.80453891 13.84348987 -7.33984375 15.453125 C-23.88817478 32.91645064 -33.75291344 54.20710943 -41.90942383 76.57226562 C-47.39559032 91.5296693 -54.20645481 107.8043032 -68 117 C-71.5625 117.25 -71.5625 117.25 -75 117 C-77 115 -77 115 -77.3984375 111.6796875 C-76.9132017 107.19839217 -75.86346056 106.16417068 -72.625 103.125 C-60.59139478 90.85325426 -54.82914768 75.14340332 -48.58984375 59.41796875 C-42.27063388 43.57723112 -20.98933004 -3.57265192 0 0 Z " fill="#3252B2" transform="translate(331,400)"/>
<path d="M0 0 C0.69699005 0.08099945 1.3939801 0.1619989 2.11209106 0.24545288 C6.83535434 0.8028358 11.54509024 1.42960615 16.25 2.125 C16.97517822 2.23138794 17.70035645 2.33777588 18.44750977 2.4473877 C20.64085304 2.77994849 22.82809942 3.13907606 25.015625 3.5078125 C26.30758789 3.72066895 27.59955078 3.93352539 28.93066406 4.15283203 C32.51583556 5.20285799 34.02447786 6.15880725 36.25 9.125 C36.25 11.75 36.25 11.75 35.25 14.125 C28.95302176 18.38514245 19.34078992 15.34395911 12.37817383 14.12890625 C-26.01537529 7.48822997 -66.90220011 5.997013 -104.91113281 15.67529297 C-106.99987513 16.1861086 -108.85334402 16.2232776 -111 16.1875 C-112.85625 16.1565625 -112.85625 16.1565625 -114.75 16.125 C-115.41 14.475 -116.07 12.825 -116.75 11.125 C-112.98248188 6.66650967 -107.43568521 6.05775775 -102 4.625 C-100.83782959 4.31675293 -99.67565918 4.00850586 -98.47827148 3.69091797 C-87.31840479 0.84007309 -76.21083769 -0.85216945 -64.75 -1.875 C-63.96173828 -1.94944336 -63.17347656 -2.02388672 -62.36132812 -2.10058594 C-41.57944284 -3.9583336 -20.66767585 -2.42665277 0 0 Z " fill="#682F9F" transform="translate(500.75,355.875)"/>
<path d="M0 0 C2.9375 0.8125 2.9375 0.8125 4.9375 2.8125 C4.98978119 9.63519473 1.62737602 13.64812388 -2.4375 18.875 C-3.07091309 19.70918457 -3.70432617 20.54336914 -4.35693359 21.40283203 C-6.2461896 23.88268859 -8.15359051 26.34776099 -10.0625 28.8125 C-11.04801877 30.109809 -12.03250264 31.40790527 -13.015625 32.70703125 C-19.23613068 40.85846451 -25.95819384 48.42533341 -33.0625 55.8125 C-33.67254883 56.45509766 -34.28259766 57.09769531 -34.91113281 57.75976562 C-60.12907774 84.23416579 -60.12907774 84.23416579 -74.0625 86.8125 C-77.66065988 86.29847716 -79.20182092 85.86028322 -81.5 83.0625 C-82.334575 79.72420001 -82.22486157 78.10585778 -81.0625 74.8125 C-76.89163868 69.68397868 -71.01170113 66.49908536 -65.4375 63.125 C-46.61043114 51.66504504 -30.45595263 35.13513394 -17.34472656 17.53125 C-15.54917526 15.12441809 -13.72298675 12.74161882 -11.89404297 10.36010742 C-10.6428843 8.7297472 -9.39930146 7.09358114 -8.15625 5.45703125 C-3.65842881 -0.22398544 -3.65842881 -0.22398544 0 0 Z " fill="#2DA76E" transform="translate(349.0625,545.1875)"/>
<path d="M0 0 C2 2 2 2 2.5625 5.25 C1.87048133 9.8634578 0.6789628 10.76825535 -2.890625 13.48828125 C-3.93476563 14.23658203 -3.93476563 14.23658203 -5 15 C-20.70445538 26.83828221 -34.47668083 40.27463954 -45 57 C-45.5873291 57.92401611 -45.5873291 57.92401611 -46.18652344 58.86669922 C-53.15729657 70.0362257 -57.88411118 81.88147761 -62.24560547 94.25 C-62.67760254 95.45398438 -63.10959961 96.65796875 -63.5546875 97.8984375 C-63.93093262 98.97786621 -64.30717773 100.05729492 -64.69482422 101.16943359 C-66.0808211 104.17527867 -67.43898946 105.92055777 -70 108 C-72.1875 107.875 -72.1875 107.875 -74 107 C-78.06426874 98.87146252 -72.57789499 84.63847039 -69.85693359 76.39550781 C-65.2039262 63.3882974 -58.60913684 51.76142106 -50 41 C-49.56429688 40.45150391 -49.12859375 39.90300781 -48.6796875 39.33789062 C-38.16610418 26.22665295 -26.49378705 15.00735403 -13 5 C-12.38697021 4.53440674 -11.77394043 4.06881348 -11.14233398 3.58911133 C-7.22396754 0.67524246 -4.96084124 -0.80757881 0 0 Z " fill="#5C37A2" transform="translate(333,370)"/>
<path d="M0 0 C18.29841415 0.18018132 36.54910265 4.96072845 53.9375 10.3125 C55.61126709 10.82659424 55.61126709 10.82659424 57.31884766 11.35107422 C72.10117764 15.95553888 86.53059911 21.15751942 100.8125 27.125 C101.79668411 27.53360764 101.79668411 27.53360764 102.80075073 27.95046997 C119.57521006 34.95021006 119.57521006 34.95021006 123.9375 39.3125 C124.39916551 43.69832239 124.39916551 43.69832239 122.68188477 45.98291016 C120.45617925 47.67936813 119.51728096 47.57845661 116.77734375 47.2109375 C111.99126347 46.49124069 107.88841903 44.92304805 103.5 42.9375 C101.82032105 42.20831363 100.14063305 41.47914811 98.4609375 40.75 C96.6193097 39.93859302 94.7781832 39.12604754 92.9375 38.3125 C63.62139551 25.37001172 33.80865313 14.36626878 1.83520508 10.38696289 C-3.57341015 9.65420577 -3.57341015 9.65420577 -6.09765625 7.890625 C-7.0625 6.3125 -7.0625 6.3125 -6.8125 3.6875 C-5.52342112 -0.39458311 -4.08989596 0.10238211 0 0 Z " fill="#1C5AB1" transform="translate(487.0625,398.6875)"/>
<path d="M0 0 C1.19012695 0.34434082 2.38025391 0.68868164 3.60644531 1.04345703 C27.16502777 7.98121687 50.61409182 16.12040104 73.3125 25.5 C74.20743164 25.86851074 75.10236328 26.23702148 76.02441406 26.61669922 C89.84502109 32.53252109 89.84502109 32.53252109 94.25 36.9375 C94.4375 39.375 94.4375 39.375 94.25 41.9375 C92.25 43.9375 92.25 43.9375 89.0625 44.375 C76.38771043 43.99671104 62.60914442 36.4053784 50.96862793 31.8079834 C31.21950875 24.02617765 11.4741782 17.22780947 -8.9609375 11.46875 C-9.72245117 11.24735352 -10.48396484 11.02595703 -11.26855469 10.79785156 C-13.16603693 10.24804794 -15.07092809 9.72397085 -16.9765625 9.203125 C-20.34669964 7.66520326 -21.3336197 6.32426913 -22.75 2.9375 C-22.0625 0.1875 -22.0625 0.1875 -20.75 -2.0625 C-14.37708365 -5.24895818 -6.33438096 -1.84699149 0 0 Z " fill="#7A2998" transform="translate(605.75,303.0625)"/>
<path d="M0 0 C1.50889469 3.01778937 1.50026276 4.62322637 1 8 C-11.93089204 29.14248042 -42.14064644 43.02682243 -65.12890625 49.07421875 C-74.00335266 51.19656365 -82.89634927 52.42761477 -92 53 C-92.84046875 53.05414062 -93.6809375 53.10828125 -94.546875 53.1640625 C-100.36258018 53.3731238 -100.36258018 53.3731238 -103.5625 51.5 C-104.036875 51.005 -104.51125 50.51 -105 50 C-104.6875 46.625 -104.6875 46.625 -104 43 C-100.781864 40.854576 -99.13439292 40.5600984 -95.36328125 40.0703125 C-94.23607666 39.91699463 -93.10887207 39.76367676 -91.94750977 39.60571289 C-90.74795654 39.44707764 -89.54840332 39.28844238 -88.3125 39.125 C-73.50889846 37.03947712 -59.60309356 34.49756703 -46 28 C-45.07703125 27.55914063 -44.1540625 27.11828125 -43.203125 26.6640625 C-32.00629171 20.93912796 -23.33846258 12.64794363 -14.77026367 3.609375 C-13.92685425 2.73539063 -13.92685425 2.73539063 -13.06640625 1.84375 C-12.57084229 1.31974609 -12.07527832 0.79574219 -11.56469727 0.25585938 C-7.63314702 -2.89968665 -4.39651331 -1.85630562 0 0 Z " fill="#EA5910" transform="translate(532,651)"/>
<path d="M0 0 C2.86437559 1.09368409 5.64298008 2.36527892 8.4375 3.625 C34.52488452 14.9431325 62.54419764 20.90953121 91.0546875 18.703125 C92.11248413 18.62360596 92.11248413 18.62360596 93.19165039 18.54248047 C95.20832789 18.38322632 97.22338867 18.20387564 99.23828125 18.0234375 C103.38297023 17.99761389 106.12062124 18.6331213 110 20 C110.33 20.33 110.66 20.66 111 21 C110.71269945 23.33944736 110.38063221 25.6739143 110 28 C103.31443099 30.62470487 97.16161196 31.72583156 90 32 C89.32098633 32.02723145 88.64197266 32.05446289 87.94238281 32.08251953 C58.21180159 33.10971693 15.12698058 28.52491397 -8.84765625 8.453125 C-10 7 -10 7 -10.4375 4.5 C-10 2 -10 2 -8.375 0.125 C-5.10547447 -1.42372262 -3.52200198 -0.83062243 0 0 Z " fill="#1064BA" transform="translate(639,390)"/>
<path d="M0 0 C2.1171875 1.09375 2.1171875 1.09375 3.875 2.5 C4.76832031 3.19609375 4.76832031 3.19609375 5.6796875 3.90625 C6.33324219 4.44765625 6.33324219 4.44765625 7 5 C5.4614339 9.52020108 1.7712908 11.70346234 -1.9375 14.375 C-2.64044189 14.89175293 -3.34338379 15.40850586 -4.06762695 15.94091797 C-5.58224688 17.05328696 -7.09951978 18.16205076 -8.61914062 19.26757812 C-12.65404406 22.2035579 -16.66957704 25.16584858 -20.6875 28.125 C-21.4933252 28.71756592 -22.29915039 29.31013184 -23.12939453 29.9206543 C-29.82828673 34.85362396 -36.44063945 39.88288394 -43 45 C-43.61311035 45.47630859 -44.2262207 45.95261719 -44.85791016 46.44335938 C-46.78233064 47.93878741 -48.70411749 49.43753096 -50.625 50.9375 C-51.51409058 51.62912231 -51.51409058 51.62912231 -52.42114258 52.3347168 C-54.61501739 54.05494669 -56.74058604 55.72275901 -58.6484375 57.76171875 C-61.22159927 60.1192109 -64.63540219 60.10514368 -68 60 C-70 58.9375 -70 58.9375 -71 57 C-71.5625 54.25 -71.5625 54.25 -71 51 C-66.78612145 44.67918218 -60.66232302 40.45380353 -54.69921875 35.8828125 C-51.27558275 33.24569945 -48.00981561 30.45993613 -44.75 27.625 C-36.90016298 20.87535719 -28.49480974 14.90458287 -20 9 C-19.31599121 8.52127441 -18.63198242 8.04254883 -17.92724609 7.54931641 C-16.0466559 6.24344126 -14.15274268 4.96081633 -12.25 3.6875 C-11.18265625 2.96949219 -10.1153125 2.25148438 -9.015625 1.51171875 C-5.63183091 -0.18456145 -3.73209056 -0.50613283 0 0 Z " fill="#E63511" transform="translate(687,660)"/>
<path d="M0 0 C3.0625 0.3125 3.0625 0.3125 4.75 1.59765625 C6.0625 3.3125 6.0625 3.3125 6.125 7.0625 C5.39711127 11.88188961 3.66966987 16.1405848 1.77294922 20.61083984 C-0.45732562 25.92365016 -2.30882101 31.31804131 -4.11938477 36.78710938 C-9.58624282 53.22900074 -16.10817527 67.67729028 -26.9375 81.3125 C-27.60007812 82.21484375 -28.26265625 83.1171875 -28.9453125 84.046875 C-30.9375 86.3125 -30.9375 86.3125 -34.5 87.3125 C-37.9375 87.3125 -37.9375 87.3125 -39.9375 86.3125 C-41.15214449 83.88321102 -41.21529206 82.10469363 -40.703125 79.44921875 C-38.98222622 74.64650635 -35.7613247 70.52287336 -32.9375 66.3125 C-24.960857 54.21309769 -20.45540026 40.77588968 -15.828125 27.125 C-15.47999756 26.10253174 -15.13187012 25.08006348 -14.77319336 24.02661133 C-14.10966361 22.06388684 -13.45619385 20.0977214 -12.81469727 18.12768555 C-6.97829876 0.74237221 -6.97829876 0.74237221 0 0 Z " fill="#028CB4" transform="translate(358.9375,465.6875)"/>
<path d="M0 0 C1.38949513 0.46849351 2.77856583 0.93824748 4.16723633 1.40917969 C4.88295807 1.64922729 5.59867981 1.8892749 6.33609009 2.13659668 C20.09984419 6.76939133 33.35436667 12.241677 46.47973633 18.47167969 C47.65028564 19.02178711 47.65028564 19.02178711 48.84448242 19.58300781 C61.04640161 25.34890014 61.04640161 25.34890014 63.47973633 28.47167969 C63.85473633 31.53417969 63.85473633 31.53417969 63.47973633 34.47167969 C59.92104955 36.84413754 57.58749488 37.20856051 53.47973633 36.47167969 C49.67647453 35.0514459 46.09732294 33.24488558 42.47973633 31.40917969 C40.4108896 30.39061797 38.34187929 29.37238846 36.27270508 28.35449219 C35.27416504 27.85723633 34.275625 27.35998047 33.24682617 26.84765625 C17.07913992 18.8080339 0.48309147 11.77970201 -16.78515625 6.46166992 C-20.53718374 5.2778473 -23.55804611 4.10219059 -26.52026367 1.47167969 C-26.14526367 -1.46582031 -26.14526367 -1.46582031 -25.52026367 -4.52832031 C-18.71604487 -7.93042971 -6.92913457 -2.29388979 0 0 Z " fill="#066CB7" transform="translate(523.520263671875,426.5283203125)"/>
<path d="M0 0 C1.47901666 2.77315624 1.38601984 4.78684125 1 7.875 C-1.2200837 10.76280489 -3.51154447 11.58040721 -6.9453125 12.6015625 C-7.93144531 12.90610352 -8.91757812 13.21064453 -9.93359375 13.52441406 C-10.98675781 13.84635742 -12.03992188 14.16830078 -13.125 14.5 C-28.44225816 19.42470845 -41.19703173 25.86939051 -53.73828125 35.97753906 C-59.66341184 40.69970733 -59.66341184 40.69970733 -64 40.875 C-66.8125 39.8125 -66.8125 39.8125 -69 37.875 C-69.625 35.0625 -69.625 35.0625 -69 31.875 C-65.58517635 27.22072184 -61.87429797 23.9279411 -57.125 20.6875 C-56.44445557 20.22263184 -55.76391113 19.75776367 -55.06274414 19.27880859 C-43.93815818 11.94772982 -13.74917201 -7.73390925 0 0 Z " fill="#C2B014" transform="translate(769,546.125)"/>
<path d="M0 0 C0.99 0.66 1.98 1.32 3 2 C3.66047583 8.05436173 3.66047583 8.05436173 1.89282227 10.58520508 C-0.78141232 12.58406867 -3.45792095 13.26708968 -6.66015625 14.19921875 C-8.01710388 14.60368394 -9.37395234 15.00848195 -10.73071289 15.41357422 C-11.43890167 15.62141541 -12.14709045 15.82925659 -12.8767395 16.043396 C-27.04569556 20.21873055 -40.9610291 24.65366502 -53.76171875 32.1953125 C-57.27123087 34.15115641 -59.05806057 34.71671626 -63 34 C-64.9375 32.4375 -64.9375 32.4375 -66 30 C-65.93423905 26.31738692 -65.74645396 23.94093948 -63.42578125 21.015625 C-60.30503962 18.422545 -56.94202227 16.84803342 -53.25 15.25 C-52.47575684 14.91073486 -51.70151367 14.57146973 -50.90380859 14.22192383 C-14.04986732 -1.49466674 -14.04986732 -1.49466674 0 0 Z " fill="#7CAC28" transform="translate(766,521)"/>
<path d="M0 0 C4.99602724 0.05914792 9.07158641 1.30374795 13.734375 2.984375 C29.69590432 8.32010873 45.57610567 10.63502494 62.36743164 11.46386719 C63.41664795 11.52348633 64.46586426 11.58310547 65.546875 11.64453125 C66.47628906 11.68715088 67.40570313 11.72977051 68.36328125 11.77368164 C71.49649143 12.32438652 73.45310353 13.31981845 75.984375 15.234375 C76.421875 18.296875 76.421875 18.296875 75.984375 21.234375 C73.12813629 24.09061371 70.91432214 23.52186122 67.00439453 23.56396484 C66.04903809 23.5583252 65.09368164 23.55268555 64.109375 23.546875 C63.11921387 23.54123535 62.12905273 23.5355957 61.10888672 23.52978516 C42.41169207 23.2286503 7.84775693 21.09775693 -6.015625 7.234375 C-5.28699468 0.09379783 -5.28699468 0.09379783 0 0 Z " fill="#D2201F" transform="translate(356.015625,727.765625)"/>
<path d="M0 0 C2.4664769 1.56210203 2.89160004 2.54231129 3.5625 5.375 C2.88590837 8.53242761 1.62918392 9.8421777 -0.92944336 11.7565918 C-9.39669396 16.84133503 -19.27002882 19.47183799 -28.6875 22.1875 C-29.84572266 22.52974609 -31.00394531 22.87199219 -32.19726562 23.22460938 C-49.42399986 28.26252427 -49.42399986 28.26252427 -56.375 28.375 C-57.18710937 28.40335938 -57.99921875 28.43171875 -58.8359375 28.4609375 C-61 28 -61 28 -62.796875 26.19921875 C-64.61734966 22.87153292 -63.91347417 20.58864854 -63 17 C-60.76763096 14.07506514 -58.88694008 13.52330472 -55.30859375 13.0078125 C-53.90456299 12.79040405 -53.90456299 12.79040405 -52.47216797 12.56860352 C-51.47072754 12.42221436 -50.46928711 12.2758252 -49.4375 12.125 C-35.3348508 9.86429524 -21.94000751 6.56812492 -8.796875 0.91796875 C-5.68506475 -0.10336562 -3.2552797 -0.2489874 0 0 Z " fill="#3BA252" transform="translate(764,496)"/>
<path d="M0 0 C4.96029552 1.03609306 9.78196009 2.50750914 14.61865234 4.0078125 C15.75979492 4.36166016 16.9009375 4.71550781 18.07666016 5.08007812 C57.02144253 17.46519132 57.02144253 17.46519132 68.43115234 30.5078125 C68.93115234 33.6953125 68.93115234 33.6953125 68.43115234 36.5078125 C65.43115234 38.5078125 65.43115234 38.5078125 62.64599609 38.390625 C58.89385024 37.3602666 56.13168823 35.58860208 52.99365234 33.3828125 C38.0816275 23.42826904 21.61990021 18.22459793 4.60302734 13.02734375 C3.49399048 12.68727295 3.49399048 12.68727295 2.36254883 12.34033203 C0.98659046 11.92147249 -0.39142471 11.50928993 -1.77172852 11.10498047 C-4.66598094 10.23328709 -6.395019 9.68164115 -8.56884766 7.5078125 C-8.88134766 4.5078125 -8.88134766 4.5078125 -8.56884766 1.5078125 C-5.18718572 -0.74662879 -3.89167435 -0.61004146 0 0 Z " fill="#27AB91" transform="translate(447.56884765625,526.4921875)"/>
<path d="M0 0 C2 1.6875 2 1.6875 3 4 C3 7.36029269 2.22044678 8.73635455 0.06640625 11.3125 C-3.72516788 14.97470817 -8.42400661 17.15215656 -13.0625 19.5625 C-19.02403822 22.69348696 -24.8827674 25.84463787 -30.5078125 29.5546875 C-31.81673462 30.4043811 -31.81673462 30.4043811 -33.15209961 31.27124023 C-34.79972443 32.35405578 -36.42969553 33.46440099 -38.03735352 34.60571289 C-41.50041331 36.85317104 -43.69024814 38.14695642 -47.88525391 37.67626953 C-50.66510221 36.92407528 -53.30729149 36.01612144 -56 35 C-57.32825208 34.64696274 -58.66005571 34.30567662 -60 34 C-58.4721653 29.89509473 -55.94773088 28.27750637 -52.375 25.875 C-51.80088379 25.48884521 -51.22676758 25.10269043 -50.63525391 24.70483398 C-48.7651853 23.4567022 -46.88425766 22.22659033 -45 21 C-44.38253906 20.59442871 -43.76507812 20.18885742 -43.12890625 19.77099609 C-11.3309767 -1.01169435 -11.3309767 -1.01169435 0 0 Z " fill="#F49601" transform="translate(769,569)"/>
<path d="M0 0 C0.75 2.1875 0.75 2.1875 1 5 C-1.88665572 9.62446608 -4.91096285 11.16897761 -9.9375 13.0625 C-10.60136719 13.31362549 -11.26523437 13.56475098 -11.94921875 13.82348633 C-42.64172856 25.2562998 -42.64172856 25.2562998 -57 23 C-59.6875 21.4375 -59.6875 21.4375 -61 19 C-61.73463988 13.01793239 -61.73463988 13.01793239 -59.8046875 10.34375 C-57.4170857 8.56596857 -55.64376983 8.41098744 -52.6875 8.0625 C-46.51741659 7.22331363 -40.38257985 6.2702795 -34.25 5.1875 C-33.30793701 5.0217749 -32.36587402 4.8560498 -31.39526367 4.68530273 C-24.57070765 3.42708554 -17.9964545 1.72022187 -11.45410156 -0.60083008 C-6.94067548 -2.10626054 -4.33672357 -1.94081765 0 0 Z " fill="#238D94" transform="translate(761,475)"/>
<path d="M0 0 C1.03430649 0.27111099 1.03430649 0.27111099 2.08950806 0.54769897 C30.31068125 7.95789746 30.31068125 7.95789746 36 13.375 C36.4375 16.9375 36.4375 16.9375 36 20.375 C32.08150327 22.98733115 29.38660269 22.24304601 25 21.375 C22.50505451 20.7300976 20.02508912 20.02477383 17.5625 19.265625 C16.87929688 19.05693787 16.19609375 18.84825073 15.4921875 18.63323975 C13.3261755 17.96998488 11.16310589 17.2976643 9 16.625 C7.58221449 16.18950717 6.16424663 15.75460753 4.74609375 15.3203125 C1.92059296 14.45406148 -0.9018303 13.57861079 -3.72265625 12.69726562 C-6.66010381 11.78189547 -9.60528458 10.89988448 -12.55859375 10.03710938 C-13.29335938 9.81843201 -14.028125 9.59975464 -14.78515625 9.37445068 C-16.1875395 8.95740233 -17.59242397 8.54864653 -19 8.1494751 C-22.6557378 7.04963381 -23.8053659 6.66695115 -26 3.375 C-25.75 0.25 -25.75 0.25 -25 -2.625 C-17.5808714 -6.3345643 -7.51023145 -2.00089498 0 0 Z " fill="#4241A5" transform="translate(578,370.625)"/>
<path d="M0 0 C2 1.625 2 1.625 3 4 C0.44476846 15.02227097 -11.5734446 22.30725384 -20 29 C-20.82371094 29.6909375 -21.64742188 30.381875 -22.49609375 31.09375 C-38.31859054 44.25806733 -38.31859054 44.25806733 -44.73046875 43.80859375 C-47 43 -47 43 -49 41 C-49.38332077 38.13664001 -49.48210861 36.63504336 -47.70703125 34.296875 C-47.08183594 33.78640625 -46.45664062 33.2759375 -45.8125 32.75 C-45.0803125 32.15058594 -44.348125 31.55117188 -43.59375 30.93359375 C-40.7261867 28.79587713 -37.78231211 26.80558992 -34.8125 24.8125 C-25.90695267 18.83199918 -18.34613211 11.40852244 -10.8125 3.8125 C-7.07605601 0.07605601 -5.25731049 -0.53646025 0 0 Z " fill="#29A17A" transform="translate(311,560)"/>
<path d="M0 0 C4.24481452 3.376557 6.47345319 6.79178147 8 12 C7.23325269 17.55891798 5.35496369 20.51602905 1 24 C-2.98933275 26.2901725 -5.04002415 27.13241046 -9.625 26.5 C-14.76629387 24.2149805 -17.15865806 21.46556339 -19.9375 16.625 C-21.24421851 12.16678392 -20.87578311 10.220512 -19 6 C-13.80115199 -0.53569465 -7.9173311 -3.51881382 0 0 Z " fill="#000000" transform="translate(714,622)"/>
<path d="M0 0 C2.28125 1.65234375 2.28125 1.65234375 4.5 3.9375 C9.03328552 8.30568863 13.7216989 11.59601258 19.08984375 14.81616211 C22.91839975 17.1505542 26.10416162 19.55983109 29 23 C28.9375 26.75 28.9375 26.75 28 30 C25.18596069 31.40701965 23.12357519 31.23350256 20 31 C10.08340652 26.46005955 -1.81723367 17.25844631 -9 9 C-9.45742277 5.79804064 -9.55468045 3.92446741 -7.875 1.125 C-5.1168655 -0.5298807 -3.17176362 -0.31717636 0 0 Z " fill="#21A283" transform="translate(364,567)"/>
<path d="M0 0 C2 3 2 3 1.875 5.875 C-0.18926924 13.24739013 -6.6547104 16.97760002 -12.5625 21.25 C-13.42552734 21.88679687 -14.28855469 22.52359375 -15.17773438 23.1796875 C-21.59063112 27.86354371 -21.59063112 27.86354371 -25 29 C-25.70365602 27.4447088 -26.38729378 25.88035173 -27.0625 24.3125 C-27.44535156 23.44238281 -27.82820312 22.57226562 -28.22265625 21.67578125 C-29.16996555 18.41494269 -29.37397953 17.13150812 -28 14 C-25.61012639 11.82348725 -22.9667008 10.11598432 -20.25 8.375 C-19.17492187 7.65957031 -19.17492187 7.65957031 -18.078125 6.9296875 C-16.06537702 5.59772193 -14.03662741 4.29505093 -12 3 C-11.08089844 2.401875 -10.16179688 1.80375 -9.21484375 1.1875 C-6.02765076 -0.52133011 -3.54505315 -0.40132677 0 0 Z " fill="#F27304" transform="translate(763,604)"/>
<path d="M0 0 C2.97551795 1.77603298 5.42755188 3.85510377 7 7 C7.42071592 10.05920574 7.48514117 12.9467746 7 16 C4.81840855 18.75569447 3.12822506 20.43588747 0 22 C-6.81283762 22.68128376 -6.81283762 22.68128376 -9.82421875 20.953125 C-13.62752744 17.82207185 -14.88663367 16.13366332 -15.375 11.25 C-15.34478584 7.93248484 -14.77284903 6.14883378 -12.6875 3.5625 C-8.67301685 -0.265263 -5.42428158 -0.55162186 0 0 Z " fill="#000000" transform="translate(489,433)"/>
<path d="M0 0 C0.66 0.66 1.32 1.32 2 2 C1.91792724 6.12777723 1.60965982 8.30846209 -1.15234375 11.44140625 C-19.16935244 25.16263447 -19.16935244 25.16263447 -26 25 C-28.375 23.5625 -28.375 23.5625 -30 22 C-29.35302643 16.48169605 -26.91793575 14.64616347 -22.8046875 11.203125 C-19.69084838 8.75715666 -16.57472619 6.33263189 -13.375 4 C-11.80878906 2.8553125 -11.80878906 2.8553125 -10.2109375 1.6875 C-6.47331794 -0.27679641 -4.16599713 -0.48418369 0 0 Z " fill="#E10F0E" transform="translate(738,682)"/>
<path d="M0 0 C6.10125126 0.07516942 10.09694151 5.56457169 14.0625 9.625 C14.79855469 10.32882812 15.53460938 11.03265625 16.29296875 11.7578125 C21.0625 16.61302395 21.0625 16.61302395 21.0625 21.5625 C20.0625 24.625 20.0625 24.625 19.0625 25.625 C16.14770399 26.24516936 14.87564086 26.41572068 12.0625 25.625 C6.0399893 21.31651645 -0.57331434 15.35337133 -3.9375 8.625 C-4.0625 5.0625 -4.0625 5.0625 -3.9375 1.625 C-2.9375 0.625 -2.9375 0.625 0 0 Z " fill="#EC5C0E" transform="translate(287.9375,656.375)"/>
<path d="M0 0 C5.98200145 1.81335932 12.72675104 4.40653282 16.2421875 9.6796875 C15.9180506 13.00209074 15.63442447 14.28745053 13.2421875 16.6796875 C6.27599938 16.6796875 0.08691742 13.24506144 -5.7578125 9.6796875 C-7.8965386 6.47159835 -8.23512212 5.40270253 -7.7578125 1.6796875 C-4.62284727 -0.41028932 -3.60029647 -0.63352856 0 0 Z " fill="#D62419" transform="translate(322.7578125,711.3203125)"/>
<path d="M0 0 C0.66 0.33 1.32 0.66 2 1 C1.5153125 1.35191406 1.030625 1.70382812 0.53125 2.06640625 C-1.66644554 3.68509354 -3.83452787 5.33846574 -6 7 C-6.77472656 7.57621094 -7.54945313 8.15242187 -8.34765625 8.74609375 C-10.43889671 10.40212015 -12.30158499 11.94159485 -14 14 C-14.28232098 17.32540173 -14.28232098 17.32540173 -13 20 C-11.9165967 21.29626079 -11.9165967 21.29626079 -9.3125 21.25 C-5.56647602 20.96728121 -3.29511563 19.7224468 0 18 C0.66 18.33 1.32 18.66 2 19 C-5.88517442 23.88880814 -5.88517442 23.88880814 -11 24 C-13.8125 23 -13.8125 23 -16 21 C-17.1875 17.75 -17.1875 17.75 -17 14 C-13.67663796 7.4971444 -6.33520413 3.14689878 0 0 Z " fill="#3CA451" transform="translate(284,608)"/>
<path d="M0 0 C0.66 0.33 1.32 0.66 2 1 C-3.52547516 6.34184909 -9.5443601 10.33432597 -16.14453125 14.203125 C-20.43449603 16.7666095 -20.43449603 16.7666095 -22.51171875 21.04296875 C-22.56972656 21.75066406 -22.62773437 22.45835937 -22.6875 23.1875 C-22.790625 24.445625 -22.89375 25.70375 -23 27 C-19.37 27 -15.74 27 -12 27 C-16 30 -16 30 -19.625 29.8125 C-23 29 -23 29 -25 27 C-25.63515228 21.46510152 -25.63515228 21.46510152 -25 19 C-21.32049615 14.55334091 -16.83380956 11.84117762 -11.9375 8.9375 C-5.48530493 5.09955875 -5.48530493 5.09955875 0 0 Z " fill="#2B9886" transform="translate(282,548)"/>
<path d="M0 0 C0.9075 0.0825 1.815 0.165 2.75 0.25 C2.75 0.58 2.75 0.91 2.75 1.25 C1.47769531 1.52457031 1.47769531 1.52457031 0.1796875 1.8046875 C-4.41725522 3.74189571 -6.88403441 6.67208683 -10.125 10.375 C-10.71796875 11.03371094 -11.3109375 11.69242187 -11.921875 12.37109375 C-13.37490748 13.98817829 -14.81389257 15.61786604 -16.25 17.25 C-16.25 13.19040721 -14.73221464 12.24302054 -12 9.3125 C-11.21109375 8.45785156 -10.4221875 7.60320312 -9.609375 6.72265625 C-8.83078125 5.90667969 -8.0521875 5.09070313 -7.25 4.25 C-6.5590625 3.49074219 -5.868125 2.73148437 -5.15625 1.94921875 C-3.25 0.25 -3.25 0.25 0 0 Z " fill="#373F92" transform="translate(334.25,421.75)"/>
<path d="M0 0 C1.74271938 2.297221 3.39911152 4.59866729 5 7 C9.88560413 7.66621875 12.73248399 6.23074701 17 4 C17.66 4.33 18.32 4.66 19 5 C11.11482558 9.88880814 11.11482558 9.88880814 6 10 C3.1875 9 3.1875 9 1 7 C0.1875 3.3125 0.1875 3.3125 0 0 Z " fill="#3DA245" transform="translate(267,622)"/>
<path d="M0 0 C0.33 0 0.66 0 1 0 C0.74438677 2.3431213 0.40729228 4.67843403 0 7 C-2.93300732 8.46650366 -4.72037344 8.36440295 -8 8 C-10.82331888 6.54771727 -13.41407765 4.83771131 -16 3 C-13 2 -13 2 -11.09765625 2.77734375 C-10.42605469 3.16019531 -9.75445312 3.54304687 -9.0625 3.9375 C-5.85952067 5.75807592 -4.92163967 6 -1 6 C-0.67 4.02 -0.34 2.04 0 0 Z " fill="#3D9F6A" transform="translate(392,590)"/>
<path d="M0 0 C0.66 0.33 1.32 0.66 2 1 C-4.93 7.435 -4.93 7.435 -12 14 C-12.99 13.67 -13.98 13.34 -15 13 C-13.2519799 11.3936298 -11.50168356 9.78986703 -9.75 8.1875 C-9.25886719 7.73568359 -8.76773438 7.28386719 -8.26171875 6.81835938 C-5.60492352 4.39181973 -2.92534924 2.09650029 0 0 Z " fill="#D45A16" transform="translate(628,668)"/>
<path d="M0 0 C0.66 0.33 1.32 0.66 2 1 C-0.64 3.64 -3.28 6.28 -6 9 C-5.34 10.65 -4.68 12.3 -4 14 C-5.32 13.34 -6.64 12.68 -8 12 C-8.25 9.73828125 -8.25 9.73828125 -8 7 C-6.25 4.98046875 -6.25 4.98046875 -4 3.1875 C-3.2575 2.58292969 -2.515 1.97835937 -1.75 1.35546875 C-1.1725 0.90816406 -0.595 0.46085938 0 0 Z " fill="#3DA162" transform="translate(270,589)"/>
<path d="M0 0 C1.134375 0.020625 2.26875 0.04125 3.4375 0.0625 C3.7675 0.7225 4.0975 1.3825 4.4375 2.0625 C2.7875 2.0625 1.1375 2.0625 -0.5625 2.0625 C-1.2225 4.0425 -1.8825 6.0225 -2.5625 8.0625 C-3.2225 8.0625 -3.8825 8.0625 -4.5625 8.0625 C-4.60491723 5.72955225 -4.60342937 3.39547433 -4.5625 1.0625 C-3.5625 0.0625 -3.5625 0.0625 0 0 Z " fill="#E6690E" transform="translate(288.5625,656.9375)"/>
<path d="M0 0 C1.4606285 2.64738916 2 3.89448334 2 7 C3.98 7.66 5.96 8.32 8 9 C8 9.33 8 9.66 8 10 C5.1875 10.25 5.1875 10.25 2 10 C-0.42831931 7.81451262 -0.94754778 6.56386135 -1.25 3.3125 C-1 1 -1 1 0 0 Z " fill="#80A225" transform="translate(701,545)"/>
<path d="M0 0 C0.66 0.33 1.32 0.66 2 1 C-1 4 -4 7 -7 10 C-6.84518205 7.29068581 -6.51827919 5.53415961 -4.59765625 3.5546875 C-3.10228292 2.32320358 -1.5537076 1.1570163 0 0 Z " fill="#D79F0B" transform="translate(708,570)"/>
<path d="M0 0 C0 0.33 0 0.66 0 1 C-1.36125 1.37125 -1.36125 1.37125 -2.75 1.75 C-6.12772697 3.04912576 -7.57519053 4.40198985 -10 7 C-10.66 7 -11.32 7 -12 7 C-9.52030127 1.00739475 -6.36870588 -0.43422995 0 0 Z " fill="#16958C" transform="translate(311,560)"/>
<path d="M0 0 C0.66 0.33 1.32 0.66 2 1 C0.35 2.98 -1.3 4.96 -3 7 C-1.35 7 0.3 7 2 7 C2 7.33 2 7.66 2 8 C0.02 8 -1.96 8 -4 8 C-4.33 7.01 -4.66 6.02 -5 5 C-3.35 3.35 -1.7 1.7 0 0 Z " fill="#C31835" transform="translate(589,758)"/>
<path d="M0 0 C0 0.33 0 0.66 0 1 C-0.928125 0.95875 -1.85625 0.9175 -2.8125 0.875 C-6.15809719 0.72863661 -6.15809719 0.72863661 -9 3 C-10.19232613 5.05003955 -10.19232613 5.05003955 -11 7 C-11.1875 4.125 -11.1875 4.125 -11 1 C-6.8204355 -1.78637633 -4.85331323 -0.79562512 0 0 Z " fill="#058988" transform="translate(450,527)"/>
<path d="M0 0 C1.67542976 0.28604898 3.34385343 0.61781233 5 1 C4.67 1.66 4.34 2.32 4 3 C-0.29 3 -4.58 3 -9 3 C-9 2.67 -9 2.34 -9 2 C-6.94921875 1.77213542 -4.8984375 1.54427083 -2.84765625 1.31640625 C-0.98859771 1.18113386 -0.98859771 1.18113386 0 0 Z " fill="#CE272B" transform="translate(531,803)"/>
<path d="M0 0 C0.66 0.33 1.32 0.66 2 1 C0.71034824 2.37562854 -0.62689293 3.70766393 -2 5 C-2.66 5 -3.32 5 -4 5 C-4 5.99 -4 6.98 -4 8 C-4.99 8 -5.98 8 -7 8 C-5.50902342 4.2047869 -3.24299151 2.38957269 0 0 Z " fill="#D76104" transform="translate(716,595)"/>
<path d="M0 0 C0.66 0 1.32 0 2 0 C2 0.99 2 1.98 2 3 C1.01 3.495 1.01 3.495 0 4 C0 6.31 0 8.62 0 11 C-2 9 -2 9 -2.25 5.5 C-2 2 -2 2 0 0 Z " fill="#1F9B99" transform="translate(702,485)"/>
<path d="M0 0 C0.598125 0.20625 1.19625 0.4125 1.8125 0.625 C0.636875 1.2128125 0.636875 1.2128125 -0.5625 1.8125 C-3.53906418 3.86774669 -4.17573563 5.22179258 -5.1875 8.625 C-5.5175 8.625 -5.8475 8.625 -6.1875 8.625 C-5.875 5.25 -5.875 5.25 -5.1875 1.625 C-2.1875 -0.375 -2.1875 -0.375 0 0 Z " fill="#D6571A" transform="translate(433.1875,692.375)"/>
<path d="M0 0 C2 2 2 2 2.3125 5 C2.209375 5.99 2.10625 6.98 2 8 C1.01 8.66 0.02 9.32 -1 10 C-0.67 6.7 -0.34 3.4 0 0 Z " fill="#AEAC1A" transform="translate(768,546)"/>
<path d="M0 0 C0.99 0.33 1.98 0.66 3 1 C2.38125 1.598125 1.7625 2.19625 1.125 2.8125 C-1.13676954 5.00811144 -1.13676954 5.00811144 -3 8 C-3.36923077 3.44615385 -3.36923077 3.44615385 -1.5 1.1875 C-1.005 0.795625 -0.51 0.40375 0 0 Z " fill="#43BA54" transform="translate(271,617)"/>
</svg>
